%TF.GenerationSoftware,KiCad,Pcbnew,9.0.6*%
%TF.CreationDate,2025-11-30T13:42:40+01:00*%
%TF.ProjectId,stm32f030f4p6-board,73746d33-3266-4303-9330-663470362d62,rev?*%
%TF.SameCoordinates,Original*%
%TF.FileFunction,Copper,L4,Bot*%
%TF.FilePolarity,Positive*%
%FSLAX46Y46*%
G04 Gerber Fmt 4.6, Leading zero omitted, Abs format (unit mm)*
G04 Created by KiCad (PCBNEW 9.0.6) date 2025-11-30 13:42:40*
%MOMM*%
%LPD*%
G01*
G04 APERTURE LIST*
G04 Aperture macros list*
%AMRoundRect*
0 Rectangle with rounded corners*
0 $1 Rounding radius*
0 $2 $3 $4 $5 $6 $7 $8 $9 X,Y pos of 4 corners*
0 Add a 4 corners polygon primitive as box body*
4,1,4,$2,$3,$4,$5,$6,$7,$8,$9,$2,$3,0*
0 Add four circle primitives for the rounded corners*
1,1,$1+$1,$2,$3*
1,1,$1+$1,$4,$5*
1,1,$1+$1,$6,$7*
1,1,$1+$1,$8,$9*
0 Add four rect primitives between the rounded corners*
20,1,$1+$1,$2,$3,$4,$5,0*
20,1,$1+$1,$4,$5,$6,$7,0*
20,1,$1+$1,$6,$7,$8,$9,0*
20,1,$1+$1,$8,$9,$2,$3,0*%
G04 Aperture macros list end*
%TA.AperFunction,ComponentPad*%
%ADD10C,1.700000*%
%TD*%
%TA.AperFunction,SMDPad,CuDef*%
%ADD11R,1.500000X2.700000*%
%TD*%
%TA.AperFunction,SMDPad,CuDef*%
%ADD12RoundRect,0.225000X-0.225000X-0.250000X0.225000X-0.250000X0.225000X0.250000X-0.225000X0.250000X0*%
%TD*%
%TA.AperFunction,ComponentPad*%
%ADD13R,1.700000X1.700000*%
%TD*%
%TA.AperFunction,SMDPad,CuDef*%
%ADD14RoundRect,0.140000X0.140000X0.170000X-0.140000X0.170000X-0.140000X-0.170000X0.140000X-0.170000X0*%
%TD*%
%TA.AperFunction,SMDPad,CuDef*%
%ADD15RoundRect,0.140000X-0.140000X-0.170000X0.140000X-0.170000X0.140000X0.170000X-0.140000X0.170000X0*%
%TD*%
%TA.AperFunction,ViaPad*%
%ADD16C,0.600000*%
%TD*%
%TA.AperFunction,ViaPad*%
%ADD17C,0.800000*%
%TD*%
%TA.AperFunction,Conductor*%
%ADD18C,0.300000*%
%TD*%
%TA.AperFunction,Conductor*%
%ADD19C,0.500000*%
%TD*%
G04 APERTURE END LIST*
D10*
%TO.P,J2,1,Pin_1*%
%TO.N,+3.3V*%
X86385500Y-56237999D03*
%TO.P,J2,2,Pin_2*%
%TO.N,/boot0*%
X86385500Y-53697999D03*
%TO.P,J2,3,Pin_3*%
%TO.N,unconnected-(J2-Pin_3-Pad3)*%
X86385500Y-51157999D03*
%TD*%
D11*
%TO.P,Y1,1,1*%
%TO.N,Net-(U1-PF1)*%
X97450000Y-63612000D03*
%TO.P,Y1,2,2*%
%TO.N,Net-(U1-PF0)*%
X95550000Y-63612000D03*
%TD*%
D12*
%TO.P,C5,1*%
%TO.N,+3.3V*%
X92542500Y-55568999D03*
%TO.P,C5,2*%
%TO.N,GND*%
X94092500Y-55568999D03*
%TD*%
D10*
%TO.P,J3,1,Pin_1*%
%TO.N,+3.3V*%
X107500000Y-62134999D03*
%TO.P,J3,2,Pin_2*%
%TO.N,GND*%
X107500000Y-64674999D03*
%TO.P,J3,3,Pin_3*%
%TO.N,/PA9*%
X107500000Y-67214999D03*
%TO.P,J3,4,Pin_4*%
%TO.N,/PB1*%
X107500000Y-69754999D03*
%TO.P,J3,5,Pin_5*%
%TO.N,/PA7*%
X107500000Y-72294999D03*
%TO.P,J3,6,Pin_6*%
%TO.N,/PA6*%
X107500000Y-74834999D03*
%TO.P,J3,7,Pin_7*%
%TO.N,/PA5*%
X107500000Y-77374999D03*
%TD*%
%TO.P,J5,1,Pin_1*%
%TO.N,+3.3V*%
X85500000Y-62134999D03*
%TO.P,J5,2,Pin_2*%
%TO.N,GND*%
X85500000Y-64674999D03*
%TO.P,J5,3,Pin_3*%
%TO.N,/PA0*%
X85500000Y-67214999D03*
%TO.P,J5,4,Pin_4*%
%TO.N,/PA1*%
X85500000Y-69754999D03*
%TO.P,J5,5,Pin_5*%
%TO.N,/PA2*%
X85500000Y-72294999D03*
%TO.P,J5,6,Pin_6*%
%TO.N,/PA3*%
X85500000Y-74834999D03*
%TO.P,J5,7,Pin_7*%
%TO.N,/PA4*%
X85500000Y-77374999D03*
%TD*%
D13*
%TO.P,J1,1,Pin_1*%
%TO.N,GND*%
X100162500Y-58186999D03*
D10*
%TO.P,J1,2,Pin_2*%
%TO.N,/SWCLK*%
X97622500Y-58186999D03*
%TO.P,J1,3,Pin_3*%
%TO.N,/SWDIO*%
X95082500Y-58186999D03*
%TO.P,J1,4,Pin_4*%
%TO.N,+3.3V*%
X92542500Y-58186999D03*
%TD*%
D14*
%TO.P,C2,1*%
%TO.N,GND*%
X98410000Y-60670000D03*
%TO.P,C2,2*%
%TO.N,Net-(U1-PF1)*%
X97450000Y-60670000D03*
%TD*%
D15*
%TO.P,C1,1*%
%TO.N,GND*%
X94590000Y-60670000D03*
%TO.P,C1,2*%
%TO.N,Net-(U1-PF0)*%
X95550000Y-60670000D03*
%TD*%
D16*
%TO.N,+3.3V*%
X92128500Y-67800000D03*
%TO.N,GND*%
X105458000Y-52293999D03*
%TO.N,Net-(U1-PF1)*%
X96591000Y-66582000D03*
%TO.N,Net-(U1-PF0)*%
X95550000Y-65730000D03*
%TO.N,GND*%
X93890000Y-60670000D03*
X99110000Y-60670000D03*
%TO.N,/PB1*%
X98099500Y-69970999D03*
%TO.N,+3.3V*%
X100462500Y-73341999D03*
X101690000Y-68515999D03*
%TO.N,GND*%
X99396500Y-73394999D03*
X101690000Y-69475999D03*
%TO.N,/PA9*%
X98099500Y-68020999D03*
%TO.N,GND*%
X90368500Y-68670999D03*
%TO.N,+3.3V*%
X106537500Y-57004999D03*
%TO.N,/PA0*%
X94921500Y-69320999D03*
D17*
%TO.N,GND*%
X95182500Y-55568999D03*
D16*
X90325000Y-66070999D03*
X92253500Y-75175999D03*
%TD*%
D18*
%TO.N,Net-(U1-PF1)*%
X97450000Y-65723000D02*
X97450000Y-63612000D01*
X96591000Y-66582000D02*
X97450000Y-65723000D01*
%TO.N,Net-(U1-PF0)*%
X95550000Y-63612000D02*
X95550000Y-65730000D01*
%TO.N,Net-(U1-PF1)*%
X97450000Y-63612000D02*
X97450000Y-60670000D01*
%TO.N,Net-(U1-PF0)*%
X95550000Y-60670000D02*
X95550000Y-63612000D01*
%TO.N,GND*%
X94590000Y-60670000D02*
X93890000Y-60670000D01*
X98410000Y-60670000D02*
X99110000Y-60670000D01*
%TO.N,/PA0*%
X85500000Y-67214999D02*
X88107000Y-69821999D01*
X88107000Y-69821999D02*
X94420500Y-69821999D01*
D19*
%TO.N,GND*%
X94092500Y-55568999D02*
X95182500Y-55568999D01*
D18*
%TO.N,/PB1*%
X98766500Y-70637999D02*
X98099500Y-69970999D01*
X107500000Y-69754999D02*
X106617000Y-70637999D01*
%TO.N,/PA0*%
X94420500Y-69821999D02*
X94921500Y-69320999D01*
D19*
%TO.N,+3.3V*%
X92542500Y-55568999D02*
X92542500Y-58186999D01*
D18*
%TO.N,/PB1*%
X106617000Y-70637999D02*
X98766500Y-70637999D01*
%TO.N,/PA9*%
X98905500Y-67214999D02*
X107500000Y-67214999D01*
X98099500Y-68020999D02*
X98905500Y-67214999D01*
%TD*%
M02*
