%TF.GenerationSoftware,KiCad,Pcbnew,9.0.6*%
%TF.CreationDate,2025-11-30T13:42:40+01:00*%
%TF.ProjectId,stm32f030f4p6-board,73746d33-3266-4303-9330-663470362d62,rev?*%
%TF.SameCoordinates,Original*%
%TF.FileFunction,Copper,L2,Inr*%
%TF.FilePolarity,Positive*%
%FSLAX46Y46*%
G04 Gerber Fmt 4.6, Leading zero omitted, Abs format (unit mm)*
G04 Created by KiCad (PCBNEW 9.0.6) date 2025-11-30 13:42:40*
%MOMM*%
%LPD*%
G01*
G04 APERTURE LIST*
%TA.AperFunction,ComponentPad*%
%ADD10C,1.700000*%
%TD*%
%TA.AperFunction,ComponentPad*%
%ADD11R,1.700000X1.700000*%
%TD*%
%TA.AperFunction,ViaPad*%
%ADD12C,0.600000*%
%TD*%
%TA.AperFunction,ViaPad*%
%ADD13C,0.800000*%
%TD*%
G04 APERTURE END LIST*
D10*
%TO.N,+3.3V*%
%TO.C,J2*%
X86385500Y-56237999D03*
%TO.N,/boot0*%
X86385500Y-53697999D03*
%TO.N,unconnected-(J2-Pin_3-Pad3)*%
X86385500Y-51157999D03*
%TD*%
%TO.N,+3.3V*%
%TO.C,J3*%
X107500000Y-62134999D03*
%TO.N,GND*%
X107500000Y-64674999D03*
%TO.N,/PA9*%
X107500000Y-67214999D03*
%TO.N,/PB1*%
X107500000Y-69754999D03*
%TO.N,/PA7*%
X107500000Y-72294999D03*
%TO.N,/PA6*%
X107500000Y-74834999D03*
%TO.N,/PA5*%
X107500000Y-77374999D03*
%TD*%
%TO.N,+3.3V*%
%TO.C,J5*%
X85500000Y-62134999D03*
%TO.N,GND*%
X85500000Y-64674999D03*
%TO.N,/PA0*%
X85500000Y-67214999D03*
%TO.N,/PA1*%
X85500000Y-69754999D03*
%TO.N,/PA2*%
X85500000Y-72294999D03*
%TO.N,/PA3*%
X85500000Y-74834999D03*
%TO.N,/PA4*%
X85500000Y-77374999D03*
%TD*%
D11*
%TO.N,GND*%
%TO.C,J1*%
X100162500Y-58186999D03*
D10*
%TO.N,/SWCLK*%
X97622500Y-58186999D03*
%TO.N,/SWDIO*%
X95082500Y-58186999D03*
%TO.N,+3.3V*%
X92542500Y-58186999D03*
%TD*%
D12*
%TO.N,+3.3V*%
X92128500Y-67800000D03*
%TO.N,GND*%
X105458000Y-52293999D03*
%TO.N,Net-(U1-PF1)*%
X96591000Y-66582000D03*
%TO.N,Net-(U1-PF0)*%
X95550000Y-65730000D03*
%TO.N,GND*%
X93890000Y-60670000D03*
X99110000Y-60670000D03*
%TO.N,/PB1*%
X98099500Y-69970999D03*
%TO.N,+3.3V*%
X100462500Y-73341999D03*
X101690000Y-68515999D03*
%TO.N,GND*%
X99396500Y-73394999D03*
X101690000Y-69475999D03*
%TO.N,/PA9*%
X98099500Y-68020999D03*
%TO.N,GND*%
X90368500Y-68670999D03*
%TO.N,+3.3V*%
X106537500Y-57004999D03*
%TO.N,/PA0*%
X94921500Y-69320999D03*
D13*
%TO.N,GND*%
X95182500Y-55568999D03*
D12*
X90325000Y-66070999D03*
X92253500Y-75175999D03*
%TD*%
%TA.AperFunction,Conductor*%
%TO.N,GND*%
G36*
X110006922Y-48501280D02*
G01*
X110097266Y-48511459D01*
X110124331Y-48517636D01*
X110203540Y-48545352D01*
X110228553Y-48557398D01*
X110299606Y-48602043D01*
X110321313Y-48619355D01*
X110380644Y-48678686D01*
X110397957Y-48700395D01*
X110442600Y-48771444D01*
X110454648Y-48796462D01*
X110482362Y-48875666D01*
X110488540Y-48902735D01*
X110498720Y-48993076D01*
X110499500Y-49006961D01*
X110499500Y-78243038D01*
X110498720Y-78256922D01*
X110498720Y-78256923D01*
X110488540Y-78347264D01*
X110482362Y-78374333D01*
X110454648Y-78453537D01*
X110442600Y-78478555D01*
X110397957Y-78549604D01*
X110380644Y-78571313D01*
X110321313Y-78630644D01*
X110299604Y-78647957D01*
X110228555Y-78692600D01*
X110203537Y-78704648D01*
X110124333Y-78732362D01*
X110097264Y-78738540D01*
X110017075Y-78747576D01*
X110006921Y-78748720D01*
X109993038Y-78749500D01*
X108287402Y-78749500D01*
X108220363Y-78729815D01*
X108174608Y-78677011D01*
X108164664Y-78607853D01*
X108193689Y-78544297D01*
X108214517Y-78525182D01*
X108379786Y-78405108D01*
X108379788Y-78405105D01*
X108379792Y-78405103D01*
X108530104Y-78254791D01*
X108530106Y-78254787D01*
X108530109Y-78254785D01*
X108655048Y-78082819D01*
X108655047Y-78082819D01*
X108655051Y-78082815D01*
X108751557Y-77893411D01*
X108817246Y-77691242D01*
X108850500Y-77481286D01*
X108850500Y-77268712D01*
X108817246Y-77058756D01*
X108751557Y-76856587D01*
X108655051Y-76667183D01*
X108655049Y-76667180D01*
X108655048Y-76667178D01*
X108530109Y-76495212D01*
X108379786Y-76344889D01*
X108207820Y-76219950D01*
X108207115Y-76219590D01*
X108199054Y-76215484D01*
X108148259Y-76167511D01*
X108131463Y-76099691D01*
X108153999Y-76033555D01*
X108199054Y-75994514D01*
X108207816Y-75990050D01*
X108229789Y-75974085D01*
X108379786Y-75865108D01*
X108379788Y-75865105D01*
X108379792Y-75865103D01*
X108530104Y-75714791D01*
X108530106Y-75714787D01*
X108530109Y-75714785D01*
X108655048Y-75542819D01*
X108655047Y-75542819D01*
X108655051Y-75542815D01*
X108751557Y-75353411D01*
X108817246Y-75151242D01*
X108850500Y-74941286D01*
X108850500Y-74728712D01*
X108817246Y-74518756D01*
X108751557Y-74316587D01*
X108655051Y-74127183D01*
X108655049Y-74127180D01*
X108655048Y-74127178D01*
X108530109Y-73955212D01*
X108379786Y-73804889D01*
X108207820Y-73679950D01*
X108207115Y-73679590D01*
X108199054Y-73675484D01*
X108148259Y-73627511D01*
X108131463Y-73559691D01*
X108153999Y-73493555D01*
X108199054Y-73454514D01*
X108207816Y-73450050D01*
X108248019Y-73420841D01*
X108379786Y-73325108D01*
X108379788Y-73325105D01*
X108379792Y-73325103D01*
X108530104Y-73174791D01*
X108530106Y-73174787D01*
X108530109Y-73174785D01*
X108655048Y-73002819D01*
X108655047Y-73002819D01*
X108655051Y-73002815D01*
X108751557Y-72813411D01*
X108817246Y-72611242D01*
X108850500Y-72401286D01*
X108850500Y-72188712D01*
X108817246Y-71978756D01*
X108751557Y-71776587D01*
X108655051Y-71587183D01*
X108655049Y-71587180D01*
X108655048Y-71587178D01*
X108530109Y-71415212D01*
X108379786Y-71264889D01*
X108207820Y-71139950D01*
X108207115Y-71139590D01*
X108199054Y-71135484D01*
X108148259Y-71087511D01*
X108131463Y-71019691D01*
X108153999Y-70953555D01*
X108199054Y-70914514D01*
X108207816Y-70910050D01*
X108229789Y-70894085D01*
X108379786Y-70785108D01*
X108379788Y-70785105D01*
X108379792Y-70785103D01*
X108530104Y-70634791D01*
X108530106Y-70634787D01*
X108530109Y-70634785D01*
X108655048Y-70462819D01*
X108655047Y-70462819D01*
X108655051Y-70462815D01*
X108751557Y-70273411D01*
X108817246Y-70071242D01*
X108850500Y-69861286D01*
X108850500Y-69648712D01*
X108817246Y-69438756D01*
X108751557Y-69236587D01*
X108655051Y-69047183D01*
X108655049Y-69047180D01*
X108655048Y-69047178D01*
X108530109Y-68875212D01*
X108379786Y-68724889D01*
X108207820Y-68599950D01*
X108207115Y-68599590D01*
X108199054Y-68595484D01*
X108148259Y-68547511D01*
X108131463Y-68479691D01*
X108153999Y-68413555D01*
X108199054Y-68374514D01*
X108207816Y-68370050D01*
X108229789Y-68354085D01*
X108379786Y-68245108D01*
X108379788Y-68245105D01*
X108379792Y-68245103D01*
X108530104Y-68094791D01*
X108530106Y-68094787D01*
X108530109Y-68094785D01*
X108655048Y-67922819D01*
X108655047Y-67922819D01*
X108655051Y-67922815D01*
X108751557Y-67733411D01*
X108817246Y-67531242D01*
X108850500Y-67321286D01*
X108850500Y-67108712D01*
X108817246Y-66898756D01*
X108751557Y-66696587D01*
X108655051Y-66507183D01*
X108655049Y-66507180D01*
X108655048Y-66507178D01*
X108530109Y-66335212D01*
X108379786Y-66184889D01*
X108207817Y-66059948D01*
X108198504Y-66055203D01*
X108147707Y-66007229D01*
X108130912Y-65939408D01*
X108153449Y-65873273D01*
X108198507Y-65834231D01*
X108207555Y-65829621D01*
X108261716Y-65790269D01*
X108261717Y-65790269D01*
X107629408Y-65157961D01*
X107692993Y-65140924D01*
X107807007Y-65075098D01*
X107900099Y-64982006D01*
X107965925Y-64867992D01*
X107982962Y-64804407D01*
X108615270Y-65436716D01*
X108615270Y-65436715D01*
X108654622Y-65382553D01*
X108751095Y-65193216D01*
X108816757Y-64991129D01*
X108816757Y-64991126D01*
X108850000Y-64781245D01*
X108850000Y-64568752D01*
X108816757Y-64358871D01*
X108816757Y-64358868D01*
X108751095Y-64156781D01*
X108654624Y-63967448D01*
X108615270Y-63913281D01*
X108615269Y-63913281D01*
X107982962Y-64545589D01*
X107965925Y-64482006D01*
X107900099Y-64367992D01*
X107807007Y-64274900D01*
X107692993Y-64209074D01*
X107629409Y-64192036D01*
X108261716Y-63559727D01*
X108207547Y-63520372D01*
X108207547Y-63520371D01*
X108198500Y-63515762D01*
X108147706Y-63467787D01*
X108130912Y-63399965D01*
X108153451Y-63333831D01*
X108198508Y-63294792D01*
X108207816Y-63290050D01*
X108287007Y-63232514D01*
X108379786Y-63165108D01*
X108379788Y-63165105D01*
X108379792Y-63165103D01*
X108530104Y-63014791D01*
X108530106Y-63014787D01*
X108530109Y-63014785D01*
X108655048Y-62842819D01*
X108655047Y-62842819D01*
X108655051Y-62842815D01*
X108751557Y-62653411D01*
X108817246Y-62451242D01*
X108850500Y-62241286D01*
X108850500Y-62028712D01*
X108817246Y-61818756D01*
X108751557Y-61616587D01*
X108655051Y-61427183D01*
X108655049Y-61427180D01*
X108655048Y-61427178D01*
X108530109Y-61255212D01*
X108379786Y-61104889D01*
X108207820Y-60979950D01*
X108018414Y-60883443D01*
X108018413Y-60883442D01*
X108018412Y-60883442D01*
X107816243Y-60817753D01*
X107816241Y-60817752D01*
X107816240Y-60817752D01*
X107654957Y-60792207D01*
X107606287Y-60784499D01*
X107393713Y-60784499D01*
X107345042Y-60792207D01*
X107183760Y-60817752D01*
X106981585Y-60883443D01*
X106792179Y-60979950D01*
X106620213Y-61104889D01*
X106469890Y-61255212D01*
X106344951Y-61427178D01*
X106248444Y-61616584D01*
X106182753Y-61818759D01*
X106149500Y-62028712D01*
X106149500Y-62241285D01*
X106182753Y-62451238D01*
X106248444Y-62653413D01*
X106344951Y-62842819D01*
X106469890Y-63014785D01*
X106620213Y-63165108D01*
X106792179Y-63290047D01*
X106792181Y-63290048D01*
X106792184Y-63290050D01*
X106801493Y-63294793D01*
X106852290Y-63342765D01*
X106869087Y-63410586D01*
X106846552Y-63476721D01*
X106801505Y-63515759D01*
X106792446Y-63520375D01*
X106792440Y-63520379D01*
X106738282Y-63559726D01*
X106738282Y-63559727D01*
X107370591Y-64192036D01*
X107307007Y-64209074D01*
X107192993Y-64274900D01*
X107099901Y-64367992D01*
X107034075Y-64482006D01*
X107017037Y-64545590D01*
X106384728Y-63913281D01*
X106384727Y-63913281D01*
X106345380Y-63967438D01*
X106248904Y-64156781D01*
X106183242Y-64358868D01*
X106183242Y-64358871D01*
X106150000Y-64568752D01*
X106150000Y-64781245D01*
X106183242Y-64991126D01*
X106183242Y-64991129D01*
X106248904Y-65193216D01*
X106345375Y-65382549D01*
X106384728Y-65436715D01*
X107017037Y-64804407D01*
X107034075Y-64867992D01*
X107099901Y-64982006D01*
X107192993Y-65075098D01*
X107307007Y-65140924D01*
X107370590Y-65157961D01*
X106738282Y-65790268D01*
X106738282Y-65790269D01*
X106792452Y-65829625D01*
X106792451Y-65829625D01*
X106801495Y-65834233D01*
X106852292Y-65882207D01*
X106869087Y-65950028D01*
X106846550Y-66016163D01*
X106801499Y-66055201D01*
X106792182Y-66059948D01*
X106620213Y-66184889D01*
X106469890Y-66335212D01*
X106344951Y-66507178D01*
X106248444Y-66696584D01*
X106182753Y-66898759D01*
X106149500Y-67108712D01*
X106149500Y-67321285D01*
X106182753Y-67531238D01*
X106182753Y-67531240D01*
X106182754Y-67531242D01*
X106230031Y-67676746D01*
X106248444Y-67733413D01*
X106344951Y-67922819D01*
X106469890Y-68094785D01*
X106620213Y-68245108D01*
X106792182Y-68370049D01*
X106800946Y-68374515D01*
X106851742Y-68422490D01*
X106868536Y-68490311D01*
X106845998Y-68556446D01*
X106800946Y-68595483D01*
X106792182Y-68599948D01*
X106620213Y-68724889D01*
X106469890Y-68875212D01*
X106344951Y-69047178D01*
X106248444Y-69236584D01*
X106182753Y-69438759D01*
X106149500Y-69648712D01*
X106149500Y-69861285D01*
X106179364Y-70049843D01*
X106182754Y-70071242D01*
X106226052Y-70204500D01*
X106248444Y-70273413D01*
X106344951Y-70462819D01*
X106469890Y-70634785D01*
X106620213Y-70785108D01*
X106792182Y-70910049D01*
X106800946Y-70914515D01*
X106851742Y-70962490D01*
X106868536Y-71030311D01*
X106845998Y-71096446D01*
X106800946Y-71135483D01*
X106792182Y-71139948D01*
X106620213Y-71264889D01*
X106469890Y-71415212D01*
X106344951Y-71587178D01*
X106248444Y-71776584D01*
X106182753Y-71978759D01*
X106149500Y-72188712D01*
X106149500Y-72401286D01*
X106182754Y-72611242D01*
X106189696Y-72632608D01*
X106248444Y-72813413D01*
X106344951Y-73002819D01*
X106469890Y-73174785D01*
X106620213Y-73325108D01*
X106792182Y-73450049D01*
X106800946Y-73454515D01*
X106851742Y-73502490D01*
X106868536Y-73570311D01*
X106845998Y-73636446D01*
X106800946Y-73675483D01*
X106792182Y-73679948D01*
X106620213Y-73804889D01*
X106469890Y-73955212D01*
X106344951Y-74127178D01*
X106248444Y-74316584D01*
X106182753Y-74518759D01*
X106149500Y-74728712D01*
X106149500Y-74941285D01*
X106182753Y-75151238D01*
X106248444Y-75353413D01*
X106344951Y-75542819D01*
X106469890Y-75714785D01*
X106620213Y-75865108D01*
X106792182Y-75990049D01*
X106800946Y-75994515D01*
X106851742Y-76042490D01*
X106868536Y-76110311D01*
X106845998Y-76176446D01*
X106800946Y-76215483D01*
X106792182Y-76219948D01*
X106620213Y-76344889D01*
X106469890Y-76495212D01*
X106344951Y-76667178D01*
X106248444Y-76856584D01*
X106182753Y-77058759D01*
X106149500Y-77268712D01*
X106149500Y-77481285D01*
X106182753Y-77691238D01*
X106248444Y-77893413D01*
X106344951Y-78082819D01*
X106469890Y-78254785D01*
X106620213Y-78405108D01*
X106785483Y-78525182D01*
X106828149Y-78580511D01*
X106834128Y-78650125D01*
X106801523Y-78711920D01*
X106740684Y-78746277D01*
X106712598Y-78749500D01*
X86287402Y-78749500D01*
X86220363Y-78729815D01*
X86174608Y-78677011D01*
X86164664Y-78607853D01*
X86193689Y-78544297D01*
X86214517Y-78525182D01*
X86379786Y-78405108D01*
X86379788Y-78405105D01*
X86379792Y-78405103D01*
X86530104Y-78254791D01*
X86530106Y-78254787D01*
X86530109Y-78254785D01*
X86655048Y-78082819D01*
X86655047Y-78082819D01*
X86655051Y-78082815D01*
X86751557Y-77893411D01*
X86817246Y-77691242D01*
X86850500Y-77481286D01*
X86850500Y-77268712D01*
X86817246Y-77058756D01*
X86751557Y-76856587D01*
X86655051Y-76667183D01*
X86655049Y-76667180D01*
X86655048Y-76667178D01*
X86530109Y-76495212D01*
X86379786Y-76344889D01*
X86207820Y-76219950D01*
X86207115Y-76219590D01*
X86199054Y-76215484D01*
X86148259Y-76167511D01*
X86131463Y-76099691D01*
X86153999Y-76033555D01*
X86199054Y-75994514D01*
X86207816Y-75990050D01*
X86229789Y-75974085D01*
X86379786Y-75865108D01*
X86379788Y-75865105D01*
X86379792Y-75865103D01*
X86530104Y-75714791D01*
X86530106Y-75714787D01*
X86530109Y-75714785D01*
X86655048Y-75542819D01*
X86655047Y-75542819D01*
X86655051Y-75542815D01*
X86751557Y-75353411D01*
X86817246Y-75151242D01*
X86850500Y-74941286D01*
X86850500Y-74728712D01*
X86817246Y-74518756D01*
X86751557Y-74316587D01*
X86655051Y-74127183D01*
X86655049Y-74127180D01*
X86655048Y-74127178D01*
X86530109Y-73955212D01*
X86379786Y-73804889D01*
X86207820Y-73679950D01*
X86207115Y-73679590D01*
X86199054Y-73675484D01*
X86148259Y-73627511D01*
X86131463Y-73559691D01*
X86153999Y-73493555D01*
X86199054Y-73454514D01*
X86207816Y-73450050D01*
X86248019Y-73420841D01*
X86379786Y-73325108D01*
X86379788Y-73325105D01*
X86379792Y-73325103D01*
X86441743Y-73263152D01*
X99662000Y-73263152D01*
X99662000Y-73420845D01*
X99692761Y-73575488D01*
X99692764Y-73575500D01*
X99753102Y-73721171D01*
X99753109Y-73721184D01*
X99840710Y-73852287D01*
X99840713Y-73852291D01*
X99952207Y-73963785D01*
X99952211Y-73963788D01*
X100083314Y-74051389D01*
X100083327Y-74051396D01*
X100228998Y-74111734D01*
X100229003Y-74111736D01*
X100383653Y-74142498D01*
X100383656Y-74142499D01*
X100383658Y-74142499D01*
X100541344Y-74142499D01*
X100541345Y-74142498D01*
X100695997Y-74111736D01*
X100841679Y-74051393D01*
X100972789Y-73963788D01*
X101084289Y-73852288D01*
X101171894Y-73721178D01*
X101232237Y-73575496D01*
X101263000Y-73420841D01*
X101263000Y-73263157D01*
X101263000Y-73263154D01*
X101262999Y-73263152D01*
X101245422Y-73174789D01*
X101232237Y-73108502D01*
X101188462Y-73002819D01*
X101171897Y-72962826D01*
X101171890Y-72962813D01*
X101084289Y-72831710D01*
X101084286Y-72831706D01*
X100972792Y-72720212D01*
X100972788Y-72720209D01*
X100841685Y-72632608D01*
X100841672Y-72632601D01*
X100696001Y-72572263D01*
X100695989Y-72572260D01*
X100541345Y-72541499D01*
X100541342Y-72541499D01*
X100383658Y-72541499D01*
X100383655Y-72541499D01*
X100229010Y-72572260D01*
X100228998Y-72572263D01*
X100083327Y-72632601D01*
X100083314Y-72632608D01*
X99952211Y-72720209D01*
X99952207Y-72720212D01*
X99840713Y-72831706D01*
X99840710Y-72831710D01*
X99753109Y-72962813D01*
X99753102Y-72962826D01*
X99692764Y-73108497D01*
X99692761Y-73108509D01*
X99662000Y-73263152D01*
X86441743Y-73263152D01*
X86530104Y-73174791D01*
X86655051Y-73002815D01*
X86751557Y-72813411D01*
X86817246Y-72611242D01*
X86850500Y-72401286D01*
X86850500Y-72188712D01*
X86817246Y-71978756D01*
X86751557Y-71776587D01*
X86655051Y-71587183D01*
X86655049Y-71587180D01*
X86655048Y-71587178D01*
X86530109Y-71415212D01*
X86379786Y-71264889D01*
X86207820Y-71139950D01*
X86207115Y-71139590D01*
X86199054Y-71135484D01*
X86148259Y-71087511D01*
X86131463Y-71019691D01*
X86153999Y-70953555D01*
X86199054Y-70914514D01*
X86207816Y-70910050D01*
X86229789Y-70894085D01*
X86379786Y-70785108D01*
X86379788Y-70785105D01*
X86379792Y-70785103D01*
X86530104Y-70634791D01*
X86530106Y-70634787D01*
X86530109Y-70634785D01*
X86655048Y-70462819D01*
X86655047Y-70462819D01*
X86655051Y-70462815D01*
X86751557Y-70273411D01*
X86817246Y-70071242D01*
X86850500Y-69861286D01*
X86850500Y-69648712D01*
X86817246Y-69438756D01*
X86753365Y-69242152D01*
X94121000Y-69242152D01*
X94121000Y-69399845D01*
X94151761Y-69554488D01*
X94151764Y-69554500D01*
X94212102Y-69700171D01*
X94212109Y-69700184D01*
X94299710Y-69831287D01*
X94299713Y-69831291D01*
X94411207Y-69942785D01*
X94411211Y-69942788D01*
X94542314Y-70030389D01*
X94542327Y-70030396D01*
X94687998Y-70090734D01*
X94688003Y-70090736D01*
X94842653Y-70121498D01*
X94842656Y-70121499D01*
X94842658Y-70121499D01*
X95000344Y-70121499D01*
X95000345Y-70121498D01*
X95154997Y-70090736D01*
X95300679Y-70030393D01*
X95431789Y-69942788D01*
X95482425Y-69892152D01*
X97299000Y-69892152D01*
X97299000Y-70049845D01*
X97329761Y-70204488D01*
X97329764Y-70204500D01*
X97390102Y-70350171D01*
X97390109Y-70350184D01*
X97477710Y-70481287D01*
X97477713Y-70481291D01*
X97589207Y-70592785D01*
X97589211Y-70592788D01*
X97720314Y-70680389D01*
X97720327Y-70680396D01*
X97865998Y-70740734D01*
X97866003Y-70740736D01*
X98020653Y-70771498D01*
X98020656Y-70771499D01*
X98020658Y-70771499D01*
X98178344Y-70771499D01*
X98178345Y-70771498D01*
X98332997Y-70740736D01*
X98478679Y-70680393D01*
X98609789Y-70592788D01*
X98721289Y-70481288D01*
X98808894Y-70350178D01*
X98869237Y-70204496D01*
X98900000Y-70049841D01*
X98900000Y-69892157D01*
X98900000Y-69892154D01*
X98899999Y-69892152D01*
X98869238Y-69737509D01*
X98869237Y-69737502D01*
X98869235Y-69737497D01*
X98808897Y-69591826D01*
X98808890Y-69591813D01*
X98721289Y-69460710D01*
X98721286Y-69460706D01*
X98609792Y-69349212D01*
X98609788Y-69349209D01*
X98478685Y-69261608D01*
X98478672Y-69261601D01*
X98333001Y-69201263D01*
X98332989Y-69201260D01*
X98178345Y-69170499D01*
X98178342Y-69170499D01*
X98020658Y-69170499D01*
X98020655Y-69170499D01*
X97866010Y-69201260D01*
X97865998Y-69201263D01*
X97720327Y-69261601D01*
X97720314Y-69261608D01*
X97589211Y-69349209D01*
X97589207Y-69349212D01*
X97477713Y-69460706D01*
X97477710Y-69460710D01*
X97390109Y-69591813D01*
X97390102Y-69591826D01*
X97329764Y-69737497D01*
X97329761Y-69737509D01*
X97299000Y-69892152D01*
X95482425Y-69892152D01*
X95543289Y-69831288D01*
X95630894Y-69700178D01*
X95691237Y-69554496D01*
X95722000Y-69399841D01*
X95722000Y-69242157D01*
X95722000Y-69242154D01*
X95721999Y-69242152D01*
X95707746Y-69170499D01*
X95691237Y-69087502D01*
X95691235Y-69087497D01*
X95630897Y-68941826D01*
X95630890Y-68941813D01*
X95543289Y-68810710D01*
X95543286Y-68810706D01*
X95431792Y-68699212D01*
X95431788Y-68699209D01*
X95300685Y-68611608D01*
X95300672Y-68611601D01*
X95155001Y-68551263D01*
X95154989Y-68551260D01*
X95000345Y-68520499D01*
X95000342Y-68520499D01*
X94842658Y-68520499D01*
X94842655Y-68520499D01*
X94688010Y-68551260D01*
X94687998Y-68551263D01*
X94542327Y-68611601D01*
X94542314Y-68611608D01*
X94411211Y-68699209D01*
X94411207Y-68699212D01*
X94299713Y-68810706D01*
X94299710Y-68810710D01*
X94212109Y-68941813D01*
X94212102Y-68941826D01*
X94151764Y-69087497D01*
X94151761Y-69087509D01*
X94121000Y-69242152D01*
X86753365Y-69242152D01*
X86751557Y-69236587D01*
X86655051Y-69047183D01*
X86655049Y-69047180D01*
X86655048Y-69047178D01*
X86530109Y-68875212D01*
X86379786Y-68724889D01*
X86207820Y-68599950D01*
X86207115Y-68599590D01*
X86199054Y-68595484D01*
X86148259Y-68547511D01*
X86131463Y-68479691D01*
X86153999Y-68413555D01*
X86199054Y-68374514D01*
X86207816Y-68370050D01*
X86229789Y-68354085D01*
X86379786Y-68245108D01*
X86379788Y-68245105D01*
X86379792Y-68245103D01*
X86530104Y-68094791D01*
X86530106Y-68094787D01*
X86530109Y-68094785D01*
X86655048Y-67922819D01*
X86655047Y-67922819D01*
X86655051Y-67922815D01*
X86751557Y-67733411D01*
X86755540Y-67721153D01*
X91328000Y-67721153D01*
X91328000Y-67878846D01*
X91358761Y-68033489D01*
X91358764Y-68033501D01*
X91419102Y-68179172D01*
X91419109Y-68179185D01*
X91506710Y-68310288D01*
X91506713Y-68310292D01*
X91618207Y-68421786D01*
X91618211Y-68421789D01*
X91749314Y-68509390D01*
X91749327Y-68509397D01*
X91802185Y-68531291D01*
X91895003Y-68569737D01*
X92021219Y-68594843D01*
X92049653Y-68600499D01*
X92049656Y-68600500D01*
X92049658Y-68600500D01*
X92207344Y-68600500D01*
X92207345Y-68600499D01*
X92361997Y-68569737D01*
X92507679Y-68509394D01*
X92638789Y-68421789D01*
X92750289Y-68310289D01*
X92837894Y-68179179D01*
X92898237Y-68033497D01*
X92916406Y-67942157D01*
X92916407Y-67942152D01*
X97299000Y-67942152D01*
X97299000Y-68099845D01*
X97329761Y-68254488D01*
X97329764Y-68254500D01*
X97390102Y-68400171D01*
X97390109Y-68400184D01*
X97477710Y-68531287D01*
X97477713Y-68531291D01*
X97589207Y-68642785D01*
X97589211Y-68642788D01*
X97720314Y-68730389D01*
X97720327Y-68730396D01*
X97865998Y-68790734D01*
X97866003Y-68790736D01*
X98020653Y-68821498D01*
X98020656Y-68821499D01*
X98020658Y-68821499D01*
X98178344Y-68821499D01*
X98178345Y-68821498D01*
X98332997Y-68790736D01*
X98478679Y-68730393D01*
X98609789Y-68642788D01*
X98721289Y-68531288D01*
X98784189Y-68437152D01*
X100889500Y-68437152D01*
X100889500Y-68594845D01*
X100920261Y-68749488D01*
X100920264Y-68749500D01*
X100980602Y-68895171D01*
X100980609Y-68895184D01*
X101068210Y-69026287D01*
X101068213Y-69026291D01*
X101179707Y-69137785D01*
X101179711Y-69137788D01*
X101310814Y-69225389D01*
X101310827Y-69225396D01*
X101398245Y-69261605D01*
X101456503Y-69285736D01*
X101611153Y-69316498D01*
X101611156Y-69316499D01*
X101611158Y-69316499D01*
X101768844Y-69316499D01*
X101768845Y-69316498D01*
X101923497Y-69285736D01*
X102069179Y-69225393D01*
X102200289Y-69137788D01*
X102311789Y-69026288D01*
X102399394Y-68895178D01*
X102459737Y-68749496D01*
X102490500Y-68594841D01*
X102490500Y-68437157D01*
X102490500Y-68437154D01*
X102490499Y-68437152D01*
X102459737Y-68282502D01*
X102416937Y-68179172D01*
X102399397Y-68136826D01*
X102399390Y-68136813D01*
X102311789Y-68005710D01*
X102311786Y-68005706D01*
X102200292Y-67894212D01*
X102200288Y-67894209D01*
X102069185Y-67806608D01*
X102069172Y-67806601D01*
X101923501Y-67746263D01*
X101923489Y-67746260D01*
X101768845Y-67715499D01*
X101768842Y-67715499D01*
X101611158Y-67715499D01*
X101611155Y-67715499D01*
X101456510Y-67746260D01*
X101456498Y-67746263D01*
X101310827Y-67806601D01*
X101310814Y-67806608D01*
X101179711Y-67894209D01*
X101179707Y-67894212D01*
X101068213Y-68005706D01*
X101068210Y-68005710D01*
X100980609Y-68136813D01*
X100980602Y-68136826D01*
X100920264Y-68282497D01*
X100920261Y-68282509D01*
X100889500Y-68437152D01*
X98784189Y-68437152D01*
X98808894Y-68400178D01*
X98808897Y-68400171D01*
X98815756Y-68383613D01*
X98857634Y-68282509D01*
X98869237Y-68254496D01*
X98900000Y-68099841D01*
X98900000Y-67942157D01*
X98900000Y-67942154D01*
X98899999Y-67942152D01*
X98890462Y-67894209D01*
X98869237Y-67787502D01*
X98869235Y-67787497D01*
X98808897Y-67641826D01*
X98808890Y-67641813D01*
X98721289Y-67510710D01*
X98721286Y-67510706D01*
X98609792Y-67399212D01*
X98609788Y-67399209D01*
X98478685Y-67311608D01*
X98478672Y-67311601D01*
X98333001Y-67251263D01*
X98332989Y-67251260D01*
X98178345Y-67220499D01*
X98178342Y-67220499D01*
X98020658Y-67220499D01*
X98020655Y-67220499D01*
X97866010Y-67251260D01*
X97865998Y-67251263D01*
X97720327Y-67311601D01*
X97720314Y-67311608D01*
X97589211Y-67399209D01*
X97589207Y-67399212D01*
X97477713Y-67510706D01*
X97477710Y-67510710D01*
X97390109Y-67641813D01*
X97390102Y-67641826D01*
X97329764Y-67787497D01*
X97329761Y-67787509D01*
X97299000Y-67942152D01*
X92916407Y-67942152D01*
X92922430Y-67911874D01*
X92922430Y-67911873D01*
X92929000Y-67878844D01*
X92929000Y-67721155D01*
X92928999Y-67721153D01*
X92913220Y-67641826D01*
X92898237Y-67566503D01*
X92875127Y-67510710D01*
X92837897Y-67420827D01*
X92837890Y-67420814D01*
X92750289Y-67289711D01*
X92750286Y-67289707D01*
X92638792Y-67178213D01*
X92638788Y-67178210D01*
X92507685Y-67090609D01*
X92507672Y-67090602D01*
X92362001Y-67030264D01*
X92361989Y-67030261D01*
X92207345Y-66999500D01*
X92207342Y-66999500D01*
X92049658Y-66999500D01*
X92049655Y-66999500D01*
X91895010Y-67030261D01*
X91894998Y-67030264D01*
X91749327Y-67090602D01*
X91749314Y-67090609D01*
X91618211Y-67178210D01*
X91618207Y-67178213D01*
X91506713Y-67289707D01*
X91506710Y-67289711D01*
X91419109Y-67420814D01*
X91419102Y-67420827D01*
X91358764Y-67566498D01*
X91358761Y-67566510D01*
X91328000Y-67721153D01*
X86755540Y-67721153D01*
X86817246Y-67531242D01*
X86850500Y-67321286D01*
X86850500Y-67108712D01*
X86817246Y-66898756D01*
X86751557Y-66696587D01*
X86655051Y-66507183D01*
X86655049Y-66507180D01*
X86655048Y-66507178D01*
X86530109Y-66335212D01*
X86379786Y-66184889D01*
X86207817Y-66059948D01*
X86198504Y-66055203D01*
X86147707Y-66007229D01*
X86130912Y-65939408D01*
X86153449Y-65873273D01*
X86198507Y-65834231D01*
X86207555Y-65829621D01*
X86261716Y-65790269D01*
X86261717Y-65790269D01*
X86204195Y-65732747D01*
X86122601Y-65651153D01*
X94749500Y-65651153D01*
X94749500Y-65808846D01*
X94780261Y-65963489D01*
X94780264Y-65963501D01*
X94840602Y-66109172D01*
X94840609Y-66109185D01*
X94928210Y-66240288D01*
X94928213Y-66240292D01*
X95039707Y-66351786D01*
X95039711Y-66351789D01*
X95170814Y-66439390D01*
X95170827Y-66439397D01*
X95308128Y-66496268D01*
X95316503Y-66499737D01*
X95457695Y-66527822D01*
X95471153Y-66530499D01*
X95471156Y-66530500D01*
X95471158Y-66530500D01*
X95628843Y-66530500D01*
X95633151Y-66529642D01*
X95642304Y-66527822D01*
X95711895Y-66534046D01*
X95767074Y-66576907D01*
X95790322Y-66642795D01*
X95790500Y-66649438D01*
X95790500Y-66660846D01*
X95821261Y-66815489D01*
X95821264Y-66815501D01*
X95881602Y-66961172D01*
X95881609Y-66961185D01*
X95969210Y-67092288D01*
X95969213Y-67092292D01*
X96080707Y-67203786D01*
X96080711Y-67203789D01*
X96211814Y-67291390D01*
X96211827Y-67291397D01*
X96283987Y-67321286D01*
X96357503Y-67351737D01*
X96512153Y-67382499D01*
X96512156Y-67382500D01*
X96512158Y-67382500D01*
X96669844Y-67382500D01*
X96669845Y-67382499D01*
X96824497Y-67351737D01*
X96970179Y-67291394D01*
X97101289Y-67203789D01*
X97212789Y-67092289D01*
X97300394Y-66961179D01*
X97360737Y-66815497D01*
X97391500Y-66660842D01*
X97391500Y-66503158D01*
X97391500Y-66503155D01*
X97391499Y-66503153D01*
X97378816Y-66439390D01*
X97360737Y-66348503D01*
X97315914Y-66240289D01*
X97300397Y-66202827D01*
X97300390Y-66202814D01*
X97212789Y-66071711D01*
X97212786Y-66071707D01*
X97101292Y-65960213D01*
X97101288Y-65960210D01*
X96970185Y-65872609D01*
X96970172Y-65872602D01*
X96824501Y-65812264D01*
X96824489Y-65812261D01*
X96669845Y-65781500D01*
X96669842Y-65781500D01*
X96512158Y-65781500D01*
X96512153Y-65781500D01*
X96498691Y-65784178D01*
X96429099Y-65777951D01*
X96373922Y-65735087D01*
X96350678Y-65669198D01*
X96350500Y-65662561D01*
X96350500Y-65651155D01*
X96350499Y-65651153D01*
X96319738Y-65496510D01*
X96319737Y-65496503D01*
X96272536Y-65382549D01*
X96259397Y-65350827D01*
X96259390Y-65350814D01*
X96171789Y-65219711D01*
X96171786Y-65219707D01*
X96060292Y-65108213D01*
X96060288Y-65108210D01*
X95929185Y-65020609D01*
X95929172Y-65020602D01*
X95783501Y-64960264D01*
X95783489Y-64960261D01*
X95628845Y-64929500D01*
X95628842Y-64929500D01*
X95471158Y-64929500D01*
X95471155Y-64929500D01*
X95316510Y-64960261D01*
X95316498Y-64960264D01*
X95170827Y-65020602D01*
X95170814Y-65020609D01*
X95039711Y-65108210D01*
X95039707Y-65108213D01*
X94928213Y-65219707D01*
X94928210Y-65219711D01*
X94840609Y-65350814D01*
X94840602Y-65350827D01*
X94780264Y-65496498D01*
X94780261Y-65496510D01*
X94749500Y-65651153D01*
X86122601Y-65651153D01*
X85629408Y-65157961D01*
X85692993Y-65140924D01*
X85807007Y-65075098D01*
X85900099Y-64982006D01*
X85965925Y-64867992D01*
X85982962Y-64804407D01*
X86615270Y-65436716D01*
X86615270Y-65436715D01*
X86654622Y-65382553D01*
X86751095Y-65193216D01*
X86816757Y-64991129D01*
X86816757Y-64991126D01*
X86850000Y-64781245D01*
X86850000Y-64568752D01*
X86816757Y-64358871D01*
X86816757Y-64358868D01*
X86751095Y-64156781D01*
X86654624Y-63967448D01*
X86615270Y-63913281D01*
X86615269Y-63913281D01*
X85982962Y-64545589D01*
X85965925Y-64482006D01*
X85900099Y-64367992D01*
X85807007Y-64274900D01*
X85692993Y-64209074D01*
X85629409Y-64192036D01*
X86261716Y-63559727D01*
X86207547Y-63520372D01*
X86207547Y-63520371D01*
X86198500Y-63515762D01*
X86147706Y-63467787D01*
X86130912Y-63399965D01*
X86153451Y-63333831D01*
X86198508Y-63294792D01*
X86207816Y-63290050D01*
X86287007Y-63232514D01*
X86379786Y-63165108D01*
X86379788Y-63165105D01*
X86379792Y-63165103D01*
X86530104Y-63014791D01*
X86530106Y-63014787D01*
X86530109Y-63014785D01*
X86655048Y-62842819D01*
X86655047Y-62842819D01*
X86655051Y-62842815D01*
X86751557Y-62653411D01*
X86817246Y-62451242D01*
X86850500Y-62241286D01*
X86850500Y-62028712D01*
X86817246Y-61818756D01*
X86751557Y-61616587D01*
X86655051Y-61427183D01*
X86655049Y-61427180D01*
X86655048Y-61427178D01*
X86530109Y-61255212D01*
X86379786Y-61104889D01*
X86207820Y-60979950D01*
X86018414Y-60883443D01*
X86018413Y-60883442D01*
X86018412Y-60883442D01*
X85816243Y-60817753D01*
X85816241Y-60817752D01*
X85816240Y-60817752D01*
X85654957Y-60792207D01*
X85606287Y-60784499D01*
X85393713Y-60784499D01*
X85345042Y-60792207D01*
X85183760Y-60817752D01*
X84981585Y-60883443D01*
X84792179Y-60979950D01*
X84620213Y-61104889D01*
X84469890Y-61255212D01*
X84344951Y-61427178D01*
X84248444Y-61616584D01*
X84182753Y-61818759D01*
X84149500Y-62028712D01*
X84149500Y-62241285D01*
X84182753Y-62451238D01*
X84248444Y-62653413D01*
X84344951Y-62842819D01*
X84469890Y-63014785D01*
X84620213Y-63165108D01*
X84792179Y-63290047D01*
X84792181Y-63290048D01*
X84792184Y-63290050D01*
X84801493Y-63294793D01*
X84852290Y-63342765D01*
X84869087Y-63410586D01*
X84846552Y-63476721D01*
X84801505Y-63515759D01*
X84792446Y-63520375D01*
X84792440Y-63520379D01*
X84738282Y-63559726D01*
X84738282Y-63559727D01*
X85370591Y-64192036D01*
X85307007Y-64209074D01*
X85192993Y-64274900D01*
X85099901Y-64367992D01*
X85034075Y-64482006D01*
X85017037Y-64545590D01*
X84384728Y-63913281D01*
X84384727Y-63913281D01*
X84345380Y-63967438D01*
X84248904Y-64156781D01*
X84183242Y-64358868D01*
X84183242Y-64358871D01*
X84150000Y-64568752D01*
X84150000Y-64781245D01*
X84183242Y-64991126D01*
X84183242Y-64991129D01*
X84248904Y-65193216D01*
X84345375Y-65382549D01*
X84384728Y-65436715D01*
X85017037Y-64804407D01*
X85034075Y-64867992D01*
X85099901Y-64982006D01*
X85192993Y-65075098D01*
X85307007Y-65140924D01*
X85370590Y-65157961D01*
X84738282Y-65790268D01*
X84738282Y-65790269D01*
X84792452Y-65829625D01*
X84792451Y-65829625D01*
X84801495Y-65834233D01*
X84852292Y-65882207D01*
X84869087Y-65950028D01*
X84846550Y-66016163D01*
X84801499Y-66055201D01*
X84792182Y-66059948D01*
X84620213Y-66184889D01*
X84469890Y-66335212D01*
X84344951Y-66507178D01*
X84248444Y-66696584D01*
X84182753Y-66898759D01*
X84149500Y-67108712D01*
X84149500Y-67321285D01*
X84182753Y-67531238D01*
X84182753Y-67531240D01*
X84182754Y-67531242D01*
X84230031Y-67676746D01*
X84248444Y-67733413D01*
X84344951Y-67922819D01*
X84469890Y-68094785D01*
X84620213Y-68245108D01*
X84792182Y-68370049D01*
X84800946Y-68374515D01*
X84851742Y-68422490D01*
X84868536Y-68490311D01*
X84845998Y-68556446D01*
X84800946Y-68595483D01*
X84792182Y-68599948D01*
X84620213Y-68724889D01*
X84469890Y-68875212D01*
X84344951Y-69047178D01*
X84248444Y-69236584D01*
X84182753Y-69438759D01*
X84149500Y-69648712D01*
X84149500Y-69861285D01*
X84179364Y-70049843D01*
X84182754Y-70071242D01*
X84226052Y-70204500D01*
X84248444Y-70273413D01*
X84344951Y-70462819D01*
X84469890Y-70634785D01*
X84620213Y-70785108D01*
X84792182Y-70910049D01*
X84800946Y-70914515D01*
X84851742Y-70962490D01*
X84868536Y-71030311D01*
X84845998Y-71096446D01*
X84800946Y-71135483D01*
X84792182Y-71139948D01*
X84620213Y-71264889D01*
X84469890Y-71415212D01*
X84344951Y-71587178D01*
X84248444Y-71776584D01*
X84182753Y-71978759D01*
X84149500Y-72188712D01*
X84149500Y-72401286D01*
X84182754Y-72611242D01*
X84189696Y-72632608D01*
X84248444Y-72813413D01*
X84344951Y-73002819D01*
X84469890Y-73174785D01*
X84620213Y-73325108D01*
X84792182Y-73450049D01*
X84800946Y-73454515D01*
X84851742Y-73502490D01*
X84868536Y-73570311D01*
X84845998Y-73636446D01*
X84800946Y-73675483D01*
X84792182Y-73679948D01*
X84620213Y-73804889D01*
X84469890Y-73955212D01*
X84344951Y-74127178D01*
X84248444Y-74316584D01*
X84182753Y-74518759D01*
X84149500Y-74728712D01*
X84149500Y-74941285D01*
X84182753Y-75151238D01*
X84248444Y-75353413D01*
X84344951Y-75542819D01*
X84469890Y-75714785D01*
X84620213Y-75865108D01*
X84792182Y-75990049D01*
X84800946Y-75994515D01*
X84851742Y-76042490D01*
X84868536Y-76110311D01*
X84845998Y-76176446D01*
X84800946Y-76215483D01*
X84792182Y-76219948D01*
X84620213Y-76344889D01*
X84469890Y-76495212D01*
X84344951Y-76667178D01*
X84248444Y-76856584D01*
X84182753Y-77058759D01*
X84149500Y-77268712D01*
X84149500Y-77481285D01*
X84182753Y-77691238D01*
X84248444Y-77893413D01*
X84344951Y-78082819D01*
X84469890Y-78254785D01*
X84620213Y-78405108D01*
X84785483Y-78525182D01*
X84828149Y-78580511D01*
X84834128Y-78650125D01*
X84801523Y-78711920D01*
X84740684Y-78746277D01*
X84712598Y-78749500D01*
X83006962Y-78749500D01*
X82993078Y-78748720D01*
X82980553Y-78747308D01*
X82902735Y-78738540D01*
X82875666Y-78732362D01*
X82796462Y-78704648D01*
X82771444Y-78692600D01*
X82700395Y-78647957D01*
X82678686Y-78630644D01*
X82619355Y-78571313D01*
X82602042Y-78549604D01*
X82598707Y-78544297D01*
X82557398Y-78478553D01*
X82545351Y-78453537D01*
X82528405Y-78405108D01*
X82517636Y-78374331D01*
X82511459Y-78347263D01*
X82501280Y-78256922D01*
X82500500Y-78243038D01*
X82500500Y-58080712D01*
X91192000Y-58080712D01*
X91192000Y-58293285D01*
X91225253Y-58503238D01*
X91290944Y-58705413D01*
X91387451Y-58894819D01*
X91512390Y-59066785D01*
X91662713Y-59217108D01*
X91834679Y-59342047D01*
X91834681Y-59342048D01*
X91834684Y-59342050D01*
X92024088Y-59438556D01*
X92226257Y-59504245D01*
X92436213Y-59537499D01*
X92436214Y-59537499D01*
X92648786Y-59537499D01*
X92648787Y-59537499D01*
X92858743Y-59504245D01*
X93060912Y-59438556D01*
X93250316Y-59342050D01*
X93336978Y-59279087D01*
X93422286Y-59217108D01*
X93422288Y-59217105D01*
X93422292Y-59217103D01*
X93572604Y-59066791D01*
X93572606Y-59066787D01*
X93572609Y-59066785D01*
X93697548Y-58894819D01*
X93697547Y-58894819D01*
X93697551Y-58894815D01*
X93702014Y-58886053D01*
X93749988Y-58835258D01*
X93817808Y-58818462D01*
X93883944Y-58840998D01*
X93922986Y-58886055D01*
X93927451Y-58894819D01*
X94052390Y-59066785D01*
X94202713Y-59217108D01*
X94374679Y-59342047D01*
X94374681Y-59342048D01*
X94374684Y-59342050D01*
X94564088Y-59438556D01*
X94766257Y-59504245D01*
X94976213Y-59537499D01*
X94976214Y-59537499D01*
X95188786Y-59537499D01*
X95188787Y-59537499D01*
X95398743Y-59504245D01*
X95600912Y-59438556D01*
X95790316Y-59342050D01*
X95876978Y-59279087D01*
X95962286Y-59217108D01*
X95962288Y-59217105D01*
X95962292Y-59217103D01*
X96112604Y-59066791D01*
X96112606Y-59066787D01*
X96112609Y-59066785D01*
X96237548Y-58894819D01*
X96237547Y-58894819D01*
X96237551Y-58894815D01*
X96242014Y-58886053D01*
X96289988Y-58835258D01*
X96357808Y-58818462D01*
X96423944Y-58840998D01*
X96462986Y-58886055D01*
X96467451Y-58894819D01*
X96592390Y-59066785D01*
X96742713Y-59217108D01*
X96914679Y-59342047D01*
X96914681Y-59342048D01*
X96914684Y-59342050D01*
X97104088Y-59438556D01*
X97306257Y-59504245D01*
X97516213Y-59537499D01*
X97516214Y-59537499D01*
X97728786Y-59537499D01*
X97728787Y-59537499D01*
X97938743Y-59504245D01*
X98140912Y-59438556D01*
X98330316Y-59342050D01*
X98416978Y-59279087D01*
X98502284Y-59217109D01*
X98502284Y-59217108D01*
X98502292Y-59217103D01*
X98616217Y-59103177D01*
X98677536Y-59069695D01*
X98747228Y-59074679D01*
X98803162Y-59116550D01*
X98820077Y-59147527D01*
X98869146Y-59279087D01*
X98869149Y-59279092D01*
X98955309Y-59394186D01*
X98955312Y-59394189D01*
X99070406Y-59480349D01*
X99070413Y-59480353D01*
X99205120Y-59530595D01*
X99205127Y-59530597D01*
X99264655Y-59536998D01*
X99264672Y-59536999D01*
X99912500Y-59536999D01*
X99912500Y-58620011D01*
X99969507Y-58652924D01*
X100096674Y-58686999D01*
X100228326Y-58686999D01*
X100355493Y-58652924D01*
X100412500Y-58620011D01*
X100412500Y-59536999D01*
X101060328Y-59536999D01*
X101060344Y-59536998D01*
X101119872Y-59530597D01*
X101119879Y-59530595D01*
X101254586Y-59480353D01*
X101254593Y-59480349D01*
X101369687Y-59394189D01*
X101369690Y-59394186D01*
X101455850Y-59279092D01*
X101455854Y-59279085D01*
X101506096Y-59144378D01*
X101506098Y-59144371D01*
X101512499Y-59084843D01*
X101512500Y-59084826D01*
X101512500Y-58436999D01*
X100595512Y-58436999D01*
X100628425Y-58379992D01*
X100662500Y-58252825D01*
X100662500Y-58121173D01*
X100628425Y-57994006D01*
X100595512Y-57936999D01*
X101512500Y-57936999D01*
X101512500Y-57289171D01*
X101512499Y-57289154D01*
X101506098Y-57229626D01*
X101506096Y-57229619D01*
X101455854Y-57094912D01*
X101455853Y-57094910D01*
X101380593Y-56994376D01*
X101380592Y-56994374D01*
X101369689Y-56979810D01*
X101369687Y-56979808D01*
X101298012Y-56926152D01*
X105737000Y-56926152D01*
X105737000Y-57083845D01*
X105767761Y-57238488D01*
X105767764Y-57238500D01*
X105828102Y-57384171D01*
X105828109Y-57384184D01*
X105915710Y-57515287D01*
X105915713Y-57515291D01*
X106027207Y-57626785D01*
X106027211Y-57626788D01*
X106158314Y-57714389D01*
X106158327Y-57714396D01*
X106303998Y-57774734D01*
X106304003Y-57774736D01*
X106458653Y-57805498D01*
X106458656Y-57805499D01*
X106458658Y-57805499D01*
X106616344Y-57805499D01*
X106616345Y-57805498D01*
X106770997Y-57774736D01*
X106916679Y-57714393D01*
X107047789Y-57626788D01*
X107159289Y-57515288D01*
X107246894Y-57384178D01*
X107307237Y-57238496D01*
X107338000Y-57083841D01*
X107338000Y-56926157D01*
X107338000Y-56926154D01*
X107337999Y-56926152D01*
X107307237Y-56771502D01*
X107300986Y-56756411D01*
X107246897Y-56625826D01*
X107246890Y-56625813D01*
X107159289Y-56494710D01*
X107159286Y-56494706D01*
X107047792Y-56383212D01*
X107047788Y-56383209D01*
X106916685Y-56295608D01*
X106916672Y-56295601D01*
X106771001Y-56235263D01*
X106770989Y-56235260D01*
X106616345Y-56204499D01*
X106616342Y-56204499D01*
X106458658Y-56204499D01*
X106458655Y-56204499D01*
X106304010Y-56235260D01*
X106303998Y-56235263D01*
X106158327Y-56295601D01*
X106158314Y-56295608D01*
X106027211Y-56383209D01*
X106027207Y-56383212D01*
X105915713Y-56494706D01*
X105915710Y-56494710D01*
X105828109Y-56625813D01*
X105828102Y-56625826D01*
X105767764Y-56771497D01*
X105767761Y-56771509D01*
X105737000Y-56926152D01*
X101298012Y-56926152D01*
X101254593Y-56893648D01*
X101254586Y-56893644D01*
X101119879Y-56843402D01*
X101119872Y-56843400D01*
X101060344Y-56836999D01*
X100412500Y-56836999D01*
X100412500Y-57753987D01*
X100355493Y-57721074D01*
X100228326Y-57686999D01*
X100096674Y-57686999D01*
X99969507Y-57721074D01*
X99912500Y-57753987D01*
X99912500Y-56836999D01*
X99264655Y-56836999D01*
X99205127Y-56843400D01*
X99205120Y-56843402D01*
X99070413Y-56893644D01*
X99070406Y-56893648D01*
X98955312Y-56979808D01*
X98955309Y-56979811D01*
X98869149Y-57094905D01*
X98869146Y-57094911D01*
X98820077Y-57226470D01*
X98778205Y-57282403D01*
X98712741Y-57306820D01*
X98644468Y-57291968D01*
X98616214Y-57270817D01*
X98502286Y-57156889D01*
X98330320Y-57031950D01*
X98140914Y-56935443D01*
X98140913Y-56935442D01*
X98140912Y-56935442D01*
X97938743Y-56869753D01*
X97938741Y-56869752D01*
X97938740Y-56869752D01*
X97777457Y-56844207D01*
X97728787Y-56836499D01*
X97516213Y-56836499D01*
X97467542Y-56844207D01*
X97306260Y-56869752D01*
X97104085Y-56935443D01*
X96914679Y-57031950D01*
X96742713Y-57156889D01*
X96592390Y-57307212D01*
X96467449Y-57479181D01*
X96462984Y-57487945D01*
X96415009Y-57538741D01*
X96347188Y-57555535D01*
X96281053Y-57532997D01*
X96242016Y-57487945D01*
X96237550Y-57479181D01*
X96112609Y-57307212D01*
X95962286Y-57156889D01*
X95790320Y-57031950D01*
X95600914Y-56935443D01*
X95600913Y-56935442D01*
X95600912Y-56935442D01*
X95398743Y-56869753D01*
X95398741Y-56869752D01*
X95398740Y-56869752D01*
X95237457Y-56844207D01*
X95188787Y-56836499D01*
X94976213Y-56836499D01*
X94927542Y-56844207D01*
X94766260Y-56869752D01*
X94564085Y-56935443D01*
X94374679Y-57031950D01*
X94202713Y-57156889D01*
X94052390Y-57307212D01*
X93927449Y-57479181D01*
X93922984Y-57487945D01*
X93875009Y-57538741D01*
X93807188Y-57555535D01*
X93741053Y-57532997D01*
X93702016Y-57487945D01*
X93697550Y-57479181D01*
X93572609Y-57307212D01*
X93422286Y-57156889D01*
X93250320Y-57031950D01*
X93060914Y-56935443D01*
X93060913Y-56935442D01*
X93060912Y-56935442D01*
X92858743Y-56869753D01*
X92858741Y-56869752D01*
X92858740Y-56869752D01*
X92697457Y-56844207D01*
X92648787Y-56836499D01*
X92436213Y-56836499D01*
X92387542Y-56844207D01*
X92226260Y-56869752D01*
X92024085Y-56935443D01*
X91834679Y-57031950D01*
X91662713Y-57156889D01*
X91512390Y-57307212D01*
X91387451Y-57479178D01*
X91290944Y-57668584D01*
X91225253Y-57870759D01*
X91192000Y-58080712D01*
X82500500Y-58080712D01*
X82500500Y-51051712D01*
X85035000Y-51051712D01*
X85035000Y-51264285D01*
X85068253Y-51474238D01*
X85133944Y-51676413D01*
X85230451Y-51865819D01*
X85355390Y-52037785D01*
X85505713Y-52188108D01*
X85677682Y-52313049D01*
X85686446Y-52317515D01*
X85737242Y-52365490D01*
X85754036Y-52433311D01*
X85731498Y-52499446D01*
X85686446Y-52538483D01*
X85677682Y-52542948D01*
X85505713Y-52667889D01*
X85355390Y-52818212D01*
X85230451Y-52990178D01*
X85133944Y-53179584D01*
X85068253Y-53381759D01*
X85035000Y-53591712D01*
X85035000Y-53804285D01*
X85068253Y-54014238D01*
X85133944Y-54216413D01*
X85230451Y-54405819D01*
X85355390Y-54577785D01*
X85505713Y-54728108D01*
X85677682Y-54853049D01*
X85686446Y-54857515D01*
X85737242Y-54905490D01*
X85754036Y-54973311D01*
X85731498Y-55039446D01*
X85686446Y-55078483D01*
X85677682Y-55082948D01*
X85505713Y-55207889D01*
X85355390Y-55358212D01*
X85230451Y-55530178D01*
X85133944Y-55719584D01*
X85068253Y-55921759D01*
X85035000Y-56131712D01*
X85035000Y-56344286D01*
X85068254Y-56554242D01*
X85091511Y-56625820D01*
X85133944Y-56756413D01*
X85230451Y-56945819D01*
X85355390Y-57117785D01*
X85505713Y-57268108D01*
X85677679Y-57393047D01*
X85677681Y-57393048D01*
X85677684Y-57393050D01*
X85867088Y-57489556D01*
X86069257Y-57555245D01*
X86279213Y-57588499D01*
X86279214Y-57588499D01*
X86491786Y-57588499D01*
X86491787Y-57588499D01*
X86701743Y-57555245D01*
X86903912Y-57489556D01*
X87093316Y-57393050D01*
X87211470Y-57307207D01*
X87265286Y-57268108D01*
X87265288Y-57268105D01*
X87265292Y-57268103D01*
X87415604Y-57117791D01*
X87415606Y-57117787D01*
X87415609Y-57117785D01*
X87540548Y-56945819D01*
X87540547Y-56945819D01*
X87540551Y-56945815D01*
X87637057Y-56756411D01*
X87702746Y-56554242D01*
X87736000Y-56344286D01*
X87736000Y-56131712D01*
X87702746Y-55921756D01*
X87637057Y-55719587D01*
X87540551Y-55530183D01*
X87540549Y-55530180D01*
X87540548Y-55530178D01*
X87415609Y-55358212D01*
X87265286Y-55207889D01*
X87093320Y-55082950D01*
X87092615Y-55082590D01*
X87084554Y-55078484D01*
X87033759Y-55030511D01*
X87016963Y-54962691D01*
X87039499Y-54896555D01*
X87084554Y-54857514D01*
X87093316Y-54853050D01*
X87115289Y-54837085D01*
X87265286Y-54728108D01*
X87265288Y-54728105D01*
X87265292Y-54728103D01*
X87415604Y-54577791D01*
X87415606Y-54577787D01*
X87415609Y-54577785D01*
X87540548Y-54405819D01*
X87540547Y-54405819D01*
X87540551Y-54405815D01*
X87637057Y-54216411D01*
X87702746Y-54014242D01*
X87736000Y-53804286D01*
X87736000Y-53591712D01*
X87702746Y-53381756D01*
X87637057Y-53179587D01*
X87540551Y-52990183D01*
X87540549Y-52990180D01*
X87540548Y-52990178D01*
X87415609Y-52818212D01*
X87265286Y-52667889D01*
X87093320Y-52542950D01*
X87092615Y-52542590D01*
X87084554Y-52538484D01*
X87033759Y-52490511D01*
X87016963Y-52422691D01*
X87039499Y-52356555D01*
X87084554Y-52317514D01*
X87093316Y-52313050D01*
X87115289Y-52297085D01*
X87265286Y-52188108D01*
X87265288Y-52188105D01*
X87265292Y-52188103D01*
X87415604Y-52037791D01*
X87415606Y-52037787D01*
X87415609Y-52037785D01*
X87540548Y-51865819D01*
X87540547Y-51865819D01*
X87540551Y-51865815D01*
X87637057Y-51676411D01*
X87702746Y-51474242D01*
X87736000Y-51264286D01*
X87736000Y-51051712D01*
X87702746Y-50841756D01*
X87637057Y-50639587D01*
X87540551Y-50450183D01*
X87540549Y-50450180D01*
X87540548Y-50450178D01*
X87415609Y-50278212D01*
X87265286Y-50127889D01*
X87093320Y-50002950D01*
X86903914Y-49906443D01*
X86903913Y-49906442D01*
X86903912Y-49906442D01*
X86701743Y-49840753D01*
X86701741Y-49840752D01*
X86701740Y-49840752D01*
X86540457Y-49815207D01*
X86491787Y-49807499D01*
X86279213Y-49807499D01*
X86230542Y-49815207D01*
X86069260Y-49840752D01*
X85867085Y-49906443D01*
X85677679Y-50002950D01*
X85505713Y-50127889D01*
X85355390Y-50278212D01*
X85230451Y-50450178D01*
X85133944Y-50639584D01*
X85068253Y-50841759D01*
X85035000Y-51051712D01*
X82500500Y-51051712D01*
X82500500Y-49006961D01*
X82501280Y-48993077D01*
X82501280Y-48993076D01*
X82511460Y-48902729D01*
X82517635Y-48875670D01*
X82545353Y-48796456D01*
X82557396Y-48771450D01*
X82602046Y-48700389D01*
X82619351Y-48678690D01*
X82678690Y-48619351D01*
X82700389Y-48602046D01*
X82771450Y-48557396D01*
X82796456Y-48545353D01*
X82875670Y-48517635D01*
X82902733Y-48511459D01*
X82965419Y-48504396D01*
X82993079Y-48501280D01*
X83006962Y-48500500D01*
X83065892Y-48500500D01*
X109934108Y-48500500D01*
X109993038Y-48500500D01*
X110006922Y-48501280D01*
G37*
%TD.AperFunction*%
%TD*%
M02*
