%TF.GenerationSoftware,KiCad,Pcbnew,9.0.6*%
%TF.CreationDate,2025-11-30T13:42:40+01:00*%
%TF.ProjectId,stm32f030f4p6-board,73746d33-3266-4303-9330-663470362d62,rev?*%
%TF.SameCoordinates,Original*%
%TF.FileFunction,Paste,Top*%
%TF.FilePolarity,Positive*%
%FSLAX46Y46*%
G04 Gerber Fmt 4.6, Leading zero omitted, Abs format (unit mm)*
G04 Created by KiCad (PCBNEW 9.0.6) date 2025-11-30 13:42:40*
%MOMM*%
%LPD*%
G01*
G04 APERTURE LIST*
G04 Aperture macros list*
%AMRoundRect*
0 Rectangle with rounded corners*
0 $1 Rounding radius*
0 $2 $3 $4 $5 $6 $7 $8 $9 X,Y pos of 4 corners*
0 Add a 4 corners polygon primitive as box body*
4,1,4,$2,$3,$4,$5,$6,$7,$8,$9,$2,$3,0*
0 Add four circle primitives for the rounded corners*
1,1,$1+$1,$2,$3*
1,1,$1+$1,$4,$5*
1,1,$1+$1,$6,$7*
1,1,$1+$1,$8,$9*
0 Add four rect primitives between the rounded corners*
20,1,$1+$1,$2,$3,$4,$5,0*
20,1,$1+$1,$4,$5,$6,$7,0*
20,1,$1+$1,$6,$7,$8,$9,0*
20,1,$1+$1,$8,$9,$2,$3,0*%
G04 Aperture macros list end*
%ADD10RoundRect,0.140000X0.140000X0.170000X-0.140000X0.170000X-0.140000X-0.170000X0.140000X-0.170000X0*%
%ADD11RoundRect,0.218750X-0.256250X0.218750X-0.256250X-0.218750X0.256250X-0.218750X0.256250X0.218750X0*%
%ADD12RoundRect,0.140000X0.170000X-0.140000X0.170000X0.140000X-0.170000X0.140000X-0.170000X-0.140000X0*%
%ADD13R,1.300000X1.700000*%
%ADD14RoundRect,0.135000X0.185000X-0.135000X0.185000X0.135000X-0.185000X0.135000X-0.185000X-0.135000X0*%
%ADD15RoundRect,0.135000X-0.135000X-0.185000X0.135000X-0.185000X0.135000X0.185000X-0.135000X0.185000X0*%
%ADD16RoundRect,0.100000X-0.637500X-0.100000X0.637500X-0.100000X0.637500X0.100000X-0.637500X0.100000X0*%
%ADD17RoundRect,0.135000X-0.185000X0.135000X-0.185000X-0.135000X0.185000X-0.135000X0.185000X0.135000X0*%
%ADD18RoundRect,0.140000X-0.170000X0.140000X-0.170000X-0.140000X0.170000X-0.140000X0.170000X0.140000X0*%
G04 APERTURE END LIST*
D10*
%TO.C,C4*%
X91168500Y-68670999D03*
X92128500Y-68670999D03*
%TD*%
D11*
%TO.C,D1*%
X106537500Y-52293999D03*
X106537500Y-53868999D03*
%TD*%
D12*
%TO.C,C6*%
X99396500Y-75175999D03*
X99396500Y-74215999D03*
%TD*%
D13*
%TO.C,SW1*%
X93582500Y-75175999D03*
X97900500Y-75175999D03*
%TD*%
D14*
%TO.C,R4*%
X106537500Y-56169999D03*
X106537500Y-55149999D03*
%TD*%
%TO.C,R5*%
X104382500Y-56169999D03*
X104382500Y-55149999D03*
%TD*%
D11*
%TO.C,D2*%
X104378500Y-52293999D03*
X104378500Y-53868999D03*
%TD*%
D15*
%TO.C,R1*%
X91122000Y-66070999D03*
X92142000Y-66070999D03*
%TD*%
D16*
%TO.C,U1*%
X93637500Y-66070999D03*
X93637500Y-66720999D03*
X93637500Y-67370999D03*
X93637500Y-68020999D03*
X93637500Y-68670999D03*
X93637500Y-69320999D03*
X93637500Y-69970999D03*
X93637500Y-70620999D03*
X93637500Y-71270999D03*
X93637500Y-71920999D03*
X99362500Y-71920999D03*
X99362500Y-71270999D03*
X99362500Y-70620999D03*
X99362500Y-69970999D03*
X99362500Y-69320999D03*
X99362500Y-68670999D03*
X99362500Y-68020999D03*
X99362500Y-67370999D03*
X99362500Y-66720999D03*
X99362500Y-66070999D03*
%TD*%
D17*
%TO.C,R3*%
X100462500Y-74155999D03*
X100462500Y-75175999D03*
%TD*%
D18*
%TO.C,C3*%
X100890000Y-68515999D03*
X100890000Y-69475999D03*
%TD*%
M02*
