%TF.GenerationSoftware,KiCad,Pcbnew,9.0.5*%
%TF.CreationDate,2025-12-03T12:23:34+01:00*%
%TF.ProjectId,stm32f030f4p6-board,73746d33-3266-4303-9330-663470362d62,rev?*%
%TF.SameCoordinates,Original*%
%TF.FileFunction,Copper,L3,Inr*%
%TF.FilePolarity,Positive*%
%FSLAX46Y46*%
G04 Gerber Fmt 4.6, Leading zero omitted, Abs format (unit mm)*
G04 Created by KiCad (PCBNEW 9.0.5) date 2025-12-03 12:23:34*
%MOMM*%
%LPD*%
G01*
G04 APERTURE LIST*
%TA.AperFunction,ComponentPad*%
%ADD10C,1.700000*%
%TD*%
%TA.AperFunction,ViaPad*%
%ADD11C,0.600000*%
%TD*%
%TA.AperFunction,ViaPad*%
%ADD12C,0.800000*%
%TD*%
G04 APERTURE END LIST*
D10*
%TO.N,+3.3V*%
%TO.C,J2*%
X99430000Y-57429000D03*
%TO.N,/boot0*%
X96890000Y-57429000D03*
%TO.N,unconnected-(J2-Pin_3-Pad3)*%
X94350000Y-57429000D03*
%TD*%
%TO.N,+3.3V*%
%TO.C,J1*%
X100700000Y-76252000D03*
%TO.N,/SWDIO*%
X98160000Y-76252000D03*
%TO.N,/SWCLK*%
X95620000Y-76252000D03*
%TO.N,GND*%
X93080000Y-76252000D03*
%TD*%
%TO.N,+3.3V*%
%TO.C,J3*%
X105780000Y-57000000D03*
%TO.N,GND*%
X105780000Y-59540000D03*
%TO.N,/PA10*%
X105780000Y-62080000D03*
%TO.N,/PA9*%
X105780000Y-64620000D03*
%TO.N,/PB1*%
X105780000Y-67160000D03*
%TO.N,/PA7*%
X105780000Y-69700000D03*
%TO.N,/PA6*%
X105780000Y-72240000D03*
%TD*%
%TO.N,+3.3V*%
%TO.C,J5*%
X88000000Y-57000000D03*
%TO.N,GND*%
X88000000Y-59540000D03*
%TO.N,/PA0*%
X88000000Y-62080000D03*
%TO.N,/PA1*%
X88000000Y-64620000D03*
%TO.N,/PA2*%
X88000000Y-67160000D03*
%TO.N,/PA3*%
X88000000Y-69700000D03*
%TO.N,/PA4*%
X88000000Y-72240000D03*
%TD*%
D11*
%TO.N,GND*%
X99500000Y-59900000D03*
X104880000Y-78098000D03*
D12*
X103250000Y-73452000D03*
D11*
X93731000Y-53393000D03*
X88900000Y-78098000D03*
X92560000Y-64307000D03*
X90839000Y-68681000D03*
X94280000Y-59900000D03*
X101582000Y-52004000D03*
X101998000Y-69486000D03*
%TO.N,+3.3V*%
X92499000Y-67981000D03*
X101998000Y-68526000D03*
X88700000Y-74222000D03*
X100514000Y-51944000D03*
%TO.N,/nrst*%
X95194000Y-68031000D03*
X102282000Y-53664000D03*
%TO.N,/boot0*%
X93580000Y-64307000D03*
%TO.N,/PA0*%
X95194000Y-69331000D03*
%TO.N,/PB1*%
X98442000Y-69981000D03*
%TO.N,/PA9*%
X98442000Y-68031000D03*
%TD*%
%TA.AperFunction,Conductor*%
%TO.N,+3.3V*%
G36*
X100815502Y-51496185D02*
G01*
X100861257Y-51548989D01*
X100871201Y-51618147D01*
X100863024Y-51647952D01*
X100812264Y-51770498D01*
X100812261Y-51770510D01*
X100781500Y-51925153D01*
X100781500Y-52082846D01*
X100812261Y-52237489D01*
X100812264Y-52237501D01*
X100872602Y-52383172D01*
X100872609Y-52383185D01*
X100960210Y-52514288D01*
X100960213Y-52514292D01*
X101071707Y-52625786D01*
X101071711Y-52625789D01*
X101202814Y-52713390D01*
X101202827Y-52713397D01*
X101342409Y-52771213D01*
X101348503Y-52773737D01*
X101481455Y-52800183D01*
X101503153Y-52804499D01*
X101503156Y-52804500D01*
X101503158Y-52804500D01*
X101660844Y-52804500D01*
X101713851Y-52793956D01*
X101783443Y-52800183D01*
X101838620Y-52843046D01*
X101861865Y-52908935D01*
X101845797Y-52976932D01*
X101806934Y-53018675D01*
X101771711Y-53042210D01*
X101771707Y-53042213D01*
X101660213Y-53153707D01*
X101660210Y-53153711D01*
X101572609Y-53284814D01*
X101572602Y-53284827D01*
X101512264Y-53430498D01*
X101512261Y-53430510D01*
X101481500Y-53585153D01*
X101481500Y-53742846D01*
X101512261Y-53897489D01*
X101512264Y-53897501D01*
X101572602Y-54043172D01*
X101572609Y-54043185D01*
X101660210Y-54174288D01*
X101660213Y-54174292D01*
X101771707Y-54285786D01*
X101771711Y-54285789D01*
X101902814Y-54373390D01*
X101902827Y-54373397D01*
X102048498Y-54433735D01*
X102048503Y-54433737D01*
X102203153Y-54464499D01*
X102203156Y-54464500D01*
X102203158Y-54464500D01*
X102360844Y-54464500D01*
X102360845Y-54464499D01*
X102515497Y-54433737D01*
X102661179Y-54373394D01*
X102792289Y-54285789D01*
X102903789Y-54174289D01*
X102991394Y-54043179D01*
X103051737Y-53897497D01*
X103082500Y-53742842D01*
X103082500Y-53585158D01*
X103082500Y-53585155D01*
X103082499Y-53585153D01*
X103051737Y-53430503D01*
X103003546Y-53314158D01*
X102991397Y-53284827D01*
X102991390Y-53284814D01*
X102903789Y-53153711D01*
X102903786Y-53153707D01*
X102792292Y-53042213D01*
X102792288Y-53042210D01*
X102661185Y-52954609D01*
X102661172Y-52954602D01*
X102515501Y-52894264D01*
X102515489Y-52894261D01*
X102360845Y-52863500D01*
X102360842Y-52863500D01*
X102203158Y-52863500D01*
X102150146Y-52874044D01*
X102080554Y-52867815D01*
X102025377Y-52824951D01*
X102002134Y-52759061D01*
X102018203Y-52691065D01*
X102057065Y-52649324D01*
X102092289Y-52625789D01*
X102203789Y-52514289D01*
X102291394Y-52383179D01*
X102351737Y-52237497D01*
X102382500Y-52082842D01*
X102382500Y-51925158D01*
X102382500Y-51925155D01*
X102382499Y-51925153D01*
X102367881Y-51851666D01*
X102351737Y-51770503D01*
X102342186Y-51747444D01*
X102300976Y-51647952D01*
X102293507Y-51578483D01*
X102324783Y-51516004D01*
X102384872Y-51480352D01*
X102415537Y-51476500D01*
X107324108Y-51476500D01*
X107383038Y-51476500D01*
X107396922Y-51477280D01*
X107487266Y-51487459D01*
X107514331Y-51493636D01*
X107593540Y-51521352D01*
X107618553Y-51533398D01*
X107689606Y-51578043D01*
X107711313Y-51595355D01*
X107770644Y-51654686D01*
X107787957Y-51676395D01*
X107832600Y-51747444D01*
X107844648Y-51772462D01*
X107872362Y-51851666D01*
X107878540Y-51878735D01*
X107888720Y-51969076D01*
X107889500Y-51982961D01*
X107889500Y-79469038D01*
X107888720Y-79482922D01*
X107888720Y-79482923D01*
X107878540Y-79573264D01*
X107872362Y-79600333D01*
X107844648Y-79679537D01*
X107832600Y-79704555D01*
X107787957Y-79775604D01*
X107770644Y-79797313D01*
X107711313Y-79856644D01*
X107689604Y-79873957D01*
X107618555Y-79918600D01*
X107593537Y-79930648D01*
X107514333Y-79958362D01*
X107487264Y-79964540D01*
X107407075Y-79973576D01*
X107396921Y-79974720D01*
X107383038Y-79975500D01*
X86396962Y-79975500D01*
X86383078Y-79974720D01*
X86370553Y-79973308D01*
X86292735Y-79964540D01*
X86265666Y-79958362D01*
X86186462Y-79930648D01*
X86161444Y-79918600D01*
X86090395Y-79873957D01*
X86068686Y-79856644D01*
X86009355Y-79797313D01*
X85992042Y-79775604D01*
X85947399Y-79704555D01*
X85935351Y-79679537D01*
X85907637Y-79600333D01*
X85901459Y-79573263D01*
X85891280Y-79482922D01*
X85890500Y-79469038D01*
X85890500Y-78019153D01*
X88099500Y-78019153D01*
X88099500Y-78176846D01*
X88130261Y-78331489D01*
X88130264Y-78331501D01*
X88190602Y-78477172D01*
X88190609Y-78477185D01*
X88278210Y-78608288D01*
X88278213Y-78608292D01*
X88389707Y-78719786D01*
X88389711Y-78719789D01*
X88520814Y-78807390D01*
X88520827Y-78807397D01*
X88666498Y-78867735D01*
X88666503Y-78867737D01*
X88821153Y-78898499D01*
X88821156Y-78898500D01*
X88821158Y-78898500D01*
X88978844Y-78898500D01*
X88978845Y-78898499D01*
X89133497Y-78867737D01*
X89279179Y-78807394D01*
X89410289Y-78719789D01*
X89521789Y-78608289D01*
X89609394Y-78477179D01*
X89669737Y-78331497D01*
X89700500Y-78176842D01*
X89700500Y-78019158D01*
X89700500Y-78019155D01*
X89700499Y-78019153D01*
X104079500Y-78019153D01*
X104079500Y-78176846D01*
X104110261Y-78331489D01*
X104110264Y-78331501D01*
X104170602Y-78477172D01*
X104170609Y-78477185D01*
X104258210Y-78608288D01*
X104258213Y-78608292D01*
X104369707Y-78719786D01*
X104369711Y-78719789D01*
X104500814Y-78807390D01*
X104500827Y-78807397D01*
X104646498Y-78867735D01*
X104646503Y-78867737D01*
X104801153Y-78898499D01*
X104801156Y-78898500D01*
X104801158Y-78898500D01*
X104958844Y-78898500D01*
X104958845Y-78898499D01*
X105113497Y-78867737D01*
X105259179Y-78807394D01*
X105390289Y-78719789D01*
X105501789Y-78608289D01*
X105589394Y-78477179D01*
X105649737Y-78331497D01*
X105680500Y-78176842D01*
X105680500Y-78019158D01*
X105680500Y-78019155D01*
X105680499Y-78019153D01*
X105649738Y-77864510D01*
X105649737Y-77864503D01*
X105649735Y-77864498D01*
X105589397Y-77718827D01*
X105589390Y-77718814D01*
X105501789Y-77587711D01*
X105501786Y-77587707D01*
X105390292Y-77476213D01*
X105390288Y-77476210D01*
X105259185Y-77388609D01*
X105259172Y-77388602D01*
X105113501Y-77328264D01*
X105113489Y-77328261D01*
X104958845Y-77297500D01*
X104958842Y-77297500D01*
X104801158Y-77297500D01*
X104801155Y-77297500D01*
X104646510Y-77328261D01*
X104646498Y-77328264D01*
X104500827Y-77388602D01*
X104500814Y-77388609D01*
X104369711Y-77476210D01*
X104369707Y-77476213D01*
X104258213Y-77587707D01*
X104258210Y-77587711D01*
X104170609Y-77718814D01*
X104170602Y-77718827D01*
X104110264Y-77864498D01*
X104110261Y-77864510D01*
X104079500Y-78019153D01*
X89700499Y-78019153D01*
X89669738Y-77864510D01*
X89669737Y-77864503D01*
X89669735Y-77864498D01*
X89609397Y-77718827D01*
X89609390Y-77718814D01*
X89521789Y-77587711D01*
X89521786Y-77587707D01*
X89410292Y-77476213D01*
X89410288Y-77476210D01*
X89279185Y-77388609D01*
X89279172Y-77388602D01*
X89133501Y-77328264D01*
X89133489Y-77328261D01*
X88978845Y-77297500D01*
X88978842Y-77297500D01*
X88821158Y-77297500D01*
X88821155Y-77297500D01*
X88666510Y-77328261D01*
X88666498Y-77328264D01*
X88520827Y-77388602D01*
X88520814Y-77388609D01*
X88389711Y-77476210D01*
X88389707Y-77476213D01*
X88278213Y-77587707D01*
X88278210Y-77587711D01*
X88190609Y-77718814D01*
X88190602Y-77718827D01*
X88130264Y-77864498D01*
X88130261Y-77864510D01*
X88099500Y-78019153D01*
X85890500Y-78019153D01*
X85890500Y-76145713D01*
X91729500Y-76145713D01*
X91729500Y-76358286D01*
X91762753Y-76568239D01*
X91828444Y-76770414D01*
X91924951Y-76959820D01*
X92049890Y-77131786D01*
X92200213Y-77282109D01*
X92372179Y-77407048D01*
X92372181Y-77407049D01*
X92372184Y-77407051D01*
X92561588Y-77503557D01*
X92763757Y-77569246D01*
X92973713Y-77602500D01*
X92973714Y-77602500D01*
X93186286Y-77602500D01*
X93186287Y-77602500D01*
X93396243Y-77569246D01*
X93598412Y-77503557D01*
X93787816Y-77407051D01*
X93896258Y-77328264D01*
X93959786Y-77282109D01*
X93959788Y-77282106D01*
X93959792Y-77282104D01*
X94110104Y-77131792D01*
X94110106Y-77131788D01*
X94110109Y-77131786D01*
X94235048Y-76959820D01*
X94235047Y-76959820D01*
X94235051Y-76959816D01*
X94239514Y-76951054D01*
X94287488Y-76900259D01*
X94355308Y-76883463D01*
X94421444Y-76905999D01*
X94460486Y-76951056D01*
X94464951Y-76959820D01*
X94589890Y-77131786D01*
X94740213Y-77282109D01*
X94912179Y-77407048D01*
X94912181Y-77407049D01*
X94912184Y-77407051D01*
X95101588Y-77503557D01*
X95303757Y-77569246D01*
X95513713Y-77602500D01*
X95513714Y-77602500D01*
X95726286Y-77602500D01*
X95726287Y-77602500D01*
X95936243Y-77569246D01*
X96138412Y-77503557D01*
X96327816Y-77407051D01*
X96436258Y-77328264D01*
X96499786Y-77282109D01*
X96499788Y-77282106D01*
X96499792Y-77282104D01*
X96650104Y-77131792D01*
X96650106Y-77131788D01*
X96650109Y-77131786D01*
X96775048Y-76959820D01*
X96775047Y-76959820D01*
X96775051Y-76959816D01*
X96779514Y-76951054D01*
X96827488Y-76900259D01*
X96895308Y-76883463D01*
X96961444Y-76905999D01*
X97000486Y-76951056D01*
X97004951Y-76959820D01*
X97129890Y-77131786D01*
X97280213Y-77282109D01*
X97452179Y-77407048D01*
X97452181Y-77407049D01*
X97452184Y-77407051D01*
X97641588Y-77503557D01*
X97843757Y-77569246D01*
X98053713Y-77602500D01*
X98053714Y-77602500D01*
X98266286Y-77602500D01*
X98266287Y-77602500D01*
X98476243Y-77569246D01*
X98678412Y-77503557D01*
X98867816Y-77407051D01*
X98976258Y-77328264D01*
X99039786Y-77282109D01*
X99039788Y-77282106D01*
X99039792Y-77282104D01*
X99190104Y-77131792D01*
X99190106Y-77131788D01*
X99190109Y-77131786D01*
X99275890Y-77013717D01*
X99315051Y-76959816D01*
X99319793Y-76950508D01*
X99367763Y-76899711D01*
X99435583Y-76882911D01*
X99501719Y-76905445D01*
X99540763Y-76950500D01*
X99545373Y-76959547D01*
X99584728Y-77013716D01*
X100217037Y-76381408D01*
X100234075Y-76444993D01*
X100299901Y-76559007D01*
X100392993Y-76652099D01*
X100507007Y-76717925D01*
X100570590Y-76734962D01*
X99938282Y-77367269D01*
X99938282Y-77367270D01*
X99992449Y-77406624D01*
X100181782Y-77503095D01*
X100383870Y-77568757D01*
X100593754Y-77602000D01*
X100806246Y-77602000D01*
X101016127Y-77568757D01*
X101016130Y-77568757D01*
X101218217Y-77503095D01*
X101407554Y-77406622D01*
X101461716Y-77367270D01*
X101461717Y-77367270D01*
X100829408Y-76734962D01*
X100892993Y-76717925D01*
X101007007Y-76652099D01*
X101100099Y-76559007D01*
X101165925Y-76444993D01*
X101182962Y-76381408D01*
X101815270Y-77013717D01*
X101815270Y-77013716D01*
X101854622Y-76959554D01*
X101951095Y-76770217D01*
X102016757Y-76568130D01*
X102016757Y-76568127D01*
X102050000Y-76358246D01*
X102050000Y-76145753D01*
X102016757Y-75935872D01*
X102016757Y-75935869D01*
X101951095Y-75733782D01*
X101854624Y-75544449D01*
X101815270Y-75490282D01*
X101815269Y-75490282D01*
X101182962Y-76122590D01*
X101165925Y-76059007D01*
X101100099Y-75944993D01*
X101007007Y-75851901D01*
X100892993Y-75786075D01*
X100829409Y-75769037D01*
X101461716Y-75136728D01*
X101407550Y-75097375D01*
X101218217Y-75000904D01*
X101016129Y-74935242D01*
X100806246Y-74902000D01*
X100593754Y-74902000D01*
X100383872Y-74935242D01*
X100383869Y-74935242D01*
X100181782Y-75000904D01*
X99992439Y-75097380D01*
X99938282Y-75136727D01*
X99938282Y-75136728D01*
X100570591Y-75769037D01*
X100507007Y-75786075D01*
X100392993Y-75851901D01*
X100299901Y-75944993D01*
X100234075Y-76059007D01*
X100217037Y-76122591D01*
X99584728Y-75490282D01*
X99584727Y-75490282D01*
X99545380Y-75544440D01*
X99545376Y-75544446D01*
X99540760Y-75553505D01*
X99492781Y-75604297D01*
X99424959Y-75621087D01*
X99358826Y-75598543D01*
X99319794Y-75553493D01*
X99315051Y-75544184D01*
X99315049Y-75544181D01*
X99315048Y-75544179D01*
X99190109Y-75372213D01*
X99039786Y-75221890D01*
X98867820Y-75096951D01*
X98678414Y-75000444D01*
X98678413Y-75000443D01*
X98678412Y-75000443D01*
X98476243Y-74934754D01*
X98476241Y-74934753D01*
X98476240Y-74934753D01*
X98314957Y-74909208D01*
X98266287Y-74901500D01*
X98053713Y-74901500D01*
X98005042Y-74909208D01*
X97843760Y-74934753D01*
X97641585Y-75000444D01*
X97452179Y-75096951D01*
X97280213Y-75221890D01*
X97129890Y-75372213D01*
X97004949Y-75544182D01*
X97000484Y-75552946D01*
X96952509Y-75603742D01*
X96884688Y-75620536D01*
X96818553Y-75597998D01*
X96779516Y-75552946D01*
X96775050Y-75544182D01*
X96650109Y-75372213D01*
X96499786Y-75221890D01*
X96327820Y-75096951D01*
X96138414Y-75000444D01*
X96138413Y-75000443D01*
X96138412Y-75000443D01*
X95936243Y-74934754D01*
X95936241Y-74934753D01*
X95936240Y-74934753D01*
X95774957Y-74909208D01*
X95726287Y-74901500D01*
X95513713Y-74901500D01*
X95465042Y-74909208D01*
X95303760Y-74934753D01*
X95101585Y-75000444D01*
X94912179Y-75096951D01*
X94740213Y-75221890D01*
X94589890Y-75372213D01*
X94464949Y-75544182D01*
X94460484Y-75552946D01*
X94412509Y-75603742D01*
X94344688Y-75620536D01*
X94278553Y-75597998D01*
X94239516Y-75552946D01*
X94235050Y-75544182D01*
X94110109Y-75372213D01*
X93959786Y-75221890D01*
X93787820Y-75096951D01*
X93598414Y-75000444D01*
X93598413Y-75000443D01*
X93598412Y-75000443D01*
X93396243Y-74934754D01*
X93396241Y-74934753D01*
X93396240Y-74934753D01*
X93234957Y-74909208D01*
X93186287Y-74901500D01*
X92973713Y-74901500D01*
X92925042Y-74909208D01*
X92763760Y-74934753D01*
X92561585Y-75000444D01*
X92372179Y-75096951D01*
X92200213Y-75221890D01*
X92049890Y-75372213D01*
X91924951Y-75544179D01*
X91828444Y-75733585D01*
X91762753Y-75935760D01*
X91729500Y-76145713D01*
X85890500Y-76145713D01*
X85890500Y-59433713D01*
X86649500Y-59433713D01*
X86649500Y-59646286D01*
X86677196Y-59821155D01*
X86682754Y-59856243D01*
X86722590Y-59978846D01*
X86748444Y-60058414D01*
X86844951Y-60247820D01*
X86969890Y-60419786D01*
X87120213Y-60570109D01*
X87292182Y-60695050D01*
X87300946Y-60699516D01*
X87351742Y-60747491D01*
X87368536Y-60815312D01*
X87345998Y-60881447D01*
X87300946Y-60920484D01*
X87292182Y-60924949D01*
X87120213Y-61049890D01*
X86969890Y-61200213D01*
X86844951Y-61372179D01*
X86748444Y-61561585D01*
X86682753Y-61763760D01*
X86649500Y-61973713D01*
X86649500Y-62186286D01*
X86682753Y-62396239D01*
X86748444Y-62598414D01*
X86844951Y-62787820D01*
X86969890Y-62959786D01*
X87120213Y-63110109D01*
X87292182Y-63235050D01*
X87300946Y-63239516D01*
X87351742Y-63287491D01*
X87368536Y-63355312D01*
X87345998Y-63421447D01*
X87300946Y-63460484D01*
X87292182Y-63464949D01*
X87120213Y-63589890D01*
X86969890Y-63740213D01*
X86844951Y-63912179D01*
X86748444Y-64101585D01*
X86682753Y-64303760D01*
X86669752Y-64385846D01*
X86649500Y-64513713D01*
X86649500Y-64726287D01*
X86682754Y-64936243D01*
X86728403Y-65076737D01*
X86748444Y-65138414D01*
X86844951Y-65327820D01*
X86969890Y-65499786D01*
X87120213Y-65650109D01*
X87292182Y-65775050D01*
X87300946Y-65779516D01*
X87351742Y-65827491D01*
X87368536Y-65895312D01*
X87345998Y-65961447D01*
X87300946Y-66000484D01*
X87292182Y-66004949D01*
X87120213Y-66129890D01*
X86969890Y-66280213D01*
X86844951Y-66452179D01*
X86748444Y-66641585D01*
X86682753Y-66843760D01*
X86649500Y-67053713D01*
X86649500Y-67266287D01*
X86682754Y-67476243D01*
X86697201Y-67520707D01*
X86748444Y-67678414D01*
X86844951Y-67867820D01*
X86969890Y-68039786D01*
X87120213Y-68190109D01*
X87292182Y-68315050D01*
X87300946Y-68319516D01*
X87351742Y-68367491D01*
X87368536Y-68435312D01*
X87345998Y-68501447D01*
X87300946Y-68540484D01*
X87292182Y-68544949D01*
X87120213Y-68669890D01*
X86969890Y-68820213D01*
X86844951Y-68992179D01*
X86748444Y-69181585D01*
X86682753Y-69383760D01*
X86649500Y-69593713D01*
X86649500Y-69806286D01*
X86679593Y-69996289D01*
X86682754Y-70016243D01*
X86747172Y-70214501D01*
X86748444Y-70218414D01*
X86844951Y-70407820D01*
X86969890Y-70579786D01*
X87120213Y-70730109D01*
X87292182Y-70855050D01*
X87300946Y-70859516D01*
X87351742Y-70907491D01*
X87368536Y-70975312D01*
X87345998Y-71041447D01*
X87300946Y-71080484D01*
X87292182Y-71084949D01*
X87120213Y-71209890D01*
X86969890Y-71360213D01*
X86844951Y-71532179D01*
X86748444Y-71721585D01*
X86682753Y-71923760D01*
X86649500Y-72133713D01*
X86649500Y-72346286D01*
X86682002Y-72551500D01*
X86682754Y-72556243D01*
X86746534Y-72752538D01*
X86748444Y-72758414D01*
X86844951Y-72947820D01*
X86969890Y-73119786D01*
X87120213Y-73270109D01*
X87292179Y-73395048D01*
X87292181Y-73395049D01*
X87292184Y-73395051D01*
X87481588Y-73491557D01*
X87683757Y-73557246D01*
X87893713Y-73590500D01*
X87893714Y-73590500D01*
X88106286Y-73590500D01*
X88106287Y-73590500D01*
X88316243Y-73557246D01*
X88518412Y-73491557D01*
X88707816Y-73395051D01*
X88729789Y-73379086D01*
X88751511Y-73363304D01*
X102349500Y-73363304D01*
X102349500Y-73540695D01*
X102384103Y-73714658D01*
X102384106Y-73714667D01*
X102451983Y-73878540D01*
X102451990Y-73878553D01*
X102550535Y-74026034D01*
X102550538Y-74026038D01*
X102675961Y-74151461D01*
X102675965Y-74151464D01*
X102823446Y-74250009D01*
X102823459Y-74250016D01*
X102946363Y-74300923D01*
X102987334Y-74317894D01*
X102987336Y-74317894D01*
X102987341Y-74317896D01*
X103161304Y-74352499D01*
X103161307Y-74352500D01*
X103161309Y-74352500D01*
X103338693Y-74352500D01*
X103338694Y-74352499D01*
X103396682Y-74340964D01*
X103512658Y-74317896D01*
X103512661Y-74317894D01*
X103512666Y-74317894D01*
X103676547Y-74250013D01*
X103824035Y-74151464D01*
X103949464Y-74026035D01*
X104048013Y-73878547D01*
X104115894Y-73714666D01*
X104150500Y-73540691D01*
X104150500Y-73363309D01*
X104150500Y-73363306D01*
X104150499Y-73363304D01*
X104115896Y-73189341D01*
X104115893Y-73189332D01*
X104048016Y-73025459D01*
X104048009Y-73025446D01*
X103949464Y-72877965D01*
X103949461Y-72877961D01*
X103824038Y-72752538D01*
X103824034Y-72752535D01*
X103676553Y-72653990D01*
X103676540Y-72653983D01*
X103512667Y-72586106D01*
X103512658Y-72586103D01*
X103338694Y-72551500D01*
X103338691Y-72551500D01*
X103161309Y-72551500D01*
X103161306Y-72551500D01*
X102987341Y-72586103D01*
X102987332Y-72586106D01*
X102823459Y-72653983D01*
X102823446Y-72653990D01*
X102675965Y-72752535D01*
X102675961Y-72752538D01*
X102550538Y-72877961D01*
X102550535Y-72877965D01*
X102451990Y-73025446D01*
X102451983Y-73025459D01*
X102384106Y-73189332D01*
X102384103Y-73189341D01*
X102349500Y-73363304D01*
X88751511Y-73363304D01*
X88879786Y-73270109D01*
X88879788Y-73270106D01*
X88879792Y-73270104D01*
X89030104Y-73119792D01*
X89030106Y-73119788D01*
X89030109Y-73119786D01*
X89155048Y-72947820D01*
X89155047Y-72947820D01*
X89155051Y-72947816D01*
X89251557Y-72758412D01*
X89317246Y-72556243D01*
X89350500Y-72346287D01*
X89350500Y-72133713D01*
X89317246Y-71923757D01*
X89251557Y-71721588D01*
X89155051Y-71532184D01*
X89155049Y-71532181D01*
X89155048Y-71532179D01*
X89030109Y-71360213D01*
X88879786Y-71209890D01*
X88707820Y-71084951D01*
X88707115Y-71084591D01*
X88699054Y-71080485D01*
X88648259Y-71032512D01*
X88631463Y-70964692D01*
X88653999Y-70898556D01*
X88699054Y-70859515D01*
X88707816Y-70855051D01*
X88809051Y-70781500D01*
X88879786Y-70730109D01*
X88879788Y-70730106D01*
X88879792Y-70730104D01*
X89030104Y-70579792D01*
X89030106Y-70579788D01*
X89030109Y-70579786D01*
X89155048Y-70407820D01*
X89155047Y-70407820D01*
X89155051Y-70407816D01*
X89251557Y-70218412D01*
X89317246Y-70016243D01*
X89350500Y-69806287D01*
X89350500Y-69593713D01*
X89317246Y-69383757D01*
X89251557Y-69181588D01*
X89155051Y-68992184D01*
X89155049Y-68992181D01*
X89155048Y-68992179D01*
X89030109Y-68820213D01*
X88879786Y-68669890D01*
X88786553Y-68602153D01*
X90038500Y-68602153D01*
X90038500Y-68759846D01*
X90069261Y-68914489D01*
X90069264Y-68914501D01*
X90129602Y-69060172D01*
X90129609Y-69060185D01*
X90217210Y-69191288D01*
X90217213Y-69191292D01*
X90328707Y-69302786D01*
X90328711Y-69302789D01*
X90459814Y-69390390D01*
X90459827Y-69390397D01*
X90605498Y-69450735D01*
X90605503Y-69450737D01*
X90760153Y-69481499D01*
X90760156Y-69481500D01*
X90760158Y-69481500D01*
X90917844Y-69481500D01*
X90917845Y-69481499D01*
X91072497Y-69450737D01*
X91218179Y-69390394D01*
X91349289Y-69302789D01*
X91460789Y-69191289D01*
X91548394Y-69060179D01*
X91608737Y-68914497D01*
X91639500Y-68759842D01*
X91639500Y-68602158D01*
X91639500Y-68602155D01*
X91639499Y-68602153D01*
X91627392Y-68541288D01*
X91608737Y-68447503D01*
X91601487Y-68430000D01*
X91548397Y-68301827D01*
X91548390Y-68301814D01*
X91460789Y-68170711D01*
X91460786Y-68170707D01*
X91349289Y-68059210D01*
X91334259Y-68049168D01*
X91218185Y-67971609D01*
X91218172Y-67971602D01*
X91171217Y-67952153D01*
X94393500Y-67952153D01*
X94393500Y-68109846D01*
X94424261Y-68264489D01*
X94424264Y-68264501D01*
X94484602Y-68410172D01*
X94484609Y-68410185D01*
X94572210Y-68541288D01*
X94572213Y-68541292D01*
X94624240Y-68593319D01*
X94657725Y-68654642D01*
X94652741Y-68724334D01*
X94624240Y-68768681D01*
X94572213Y-68820707D01*
X94572210Y-68820711D01*
X94484609Y-68951814D01*
X94484602Y-68951827D01*
X94424264Y-69097498D01*
X94424261Y-69097510D01*
X94393500Y-69252153D01*
X94393500Y-69409846D01*
X94424261Y-69564489D01*
X94424264Y-69564501D01*
X94484602Y-69710172D01*
X94484609Y-69710185D01*
X94572210Y-69841288D01*
X94572213Y-69841292D01*
X94683707Y-69952786D01*
X94683711Y-69952789D01*
X94814814Y-70040390D01*
X94814827Y-70040397D01*
X94960498Y-70100735D01*
X94960503Y-70100737D01*
X95115153Y-70131499D01*
X95115156Y-70131500D01*
X95115158Y-70131500D01*
X95272844Y-70131500D01*
X95272845Y-70131499D01*
X95427497Y-70100737D01*
X95573179Y-70040394D01*
X95704289Y-69952789D01*
X95754925Y-69902153D01*
X97641500Y-69902153D01*
X97641500Y-70059846D01*
X97672261Y-70214489D01*
X97672264Y-70214501D01*
X97732602Y-70360172D01*
X97732609Y-70360185D01*
X97820210Y-70491288D01*
X97820213Y-70491292D01*
X97931707Y-70602786D01*
X97931711Y-70602789D01*
X98062814Y-70690390D01*
X98062827Y-70690397D01*
X98158690Y-70730104D01*
X98208503Y-70750737D01*
X98363153Y-70781499D01*
X98363156Y-70781500D01*
X98363158Y-70781500D01*
X98520844Y-70781500D01*
X98520845Y-70781499D01*
X98675497Y-70750737D01*
X98821179Y-70690394D01*
X98952289Y-70602789D01*
X99063789Y-70491289D01*
X99151394Y-70360179D01*
X99211737Y-70214497D01*
X99242500Y-70059842D01*
X99242500Y-69902158D01*
X99242500Y-69902155D01*
X99242499Y-69902153D01*
X99211737Y-69747503D01*
X99200133Y-69719489D01*
X99151397Y-69601827D01*
X99151390Y-69601814D01*
X99063791Y-69470714D01*
X99063786Y-69470707D01*
X99000232Y-69407153D01*
X101197500Y-69407153D01*
X101197500Y-69564846D01*
X101228261Y-69719489D01*
X101228264Y-69719501D01*
X101288602Y-69865172D01*
X101288609Y-69865185D01*
X101376210Y-69996288D01*
X101376213Y-69996292D01*
X101487707Y-70107786D01*
X101487711Y-70107789D01*
X101618814Y-70195390D01*
X101618827Y-70195397D01*
X101764498Y-70255735D01*
X101764503Y-70255737D01*
X101919153Y-70286499D01*
X101919156Y-70286500D01*
X101919158Y-70286500D01*
X102076844Y-70286500D01*
X102076845Y-70286499D01*
X102231497Y-70255737D01*
X102377179Y-70195394D01*
X102508289Y-70107789D01*
X102619789Y-69996289D01*
X102707394Y-69865179D01*
X102717290Y-69841289D01*
X102731788Y-69806286D01*
X102767737Y-69719497D01*
X102798500Y-69564842D01*
X102798500Y-69407158D01*
X102798500Y-69407155D01*
X102798499Y-69407153D01*
X102788962Y-69359210D01*
X102767737Y-69252503D01*
X102767592Y-69252153D01*
X102707397Y-69106827D01*
X102707390Y-69106814D01*
X102619789Y-68975711D01*
X102619786Y-68975707D01*
X102508292Y-68864213D01*
X102508288Y-68864210D01*
X102377185Y-68776609D01*
X102377172Y-68776602D01*
X102231501Y-68716264D01*
X102231489Y-68716261D01*
X102076845Y-68685500D01*
X102076842Y-68685500D01*
X101919158Y-68685500D01*
X101919155Y-68685500D01*
X101764510Y-68716261D01*
X101764498Y-68716264D01*
X101618827Y-68776602D01*
X101618814Y-68776609D01*
X101487711Y-68864210D01*
X101487707Y-68864213D01*
X101376213Y-68975707D01*
X101376210Y-68975711D01*
X101288609Y-69106814D01*
X101288602Y-69106827D01*
X101228264Y-69252498D01*
X101228261Y-69252510D01*
X101197500Y-69407153D01*
X99000232Y-69407153D01*
X98952292Y-69359213D01*
X98952288Y-69359210D01*
X98821185Y-69271609D01*
X98821172Y-69271602D01*
X98675501Y-69211264D01*
X98675489Y-69211261D01*
X98520845Y-69180500D01*
X98520842Y-69180500D01*
X98363158Y-69180500D01*
X98363155Y-69180500D01*
X98208510Y-69211261D01*
X98208498Y-69211264D01*
X98062827Y-69271602D01*
X98062814Y-69271609D01*
X97931711Y-69359210D01*
X97931707Y-69359213D01*
X97820213Y-69470707D01*
X97820210Y-69470711D01*
X97732609Y-69601814D01*
X97732602Y-69601827D01*
X97672264Y-69747498D01*
X97672261Y-69747510D01*
X97641500Y-69902153D01*
X95754925Y-69902153D01*
X95815789Y-69841289D01*
X95839178Y-69806286D01*
X95903390Y-69710185D01*
X95903390Y-69710184D01*
X95903394Y-69710179D01*
X95963737Y-69564497D01*
X95994500Y-69409842D01*
X95994500Y-69252158D01*
X95994500Y-69252155D01*
X95994499Y-69252153D01*
X95982392Y-69191288D01*
X95963737Y-69097503D01*
X95963735Y-69097498D01*
X95903397Y-68951827D01*
X95903390Y-68951814D01*
X95815789Y-68820711D01*
X95815786Y-68820707D01*
X95763760Y-68768681D01*
X95730275Y-68707358D01*
X95735259Y-68637666D01*
X95763760Y-68593319D01*
X95815786Y-68541292D01*
X95815789Y-68541289D01*
X95903394Y-68410179D01*
X95963737Y-68264497D01*
X95994500Y-68109842D01*
X95994500Y-67952158D01*
X95994500Y-67952155D01*
X95994499Y-67952153D01*
X97641500Y-67952153D01*
X97641500Y-68109846D01*
X97672261Y-68264489D01*
X97672264Y-68264501D01*
X97732602Y-68410172D01*
X97732609Y-68410185D01*
X97820210Y-68541288D01*
X97820213Y-68541292D01*
X97931707Y-68652786D01*
X97931711Y-68652789D01*
X98062814Y-68740390D01*
X98062827Y-68740397D01*
X98150245Y-68776606D01*
X98208503Y-68800737D01*
X98363153Y-68831499D01*
X98363156Y-68831500D01*
X98363158Y-68831500D01*
X98520844Y-68831500D01*
X98520845Y-68831499D01*
X98675497Y-68800737D01*
X98821179Y-68740394D01*
X98952289Y-68652789D01*
X99063789Y-68541289D01*
X99151394Y-68410179D01*
X99211737Y-68264497D01*
X99242500Y-68109842D01*
X99242500Y-67952158D01*
X99242500Y-67952155D01*
X99242499Y-67952153D01*
X99211738Y-67797510D01*
X99211737Y-67797503D01*
X99211735Y-67797498D01*
X99151397Y-67651827D01*
X99151390Y-67651814D01*
X99063789Y-67520711D01*
X99063786Y-67520707D01*
X98952292Y-67409213D01*
X98952288Y-67409210D01*
X98821185Y-67321609D01*
X98821172Y-67321602D01*
X98675501Y-67261264D01*
X98675489Y-67261261D01*
X98520845Y-67230500D01*
X98520842Y-67230500D01*
X98363158Y-67230500D01*
X98363155Y-67230500D01*
X98208510Y-67261261D01*
X98208498Y-67261264D01*
X98062827Y-67321602D01*
X98062814Y-67321609D01*
X97931711Y-67409210D01*
X97931707Y-67409213D01*
X97820213Y-67520707D01*
X97820210Y-67520711D01*
X97732609Y-67651814D01*
X97732602Y-67651827D01*
X97672264Y-67797498D01*
X97672261Y-67797510D01*
X97641500Y-67952153D01*
X95994499Y-67952153D01*
X95963738Y-67797510D01*
X95963737Y-67797503D01*
X95963735Y-67797498D01*
X95903397Y-67651827D01*
X95903390Y-67651814D01*
X95815789Y-67520711D01*
X95815786Y-67520707D01*
X95704292Y-67409213D01*
X95704288Y-67409210D01*
X95573185Y-67321609D01*
X95573172Y-67321602D01*
X95427501Y-67261264D01*
X95427489Y-67261261D01*
X95272845Y-67230500D01*
X95272842Y-67230500D01*
X95115158Y-67230500D01*
X95115155Y-67230500D01*
X94960510Y-67261261D01*
X94960498Y-67261264D01*
X94814827Y-67321602D01*
X94814814Y-67321609D01*
X94683711Y-67409210D01*
X94683707Y-67409213D01*
X94572213Y-67520707D01*
X94572210Y-67520711D01*
X94484609Y-67651814D01*
X94484602Y-67651827D01*
X94424264Y-67797498D01*
X94424261Y-67797510D01*
X94393500Y-67952153D01*
X91171217Y-67952153D01*
X91072501Y-67911264D01*
X91072489Y-67911261D01*
X90917845Y-67880500D01*
X90917842Y-67880500D01*
X90760158Y-67880500D01*
X90760155Y-67880500D01*
X90605510Y-67911261D01*
X90605498Y-67911264D01*
X90459827Y-67971602D01*
X90459814Y-67971609D01*
X90328711Y-68059210D01*
X90328707Y-68059213D01*
X90217213Y-68170707D01*
X90217210Y-68170711D01*
X90129609Y-68301814D01*
X90129602Y-68301827D01*
X90069264Y-68447498D01*
X90069261Y-68447510D01*
X90038500Y-68602153D01*
X88786553Y-68602153D01*
X88707820Y-68544951D01*
X88707115Y-68544591D01*
X88699054Y-68540485D01*
X88648259Y-68492512D01*
X88631463Y-68424692D01*
X88653999Y-68358556D01*
X88699054Y-68319515D01*
X88707816Y-68315051D01*
X88777409Y-68264489D01*
X88879786Y-68190109D01*
X88879788Y-68190106D01*
X88879792Y-68190104D01*
X89030104Y-68039792D01*
X89030106Y-68039788D01*
X89030109Y-68039786D01*
X89155048Y-67867820D01*
X89155047Y-67867820D01*
X89155051Y-67867816D01*
X89251557Y-67678412D01*
X89317246Y-67476243D01*
X89350500Y-67266287D01*
X89350500Y-67053713D01*
X89317246Y-66843757D01*
X89251557Y-66641588D01*
X89155051Y-66452184D01*
X89155049Y-66452181D01*
X89155048Y-66452179D01*
X89030109Y-66280213D01*
X88879786Y-66129890D01*
X88707820Y-66004951D01*
X88707115Y-66004591D01*
X88699054Y-66000485D01*
X88648259Y-65952512D01*
X88631463Y-65884692D01*
X88653999Y-65818556D01*
X88699054Y-65779515D01*
X88707816Y-65775051D01*
X88729789Y-65759086D01*
X88879786Y-65650109D01*
X88879788Y-65650106D01*
X88879792Y-65650104D01*
X89030104Y-65499792D01*
X89030106Y-65499788D01*
X89030109Y-65499786D01*
X89155048Y-65327820D01*
X89155047Y-65327820D01*
X89155051Y-65327816D01*
X89251557Y-65138412D01*
X89317246Y-64936243D01*
X89350500Y-64726287D01*
X89350500Y-64513713D01*
X89317246Y-64303757D01*
X89292681Y-64228153D01*
X91759500Y-64228153D01*
X91759500Y-64385846D01*
X91790261Y-64540489D01*
X91790264Y-64540501D01*
X91850602Y-64686172D01*
X91850609Y-64686185D01*
X91938210Y-64817288D01*
X91938213Y-64817292D01*
X92049707Y-64928786D01*
X92049711Y-64928789D01*
X92180814Y-65016390D01*
X92180827Y-65016397D01*
X92326498Y-65076735D01*
X92326503Y-65076737D01*
X92481153Y-65107499D01*
X92481156Y-65107500D01*
X92481158Y-65107500D01*
X92638844Y-65107500D01*
X92638845Y-65107499D01*
X92793497Y-65076737D01*
X92939179Y-65016394D01*
X93001108Y-64975013D01*
X93067785Y-64954135D01*
X93135165Y-64972619D01*
X93138892Y-64975014D01*
X93200813Y-65016389D01*
X93200815Y-65016390D01*
X93200821Y-65016394D01*
X93200823Y-65016395D01*
X93200827Y-65016397D01*
X93346498Y-65076735D01*
X93346503Y-65076737D01*
X93501153Y-65107499D01*
X93501156Y-65107500D01*
X93501158Y-65107500D01*
X93658844Y-65107500D01*
X93658845Y-65107499D01*
X93813497Y-65076737D01*
X93959179Y-65016394D01*
X94090289Y-64928789D01*
X94201789Y-64817289D01*
X94289394Y-64686179D01*
X94349737Y-64540497D01*
X94380500Y-64385842D01*
X94380500Y-64228158D01*
X94380500Y-64228155D01*
X94380499Y-64228153D01*
X94349738Y-64073510D01*
X94349737Y-64073503D01*
X94349735Y-64073498D01*
X94289397Y-63927827D01*
X94289390Y-63927814D01*
X94201789Y-63796711D01*
X94201786Y-63796707D01*
X94090292Y-63685213D01*
X94090288Y-63685210D01*
X93959185Y-63597609D01*
X93959172Y-63597602D01*
X93813501Y-63537264D01*
X93813489Y-63537261D01*
X93658845Y-63506500D01*
X93658842Y-63506500D01*
X93501158Y-63506500D01*
X93501155Y-63506500D01*
X93346510Y-63537261D01*
X93346498Y-63537264D01*
X93200828Y-63597602D01*
X93200812Y-63597611D01*
X93138889Y-63638986D01*
X93072212Y-63659863D01*
X93004832Y-63641378D01*
X93001111Y-63638986D01*
X92939187Y-63597611D01*
X92939183Y-63597609D01*
X92939179Y-63597606D01*
X92939175Y-63597604D01*
X92939171Y-63597602D01*
X92793501Y-63537264D01*
X92793489Y-63537261D01*
X92638845Y-63506500D01*
X92638842Y-63506500D01*
X92481158Y-63506500D01*
X92481155Y-63506500D01*
X92326510Y-63537261D01*
X92326498Y-63537264D01*
X92180827Y-63597602D01*
X92180814Y-63597609D01*
X92049711Y-63685210D01*
X92049707Y-63685213D01*
X91938213Y-63796707D01*
X91938210Y-63796711D01*
X91850609Y-63927814D01*
X91850602Y-63927827D01*
X91790264Y-64073498D01*
X91790261Y-64073510D01*
X91759500Y-64228153D01*
X89292681Y-64228153D01*
X89251557Y-64101588D01*
X89155051Y-63912184D01*
X89155049Y-63912181D01*
X89155048Y-63912179D01*
X89030109Y-63740213D01*
X88879786Y-63589890D01*
X88707820Y-63464951D01*
X88707115Y-63464591D01*
X88699054Y-63460485D01*
X88648259Y-63412512D01*
X88631463Y-63344692D01*
X88653999Y-63278556D01*
X88699054Y-63239515D01*
X88707816Y-63235051D01*
X88729789Y-63219086D01*
X88879786Y-63110109D01*
X88879788Y-63110106D01*
X88879792Y-63110104D01*
X89030104Y-62959792D01*
X89030106Y-62959788D01*
X89030109Y-62959786D01*
X89155048Y-62787820D01*
X89155047Y-62787820D01*
X89155051Y-62787816D01*
X89251557Y-62598412D01*
X89317246Y-62396243D01*
X89350500Y-62186287D01*
X89350500Y-61973713D01*
X89317246Y-61763757D01*
X89251557Y-61561588D01*
X89155051Y-61372184D01*
X89155049Y-61372181D01*
X89155048Y-61372179D01*
X89030109Y-61200213D01*
X88879786Y-61049890D01*
X88707820Y-60924951D01*
X88707115Y-60924591D01*
X88699054Y-60920485D01*
X88648259Y-60872512D01*
X88631463Y-60804692D01*
X88653999Y-60738556D01*
X88699054Y-60699515D01*
X88707816Y-60695051D01*
X88742661Y-60669735D01*
X88879786Y-60570109D01*
X88879788Y-60570106D01*
X88879792Y-60570104D01*
X89030104Y-60419792D01*
X89030106Y-60419788D01*
X89030109Y-60419786D01*
X89155048Y-60247820D01*
X89155047Y-60247820D01*
X89155051Y-60247816D01*
X89251557Y-60058412D01*
X89317246Y-59856243D01*
X89322804Y-59821153D01*
X93479500Y-59821153D01*
X93479500Y-59978846D01*
X93510261Y-60133489D01*
X93510264Y-60133501D01*
X93570602Y-60279172D01*
X93570609Y-60279185D01*
X93658210Y-60410288D01*
X93658213Y-60410292D01*
X93769707Y-60521786D01*
X93769711Y-60521789D01*
X93900814Y-60609390D01*
X93900827Y-60609397D01*
X94046498Y-60669735D01*
X94046503Y-60669737D01*
X94196201Y-60699514D01*
X94201153Y-60700499D01*
X94201156Y-60700500D01*
X94201158Y-60700500D01*
X94358844Y-60700500D01*
X94358845Y-60700499D01*
X94513497Y-60669737D01*
X94659179Y-60609394D01*
X94790289Y-60521789D01*
X94901789Y-60410289D01*
X94989394Y-60279179D01*
X95049737Y-60133497D01*
X95080500Y-59978842D01*
X95080500Y-59821158D01*
X95080500Y-59821155D01*
X95080499Y-59821153D01*
X98699500Y-59821153D01*
X98699500Y-59978846D01*
X98730261Y-60133489D01*
X98730264Y-60133501D01*
X98790602Y-60279172D01*
X98790609Y-60279185D01*
X98878210Y-60410288D01*
X98878213Y-60410292D01*
X98989707Y-60521786D01*
X98989711Y-60521789D01*
X99120814Y-60609390D01*
X99120827Y-60609397D01*
X99266498Y-60669735D01*
X99266503Y-60669737D01*
X99416201Y-60699514D01*
X99421153Y-60700499D01*
X99421156Y-60700500D01*
X99421158Y-60700500D01*
X99578844Y-60700500D01*
X99578845Y-60700499D01*
X99733497Y-60669737D01*
X99879179Y-60609394D01*
X100010289Y-60521789D01*
X100121789Y-60410289D01*
X100209394Y-60279179D01*
X100269737Y-60133497D01*
X100300500Y-59978842D01*
X100300500Y-59821158D01*
X100300500Y-59821155D01*
X100300499Y-59821153D01*
X100269738Y-59666510D01*
X100269737Y-59666503D01*
X100261363Y-59646286D01*
X100209397Y-59520827D01*
X100209390Y-59520814D01*
X100193967Y-59497732D01*
X100151190Y-59433713D01*
X104429500Y-59433713D01*
X104429500Y-59646286D01*
X104457196Y-59821155D01*
X104462754Y-59856243D01*
X104502590Y-59978846D01*
X104528444Y-60058414D01*
X104624951Y-60247820D01*
X104749890Y-60419786D01*
X104900213Y-60570109D01*
X105072182Y-60695050D01*
X105080946Y-60699516D01*
X105131742Y-60747491D01*
X105148536Y-60815312D01*
X105125998Y-60881447D01*
X105080946Y-60920484D01*
X105072182Y-60924949D01*
X104900213Y-61049890D01*
X104749890Y-61200213D01*
X104624951Y-61372179D01*
X104528444Y-61561585D01*
X104462753Y-61763760D01*
X104429500Y-61973713D01*
X104429500Y-62186286D01*
X104462753Y-62396239D01*
X104528444Y-62598414D01*
X104624951Y-62787820D01*
X104749890Y-62959786D01*
X104900213Y-63110109D01*
X105072182Y-63235050D01*
X105080946Y-63239516D01*
X105131742Y-63287491D01*
X105148536Y-63355312D01*
X105125998Y-63421447D01*
X105080946Y-63460484D01*
X105072182Y-63464949D01*
X104900213Y-63589890D01*
X104749890Y-63740213D01*
X104624951Y-63912179D01*
X104528444Y-64101585D01*
X104462753Y-64303760D01*
X104449752Y-64385846D01*
X104429500Y-64513713D01*
X104429500Y-64726287D01*
X104462754Y-64936243D01*
X104508403Y-65076737D01*
X104528444Y-65138414D01*
X104624951Y-65327820D01*
X104749890Y-65499786D01*
X104900213Y-65650109D01*
X105072182Y-65775050D01*
X105080946Y-65779516D01*
X105131742Y-65827491D01*
X105148536Y-65895312D01*
X105125998Y-65961447D01*
X105080946Y-66000484D01*
X105072182Y-66004949D01*
X104900213Y-66129890D01*
X104749890Y-66280213D01*
X104624951Y-66452179D01*
X104528444Y-66641585D01*
X104462753Y-66843760D01*
X104429500Y-67053713D01*
X104429500Y-67266287D01*
X104462754Y-67476243D01*
X104477201Y-67520707D01*
X104528444Y-67678414D01*
X104624951Y-67867820D01*
X104749890Y-68039786D01*
X104900213Y-68190109D01*
X105072182Y-68315050D01*
X105080946Y-68319516D01*
X105131742Y-68367491D01*
X105148536Y-68435312D01*
X105125998Y-68501447D01*
X105080946Y-68540484D01*
X105072182Y-68544949D01*
X104900213Y-68669890D01*
X104749890Y-68820213D01*
X104624951Y-68992179D01*
X104528444Y-69181585D01*
X104462753Y-69383760D01*
X104429500Y-69593713D01*
X104429500Y-69806286D01*
X104459593Y-69996289D01*
X104462754Y-70016243D01*
X104527172Y-70214501D01*
X104528444Y-70218414D01*
X104624951Y-70407820D01*
X104749890Y-70579786D01*
X104900213Y-70730109D01*
X105072182Y-70855050D01*
X105080946Y-70859516D01*
X105131742Y-70907491D01*
X105148536Y-70975312D01*
X105125998Y-71041447D01*
X105080946Y-71080484D01*
X105072182Y-71084949D01*
X104900213Y-71209890D01*
X104749890Y-71360213D01*
X104624951Y-71532179D01*
X104528444Y-71721585D01*
X104462753Y-71923760D01*
X104429500Y-72133713D01*
X104429500Y-72346286D01*
X104462002Y-72551500D01*
X104462754Y-72556243D01*
X104526534Y-72752538D01*
X104528444Y-72758414D01*
X104624951Y-72947820D01*
X104749890Y-73119786D01*
X104900213Y-73270109D01*
X105072179Y-73395048D01*
X105072181Y-73395049D01*
X105072184Y-73395051D01*
X105261588Y-73491557D01*
X105463757Y-73557246D01*
X105673713Y-73590500D01*
X105673714Y-73590500D01*
X105886286Y-73590500D01*
X105886287Y-73590500D01*
X106096243Y-73557246D01*
X106298412Y-73491557D01*
X106487816Y-73395051D01*
X106509789Y-73379086D01*
X106659786Y-73270109D01*
X106659788Y-73270106D01*
X106659792Y-73270104D01*
X106810104Y-73119792D01*
X106810106Y-73119788D01*
X106810109Y-73119786D01*
X106935048Y-72947820D01*
X106935047Y-72947820D01*
X106935051Y-72947816D01*
X107031557Y-72758412D01*
X107097246Y-72556243D01*
X107130500Y-72346287D01*
X107130500Y-72133713D01*
X107097246Y-71923757D01*
X107031557Y-71721588D01*
X106935051Y-71532184D01*
X106935049Y-71532181D01*
X106935048Y-71532179D01*
X106810109Y-71360213D01*
X106659786Y-71209890D01*
X106487820Y-71084951D01*
X106487115Y-71084591D01*
X106479054Y-71080485D01*
X106428259Y-71032512D01*
X106411463Y-70964692D01*
X106433999Y-70898556D01*
X106479054Y-70859515D01*
X106487816Y-70855051D01*
X106589051Y-70781500D01*
X106659786Y-70730109D01*
X106659788Y-70730106D01*
X106659792Y-70730104D01*
X106810104Y-70579792D01*
X106810106Y-70579788D01*
X106810109Y-70579786D01*
X106935048Y-70407820D01*
X106935047Y-70407820D01*
X106935051Y-70407816D01*
X107031557Y-70218412D01*
X107097246Y-70016243D01*
X107130500Y-69806287D01*
X107130500Y-69593713D01*
X107097246Y-69383757D01*
X107031557Y-69181588D01*
X106935051Y-68992184D01*
X106935049Y-68992181D01*
X106935048Y-68992179D01*
X106810109Y-68820213D01*
X106659786Y-68669890D01*
X106487820Y-68544951D01*
X106487115Y-68544591D01*
X106479054Y-68540485D01*
X106428259Y-68492512D01*
X106411463Y-68424692D01*
X106433999Y-68358556D01*
X106479054Y-68319515D01*
X106487816Y-68315051D01*
X106557409Y-68264489D01*
X106659786Y-68190109D01*
X106659788Y-68190106D01*
X106659792Y-68190104D01*
X106810104Y-68039792D01*
X106810106Y-68039788D01*
X106810109Y-68039786D01*
X106935048Y-67867820D01*
X106935047Y-67867820D01*
X106935051Y-67867816D01*
X107031557Y-67678412D01*
X107097246Y-67476243D01*
X107130500Y-67266287D01*
X107130500Y-67053713D01*
X107097246Y-66843757D01*
X107031557Y-66641588D01*
X106935051Y-66452184D01*
X106935049Y-66452181D01*
X106935048Y-66452179D01*
X106810109Y-66280213D01*
X106659786Y-66129890D01*
X106487820Y-66004951D01*
X106487115Y-66004591D01*
X106479054Y-66000485D01*
X106428259Y-65952512D01*
X106411463Y-65884692D01*
X106433999Y-65818556D01*
X106479054Y-65779515D01*
X106487816Y-65775051D01*
X106509789Y-65759086D01*
X106659786Y-65650109D01*
X106659788Y-65650106D01*
X106659792Y-65650104D01*
X106810104Y-65499792D01*
X106810106Y-65499788D01*
X106810109Y-65499786D01*
X106935048Y-65327820D01*
X106935047Y-65327820D01*
X106935051Y-65327816D01*
X107031557Y-65138412D01*
X107097246Y-64936243D01*
X107130500Y-64726287D01*
X107130500Y-64513713D01*
X107097246Y-64303757D01*
X107031557Y-64101588D01*
X106935051Y-63912184D01*
X106935049Y-63912181D01*
X106935048Y-63912179D01*
X106810109Y-63740213D01*
X106659786Y-63589890D01*
X106487820Y-63464951D01*
X106487115Y-63464591D01*
X106479054Y-63460485D01*
X106428259Y-63412512D01*
X106411463Y-63344692D01*
X106433999Y-63278556D01*
X106479054Y-63239515D01*
X106487816Y-63235051D01*
X106509789Y-63219086D01*
X106659786Y-63110109D01*
X106659788Y-63110106D01*
X106659792Y-63110104D01*
X106810104Y-62959792D01*
X106810106Y-62959788D01*
X106810109Y-62959786D01*
X106935048Y-62787820D01*
X106935047Y-62787820D01*
X106935051Y-62787816D01*
X107031557Y-62598412D01*
X107097246Y-62396243D01*
X107130500Y-62186287D01*
X107130500Y-61973713D01*
X107097246Y-61763757D01*
X107031557Y-61561588D01*
X106935051Y-61372184D01*
X106935049Y-61372181D01*
X106935048Y-61372179D01*
X106810109Y-61200213D01*
X106659786Y-61049890D01*
X106487820Y-60924951D01*
X106487115Y-60924591D01*
X106479054Y-60920485D01*
X106428259Y-60872512D01*
X106411463Y-60804692D01*
X106433999Y-60738556D01*
X106479054Y-60699515D01*
X106487816Y-60695051D01*
X106522661Y-60669735D01*
X106659786Y-60570109D01*
X106659788Y-60570106D01*
X106659792Y-60570104D01*
X106810104Y-60419792D01*
X106810106Y-60419788D01*
X106810109Y-60419786D01*
X106935048Y-60247820D01*
X106935047Y-60247820D01*
X106935051Y-60247816D01*
X107031557Y-60058412D01*
X107097246Y-59856243D01*
X107130500Y-59646287D01*
X107130500Y-59433713D01*
X107097246Y-59223757D01*
X107031557Y-59021588D01*
X106935051Y-58832184D01*
X106935049Y-58832181D01*
X106935048Y-58832179D01*
X106810109Y-58660213D01*
X106659786Y-58509890D01*
X106487817Y-58384949D01*
X106478504Y-58380204D01*
X106427707Y-58332230D01*
X106410912Y-58264409D01*
X106433449Y-58198274D01*
X106478507Y-58159232D01*
X106487555Y-58154622D01*
X106541716Y-58115270D01*
X106541717Y-58115270D01*
X105909408Y-57482962D01*
X105972993Y-57465925D01*
X106087007Y-57400099D01*
X106180099Y-57307007D01*
X106245925Y-57192993D01*
X106262962Y-57129408D01*
X106895270Y-57761717D01*
X106895270Y-57761716D01*
X106934622Y-57707554D01*
X107031095Y-57518217D01*
X107096757Y-57316130D01*
X107096757Y-57316127D01*
X107130000Y-57106246D01*
X107130000Y-56893753D01*
X107096757Y-56683872D01*
X107096757Y-56683869D01*
X107031095Y-56481782D01*
X106934624Y-56292449D01*
X106895270Y-56238282D01*
X106895269Y-56238282D01*
X106262962Y-56870590D01*
X106245925Y-56807007D01*
X106180099Y-56692993D01*
X106087007Y-56599901D01*
X105972993Y-56534075D01*
X105909409Y-56517037D01*
X106541716Y-55884728D01*
X106487550Y-55845375D01*
X106298217Y-55748904D01*
X106096129Y-55683242D01*
X105886246Y-55650000D01*
X105673754Y-55650000D01*
X105463872Y-55683242D01*
X105463869Y-55683242D01*
X105261782Y-55748904D01*
X105072439Y-55845380D01*
X105018282Y-55884727D01*
X105018282Y-55884728D01*
X105650591Y-56517037D01*
X105587007Y-56534075D01*
X105472993Y-56599901D01*
X105379901Y-56692993D01*
X105314075Y-56807007D01*
X105297037Y-56870591D01*
X104664728Y-56238282D01*
X104664727Y-56238282D01*
X104625380Y-56292439D01*
X104528904Y-56481782D01*
X104463242Y-56683869D01*
X104463242Y-56683872D01*
X104430000Y-56893753D01*
X104430000Y-57106246D01*
X104463242Y-57316127D01*
X104463242Y-57316130D01*
X104528904Y-57518217D01*
X104625375Y-57707550D01*
X104664728Y-57761716D01*
X105297037Y-57129408D01*
X105314075Y-57192993D01*
X105379901Y-57307007D01*
X105472993Y-57400099D01*
X105587007Y-57465925D01*
X105650590Y-57482962D01*
X105018282Y-58115269D01*
X105018282Y-58115270D01*
X105072452Y-58154626D01*
X105072451Y-58154626D01*
X105081495Y-58159234D01*
X105132292Y-58207208D01*
X105149087Y-58275029D01*
X105126550Y-58341164D01*
X105081499Y-58380202D01*
X105072182Y-58384949D01*
X104900213Y-58509890D01*
X104749890Y-58660213D01*
X104624951Y-58832179D01*
X104528444Y-59021585D01*
X104462753Y-59223760D01*
X104429500Y-59433713D01*
X100151190Y-59433713D01*
X100121789Y-59389711D01*
X100121786Y-59389707D01*
X100010292Y-59278213D01*
X100010288Y-59278210D01*
X99879185Y-59190609D01*
X99879172Y-59190602D01*
X99733501Y-59130264D01*
X99733489Y-59130261D01*
X99578845Y-59099500D01*
X99578842Y-59099500D01*
X99421158Y-59099500D01*
X99421155Y-59099500D01*
X99266510Y-59130261D01*
X99266498Y-59130264D01*
X99120827Y-59190602D01*
X99120814Y-59190609D01*
X98989711Y-59278210D01*
X98989707Y-59278213D01*
X98878213Y-59389707D01*
X98878210Y-59389711D01*
X98790609Y-59520814D01*
X98790602Y-59520827D01*
X98730264Y-59666498D01*
X98730261Y-59666510D01*
X98699500Y-59821153D01*
X95080499Y-59821153D01*
X95049738Y-59666510D01*
X95049737Y-59666503D01*
X95041363Y-59646286D01*
X94989397Y-59520827D01*
X94989390Y-59520814D01*
X94901789Y-59389711D01*
X94901786Y-59389707D01*
X94790292Y-59278213D01*
X94790288Y-59278210D01*
X94659185Y-59190609D01*
X94659172Y-59190602D01*
X94513501Y-59130264D01*
X94513489Y-59130261D01*
X94358845Y-59099500D01*
X94358842Y-59099500D01*
X94201158Y-59099500D01*
X94201155Y-59099500D01*
X94046510Y-59130261D01*
X94046498Y-59130264D01*
X93900827Y-59190602D01*
X93900814Y-59190609D01*
X93769711Y-59278210D01*
X93769707Y-59278213D01*
X93658213Y-59389707D01*
X93658210Y-59389711D01*
X93570609Y-59520814D01*
X93570602Y-59520827D01*
X93510264Y-59666498D01*
X93510261Y-59666510D01*
X93479500Y-59821153D01*
X89322804Y-59821153D01*
X89350500Y-59646287D01*
X89350500Y-59433713D01*
X89317246Y-59223757D01*
X89251557Y-59021588D01*
X89155051Y-58832184D01*
X89155049Y-58832181D01*
X89155048Y-58832179D01*
X89030109Y-58660213D01*
X88879786Y-58509890D01*
X88707817Y-58384949D01*
X88698504Y-58380204D01*
X88647707Y-58332230D01*
X88630912Y-58264409D01*
X88653449Y-58198274D01*
X88698507Y-58159232D01*
X88707555Y-58154622D01*
X88761716Y-58115270D01*
X88761717Y-58115270D01*
X88129408Y-57482962D01*
X88192993Y-57465925D01*
X88307007Y-57400099D01*
X88400099Y-57307007D01*
X88465925Y-57192993D01*
X88482962Y-57129408D01*
X89115270Y-57761717D01*
X89115270Y-57761716D01*
X89154622Y-57707554D01*
X89251095Y-57518217D01*
X89314618Y-57322713D01*
X92999500Y-57322713D01*
X92999500Y-57535286D01*
X93032735Y-57745127D01*
X93032754Y-57745243D01*
X93038106Y-57761716D01*
X93098444Y-57947414D01*
X93194951Y-58136820D01*
X93319890Y-58308786D01*
X93470213Y-58459109D01*
X93642179Y-58584048D01*
X93642181Y-58584049D01*
X93642184Y-58584051D01*
X93831588Y-58680557D01*
X94033757Y-58746246D01*
X94243713Y-58779500D01*
X94243714Y-58779500D01*
X94456286Y-58779500D01*
X94456287Y-58779500D01*
X94666243Y-58746246D01*
X94868412Y-58680557D01*
X95057816Y-58584051D01*
X95112572Y-58544269D01*
X95229786Y-58459109D01*
X95229788Y-58459106D01*
X95229792Y-58459104D01*
X95380104Y-58308792D01*
X95380106Y-58308788D01*
X95380109Y-58308786D01*
X95505048Y-58136820D01*
X95505047Y-58136820D01*
X95505051Y-58136816D01*
X95509514Y-58128054D01*
X95557488Y-58077259D01*
X95625308Y-58060463D01*
X95691444Y-58082999D01*
X95730486Y-58128056D01*
X95734951Y-58136820D01*
X95859890Y-58308786D01*
X96010213Y-58459109D01*
X96182179Y-58584048D01*
X96182181Y-58584049D01*
X96182184Y-58584051D01*
X96371588Y-58680557D01*
X96573757Y-58746246D01*
X96783713Y-58779500D01*
X96783714Y-58779500D01*
X96996286Y-58779500D01*
X96996287Y-58779500D01*
X97206243Y-58746246D01*
X97408412Y-58680557D01*
X97597816Y-58584051D01*
X97652572Y-58544269D01*
X97769786Y-58459109D01*
X97769788Y-58459106D01*
X97769792Y-58459104D01*
X97920104Y-58308792D01*
X97920106Y-58308788D01*
X97920109Y-58308786D01*
X98005890Y-58190717D01*
X98045051Y-58136816D01*
X98049793Y-58127508D01*
X98097763Y-58076711D01*
X98165583Y-58059911D01*
X98231719Y-58082445D01*
X98270763Y-58127500D01*
X98275373Y-58136547D01*
X98314728Y-58190716D01*
X98947037Y-57558408D01*
X98964075Y-57621993D01*
X99029901Y-57736007D01*
X99122993Y-57829099D01*
X99237007Y-57894925D01*
X99300590Y-57911962D01*
X98668282Y-58544269D01*
X98668282Y-58544270D01*
X98722449Y-58583624D01*
X98911782Y-58680095D01*
X99113870Y-58745757D01*
X99323754Y-58779000D01*
X99536246Y-58779000D01*
X99746127Y-58745757D01*
X99746130Y-58745757D01*
X99948217Y-58680095D01*
X100137554Y-58583622D01*
X100191716Y-58544270D01*
X100191717Y-58544270D01*
X99559408Y-57911962D01*
X99622993Y-57894925D01*
X99737007Y-57829099D01*
X99830099Y-57736007D01*
X99895925Y-57621993D01*
X99912962Y-57558409D01*
X100545270Y-58190717D01*
X100545270Y-58190716D01*
X100584622Y-58136554D01*
X100681095Y-57947217D01*
X100746757Y-57745130D01*
X100746757Y-57745127D01*
X100780000Y-57535246D01*
X100780000Y-57322753D01*
X100746757Y-57112872D01*
X100746757Y-57112869D01*
X100686429Y-56927199D01*
X100686428Y-56927198D01*
X100686428Y-56927196D01*
X100681095Y-56910782D01*
X100584624Y-56721449D01*
X100545270Y-56667282D01*
X100545269Y-56667282D01*
X99912962Y-57299590D01*
X99895925Y-57236007D01*
X99830099Y-57121993D01*
X99737007Y-57028901D01*
X99622993Y-56963075D01*
X99559409Y-56946037D01*
X100191716Y-56313728D01*
X100137550Y-56274375D01*
X99948217Y-56177904D01*
X99746129Y-56112242D01*
X99536246Y-56079000D01*
X99323754Y-56079000D01*
X99113872Y-56112242D01*
X99113869Y-56112242D01*
X98911782Y-56177904D01*
X98722439Y-56274380D01*
X98668282Y-56313727D01*
X98668282Y-56313728D01*
X99300591Y-56946037D01*
X99237007Y-56963075D01*
X99122993Y-57028901D01*
X99029901Y-57121993D01*
X98964075Y-57236007D01*
X98947037Y-57299591D01*
X98314728Y-56667282D01*
X98314727Y-56667282D01*
X98275380Y-56721440D01*
X98275376Y-56721446D01*
X98270760Y-56730505D01*
X98222781Y-56781297D01*
X98154959Y-56798087D01*
X98088826Y-56775543D01*
X98049794Y-56730493D01*
X98045051Y-56721184D01*
X98045049Y-56721181D01*
X98045048Y-56721179D01*
X97920109Y-56549213D01*
X97769786Y-56398890D01*
X97597820Y-56273951D01*
X97408414Y-56177444D01*
X97408413Y-56177443D01*
X97408412Y-56177443D01*
X97206243Y-56111754D01*
X97206241Y-56111753D01*
X97206240Y-56111753D01*
X97044957Y-56086208D01*
X96996287Y-56078500D01*
X96783713Y-56078500D01*
X96735042Y-56086208D01*
X96573760Y-56111753D01*
X96371585Y-56177444D01*
X96182179Y-56273951D01*
X96010213Y-56398890D01*
X95859890Y-56549213D01*
X95734949Y-56721182D01*
X95730484Y-56729946D01*
X95682509Y-56780742D01*
X95614688Y-56797536D01*
X95548553Y-56774998D01*
X95509516Y-56729946D01*
X95505050Y-56721182D01*
X95380109Y-56549213D01*
X95229786Y-56398890D01*
X95057820Y-56273951D01*
X94868414Y-56177444D01*
X94868413Y-56177443D01*
X94868412Y-56177443D01*
X94666243Y-56111754D01*
X94666241Y-56111753D01*
X94666240Y-56111753D01*
X94504957Y-56086208D01*
X94456287Y-56078500D01*
X94243713Y-56078500D01*
X94195042Y-56086208D01*
X94033760Y-56111753D01*
X93831585Y-56177444D01*
X93642179Y-56273951D01*
X93470213Y-56398890D01*
X93319890Y-56549213D01*
X93194951Y-56721179D01*
X93098444Y-56910585D01*
X93032753Y-57112760D01*
X92999500Y-57322713D01*
X89314618Y-57322713D01*
X89316757Y-57316130D01*
X89316757Y-57316129D01*
X89319559Y-57298442D01*
X89319559Y-57298441D01*
X89350000Y-57106246D01*
X89350000Y-56893753D01*
X89316757Y-56683872D01*
X89316757Y-56683869D01*
X89251095Y-56481782D01*
X89154624Y-56292449D01*
X89115270Y-56238282D01*
X89115269Y-56238282D01*
X88482962Y-56870590D01*
X88465925Y-56807007D01*
X88400099Y-56692993D01*
X88307007Y-56599901D01*
X88192993Y-56534075D01*
X88129409Y-56517037D01*
X88761716Y-55884728D01*
X88707550Y-55845375D01*
X88518217Y-55748904D01*
X88316129Y-55683242D01*
X88106246Y-55650000D01*
X87893754Y-55650000D01*
X87683872Y-55683242D01*
X87683869Y-55683242D01*
X87481782Y-55748904D01*
X87292439Y-55845380D01*
X87238282Y-55884727D01*
X87238282Y-55884728D01*
X87870591Y-56517037D01*
X87807007Y-56534075D01*
X87692993Y-56599901D01*
X87599901Y-56692993D01*
X87534075Y-56807007D01*
X87517037Y-56870591D01*
X86884728Y-56238282D01*
X86884727Y-56238282D01*
X86845380Y-56292439D01*
X86748904Y-56481782D01*
X86683242Y-56683869D01*
X86683242Y-56683872D01*
X86650000Y-56893753D01*
X86650000Y-57106246D01*
X86683242Y-57316127D01*
X86683242Y-57316130D01*
X86748904Y-57518217D01*
X86845375Y-57707550D01*
X86884728Y-57761716D01*
X87517037Y-57129408D01*
X87534075Y-57192993D01*
X87599901Y-57307007D01*
X87692993Y-57400099D01*
X87807007Y-57465925D01*
X87870590Y-57482962D01*
X87238282Y-58115269D01*
X87238282Y-58115270D01*
X87292452Y-58154626D01*
X87292451Y-58154626D01*
X87301495Y-58159234D01*
X87352292Y-58207208D01*
X87369087Y-58275029D01*
X87346550Y-58341164D01*
X87301499Y-58380202D01*
X87292182Y-58384949D01*
X87120213Y-58509890D01*
X86969890Y-58660213D01*
X86844951Y-58832179D01*
X86748444Y-59021585D01*
X86682753Y-59223760D01*
X86649500Y-59433713D01*
X85890500Y-59433713D01*
X85890500Y-53314153D01*
X92930500Y-53314153D01*
X92930500Y-53471846D01*
X92961261Y-53626489D01*
X92961264Y-53626501D01*
X93021602Y-53772172D01*
X93021609Y-53772185D01*
X93109210Y-53903288D01*
X93109213Y-53903292D01*
X93220707Y-54014786D01*
X93220711Y-54014789D01*
X93351814Y-54102390D01*
X93351827Y-54102397D01*
X93497498Y-54162735D01*
X93497503Y-54162737D01*
X93652153Y-54193499D01*
X93652156Y-54193500D01*
X93652158Y-54193500D01*
X93809844Y-54193500D01*
X93809845Y-54193499D01*
X93964497Y-54162737D01*
X94110179Y-54102394D01*
X94241289Y-54014789D01*
X94352789Y-53903289D01*
X94440394Y-53772179D01*
X94500737Y-53626497D01*
X94531500Y-53471842D01*
X94531500Y-53314158D01*
X94531500Y-53314155D01*
X94531499Y-53314153D01*
X94500738Y-53159510D01*
X94500737Y-53159503D01*
X94498336Y-53153707D01*
X94440397Y-53013827D01*
X94440390Y-53013814D01*
X94352789Y-52882711D01*
X94352786Y-52882707D01*
X94241292Y-52771213D01*
X94241288Y-52771210D01*
X94110185Y-52683609D01*
X94110172Y-52683602D01*
X93964501Y-52623264D01*
X93964489Y-52623261D01*
X93809845Y-52592500D01*
X93809842Y-52592500D01*
X93652158Y-52592500D01*
X93652155Y-52592500D01*
X93497510Y-52623261D01*
X93497498Y-52623264D01*
X93351827Y-52683602D01*
X93351814Y-52683609D01*
X93220711Y-52771210D01*
X93220707Y-52771213D01*
X93109213Y-52882707D01*
X93109210Y-52882711D01*
X93021609Y-53013814D01*
X93021602Y-53013827D01*
X92961264Y-53159498D01*
X92961261Y-53159510D01*
X92930500Y-53314153D01*
X85890500Y-53314153D01*
X85890500Y-51982961D01*
X85891280Y-51969077D01*
X85891280Y-51969076D01*
X85901460Y-51878729D01*
X85907635Y-51851670D01*
X85935353Y-51772456D01*
X85947396Y-51747450D01*
X85992046Y-51676389D01*
X86009351Y-51654690D01*
X86068690Y-51595351D01*
X86090389Y-51578046D01*
X86161450Y-51533396D01*
X86186456Y-51521353D01*
X86265670Y-51493635D01*
X86292733Y-51487459D01*
X86355814Y-51480352D01*
X86383079Y-51477280D01*
X86396962Y-51476500D01*
X86455892Y-51476500D01*
X100748463Y-51476500D01*
X100815502Y-51496185D01*
G37*
%TD.AperFunction*%
%TD*%
M02*
