%TF.GenerationSoftware,KiCad,Pcbnew,9.0.5*%
%TF.CreationDate,2025-12-03T12:23:34+01:00*%
%TF.ProjectId,stm32f030f4p6-board,73746d33-3266-4303-9330-663470362d62,rev?*%
%TF.SameCoordinates,Original*%
%TF.FileFunction,Copper,L4,Bot*%
%TF.FilePolarity,Positive*%
%FSLAX46Y46*%
G04 Gerber Fmt 4.6, Leading zero omitted, Abs format (unit mm)*
G04 Created by KiCad (PCBNEW 9.0.5) date 2025-12-03 12:23:34*
%MOMM*%
%LPD*%
G01*
G04 APERTURE LIST*
%TA.AperFunction,ComponentPad*%
%ADD10C,1.700000*%
%TD*%
%TA.AperFunction,ViaPad*%
%ADD11C,0.600000*%
%TD*%
%TA.AperFunction,ViaPad*%
%ADD12C,0.800000*%
%TD*%
%TA.AperFunction,Conductor*%
%ADD13C,0.300000*%
%TD*%
G04 APERTURE END LIST*
D10*
%TO.P,J2,1,Pin_1*%
%TO.N,+3.3V*%
X99430000Y-57429000D03*
%TO.P,J2,2,Pin_2*%
%TO.N,/boot0*%
X96890000Y-57429000D03*
%TO.P,J2,3,Pin_3*%
%TO.N,unconnected-(J2-Pin_3-Pad3)*%
X94350000Y-57429000D03*
%TD*%
%TO.P,J1,1,Pin_1*%
%TO.N,+3.3V*%
X100700000Y-76252000D03*
%TO.P,J1,2,Pin_2*%
%TO.N,/SWDIO*%
X98160000Y-76252000D03*
%TO.P,J1,3,Pin_3*%
%TO.N,/SWCLK*%
X95620000Y-76252000D03*
%TO.P,J1,4,Pin_4*%
%TO.N,GND*%
X93080000Y-76252000D03*
%TD*%
%TO.P,J3,1,Pin_1*%
%TO.N,+3.3V*%
X105780000Y-57000000D03*
%TO.P,J3,2,Pin_2*%
%TO.N,GND*%
X105780000Y-59540000D03*
%TO.P,J3,3,Pin_3*%
%TO.N,/PA10*%
X105780000Y-62080000D03*
%TO.P,J3,4,Pin_4*%
%TO.N,/PA9*%
X105780000Y-64620000D03*
%TO.P,J3,5,Pin_5*%
%TO.N,/PB1*%
X105780000Y-67160000D03*
%TO.P,J3,6,Pin_6*%
%TO.N,/PA7*%
X105780000Y-69700000D03*
%TO.P,J3,7,Pin_7*%
%TO.N,/PA6*%
X105780000Y-72240000D03*
%TD*%
%TO.P,J5,1,Pin_1*%
%TO.N,+3.3V*%
X88000000Y-57000000D03*
%TO.P,J5,2,Pin_2*%
%TO.N,GND*%
X88000000Y-59540000D03*
%TO.P,J5,3,Pin_3*%
%TO.N,/PA0*%
X88000000Y-62080000D03*
%TO.P,J5,4,Pin_4*%
%TO.N,/PA1*%
X88000000Y-64620000D03*
%TO.P,J5,5,Pin_5*%
%TO.N,/PA2*%
X88000000Y-67160000D03*
%TO.P,J5,6,Pin_6*%
%TO.N,/PA3*%
X88000000Y-69700000D03*
%TO.P,J5,7,Pin_7*%
%TO.N,/PA4*%
X88000000Y-72240000D03*
%TD*%
D11*
%TO.N,GND*%
X99500000Y-59900000D03*
X104880000Y-78098000D03*
D12*
X103250000Y-73452000D03*
D11*
X93731000Y-53393000D03*
X88900000Y-78098000D03*
X92560000Y-64307000D03*
X90839000Y-68681000D03*
X94280000Y-59900000D03*
X101582000Y-52004000D03*
X101998000Y-69486000D03*
%TO.N,+3.3V*%
X92499000Y-67981000D03*
X101998000Y-68526000D03*
X88700000Y-74222000D03*
X100514000Y-51944000D03*
%TO.N,/nrst*%
X95194000Y-68031000D03*
X102282000Y-53664000D03*
%TO.N,/boot0*%
X93580000Y-64307000D03*
%TO.N,/PA0*%
X95194000Y-69331000D03*
%TO.N,/PB1*%
X98442000Y-69981000D03*
%TO.N,/PA9*%
X98442000Y-68031000D03*
%TD*%
D13*
%TO.N,/nrst*%
X102282000Y-53664000D02*
X102282000Y-60943000D01*
X102282000Y-60943000D02*
X95194000Y-68031000D01*
%TO.N,/boot0*%
X93580000Y-64307000D02*
X96890000Y-60997000D01*
X96890000Y-60997000D02*
X96890000Y-57429000D01*
%TO.N,/PA0*%
X95194000Y-69274000D02*
X88000000Y-62080000D01*
X95194000Y-69331000D02*
X95194000Y-69274000D01*
%TO.N,/PB1*%
X101263000Y-67160000D02*
X105780000Y-67160000D01*
X98442000Y-69981000D02*
X101263000Y-67160000D01*
%TO.N,/PA9*%
X98442000Y-68031000D02*
X101853000Y-64620000D01*
X101853000Y-64620000D02*
X105780000Y-64620000D01*
%TD*%
M02*
