%TF.GenerationSoftware,KiCad,Pcbnew,9.0.5*%
%TF.CreationDate,2025-12-03T12:23:34+01:00*%
%TF.ProjectId,stm32f030f4p6-board,73746d33-3266-4303-9330-663470362d62,rev?*%
%TF.SameCoordinates,Original*%
%TF.FileFunction,Copper,L2,Inr*%
%TF.FilePolarity,Positive*%
%FSLAX46Y46*%
G04 Gerber Fmt 4.6, Leading zero omitted, Abs format (unit mm)*
G04 Created by KiCad (PCBNEW 9.0.5) date 2025-12-03 12:23:34*
%MOMM*%
%LPD*%
G01*
G04 APERTURE LIST*
%TA.AperFunction,ComponentPad*%
%ADD10C,1.700000*%
%TD*%
%TA.AperFunction,ViaPad*%
%ADD11C,0.600000*%
%TD*%
%TA.AperFunction,ViaPad*%
%ADD12C,0.800000*%
%TD*%
G04 APERTURE END LIST*
D10*
%TO.N,+3.3V*%
%TO.C,J2*%
X99430000Y-57429000D03*
%TO.N,/boot0*%
X96890000Y-57429000D03*
%TO.N,unconnected-(J2-Pin_3-Pad3)*%
X94350000Y-57429000D03*
%TD*%
%TO.N,+3.3V*%
%TO.C,J1*%
X100700000Y-76252000D03*
%TO.N,/SWDIO*%
X98160000Y-76252000D03*
%TO.N,/SWCLK*%
X95620000Y-76252000D03*
%TO.N,GND*%
X93080000Y-76252000D03*
%TD*%
%TO.N,+3.3V*%
%TO.C,J3*%
X105780000Y-57000000D03*
%TO.N,GND*%
X105780000Y-59540000D03*
%TO.N,/PA10*%
X105780000Y-62080000D03*
%TO.N,/PA9*%
X105780000Y-64620000D03*
%TO.N,/PB1*%
X105780000Y-67160000D03*
%TO.N,/PA7*%
X105780000Y-69700000D03*
%TO.N,/PA6*%
X105780000Y-72240000D03*
%TD*%
%TO.N,+3.3V*%
%TO.C,J5*%
X88000000Y-57000000D03*
%TO.N,GND*%
X88000000Y-59540000D03*
%TO.N,/PA0*%
X88000000Y-62080000D03*
%TO.N,/PA1*%
X88000000Y-64620000D03*
%TO.N,/PA2*%
X88000000Y-67160000D03*
%TO.N,/PA3*%
X88000000Y-69700000D03*
%TO.N,/PA4*%
X88000000Y-72240000D03*
%TD*%
D11*
%TO.N,GND*%
X99500000Y-59900000D03*
X104880000Y-78098000D03*
D12*
X103250000Y-73452000D03*
D11*
X93731000Y-53393000D03*
X88900000Y-78098000D03*
X92560000Y-64307000D03*
X90839000Y-68681000D03*
X94280000Y-59900000D03*
X101582000Y-52004000D03*
X101998000Y-69486000D03*
%TO.N,+3.3V*%
X92499000Y-67981000D03*
X101998000Y-68526000D03*
X88700000Y-74222000D03*
X100514000Y-51944000D03*
%TO.N,/nrst*%
X95194000Y-68031000D03*
X102282000Y-53664000D03*
%TO.N,/boot0*%
X93580000Y-64307000D03*
%TO.N,/PA0*%
X95194000Y-69331000D03*
%TO.N,/PB1*%
X98442000Y-69981000D03*
%TO.N,/PA9*%
X98442000Y-68031000D03*
%TD*%
%TA.AperFunction,Conductor*%
%TO.N,GND*%
G36*
X99722650Y-51496185D02*
G01*
X99768405Y-51548989D01*
X99778349Y-51618147D01*
X99770172Y-51647952D01*
X99744264Y-51710498D01*
X99744261Y-51710510D01*
X99713500Y-51865153D01*
X99713500Y-52022846D01*
X99744261Y-52177489D01*
X99744264Y-52177501D01*
X99804602Y-52323172D01*
X99804609Y-52323185D01*
X99892210Y-52454288D01*
X99892213Y-52454292D01*
X100003707Y-52565786D01*
X100003711Y-52565789D01*
X100134814Y-52653390D01*
X100134827Y-52653397D01*
X100280498Y-52713735D01*
X100280503Y-52713737D01*
X100435153Y-52744499D01*
X100435156Y-52744500D01*
X100435158Y-52744500D01*
X100592844Y-52744500D01*
X100592845Y-52744499D01*
X100747497Y-52713737D01*
X100893179Y-52653394D01*
X101024289Y-52565789D01*
X101135789Y-52454289D01*
X101223394Y-52323179D01*
X101283737Y-52177497D01*
X101314500Y-52022842D01*
X101314500Y-51865158D01*
X101314500Y-51865155D01*
X101314499Y-51865153D01*
X101283738Y-51710510D01*
X101283737Y-51710503D01*
X101257828Y-51647952D01*
X101250359Y-51578483D01*
X101281634Y-51516004D01*
X101341723Y-51480352D01*
X101372389Y-51476500D01*
X107324108Y-51476500D01*
X107383038Y-51476500D01*
X107396922Y-51477280D01*
X107487266Y-51487459D01*
X107514331Y-51493636D01*
X107593540Y-51521352D01*
X107618553Y-51533398D01*
X107689606Y-51578043D01*
X107711313Y-51595355D01*
X107770644Y-51654686D01*
X107787957Y-51676395D01*
X107832600Y-51747444D01*
X107844648Y-51772462D01*
X107872362Y-51851666D01*
X107878540Y-51878735D01*
X107888720Y-51969076D01*
X107889500Y-51982961D01*
X107889500Y-79469038D01*
X107888720Y-79482922D01*
X107888720Y-79482923D01*
X107878540Y-79573264D01*
X107872362Y-79600333D01*
X107844648Y-79679537D01*
X107832600Y-79704555D01*
X107787957Y-79775604D01*
X107770644Y-79797313D01*
X107711313Y-79856644D01*
X107689604Y-79873957D01*
X107618555Y-79918600D01*
X107593537Y-79930648D01*
X107514333Y-79958362D01*
X107487264Y-79964540D01*
X107407075Y-79973576D01*
X107396921Y-79974720D01*
X107383038Y-79975500D01*
X86396962Y-79975500D01*
X86383078Y-79974720D01*
X86370553Y-79973308D01*
X86292735Y-79964540D01*
X86265666Y-79958362D01*
X86186462Y-79930648D01*
X86161444Y-79918600D01*
X86090395Y-79873957D01*
X86068686Y-79856644D01*
X86009355Y-79797313D01*
X85992042Y-79775604D01*
X85947399Y-79704555D01*
X85935351Y-79679537D01*
X85907637Y-79600333D01*
X85901459Y-79573263D01*
X85891280Y-79482922D01*
X85890500Y-79469038D01*
X85890500Y-76145753D01*
X91730000Y-76145753D01*
X91730000Y-76358246D01*
X91763242Y-76568127D01*
X91763242Y-76568130D01*
X91828904Y-76770217D01*
X91925375Y-76959550D01*
X91964728Y-77013716D01*
X92597037Y-76381408D01*
X92614075Y-76444993D01*
X92679901Y-76559007D01*
X92772993Y-76652099D01*
X92887007Y-76717925D01*
X92950590Y-76734962D01*
X92318282Y-77367269D01*
X92318282Y-77367270D01*
X92372449Y-77406624D01*
X92561782Y-77503095D01*
X92763870Y-77568757D01*
X92973754Y-77602000D01*
X93186246Y-77602000D01*
X93396127Y-77568757D01*
X93396130Y-77568757D01*
X93598217Y-77503095D01*
X93787554Y-77406622D01*
X93841716Y-77367270D01*
X93841717Y-77367270D01*
X93209408Y-76734962D01*
X93272993Y-76717925D01*
X93387007Y-76652099D01*
X93480099Y-76559007D01*
X93545925Y-76444993D01*
X93562962Y-76381408D01*
X94195270Y-77013717D01*
X94195270Y-77013716D01*
X94234622Y-76959555D01*
X94239232Y-76950507D01*
X94287205Y-76899709D01*
X94355025Y-76882912D01*
X94421161Y-76905447D01*
X94460204Y-76950504D01*
X94464949Y-76959817D01*
X94589890Y-77131786D01*
X94740213Y-77282109D01*
X94912179Y-77407048D01*
X94912181Y-77407049D01*
X94912184Y-77407051D01*
X95101588Y-77503557D01*
X95303757Y-77569246D01*
X95513713Y-77602500D01*
X95513714Y-77602500D01*
X95726286Y-77602500D01*
X95726287Y-77602500D01*
X95936243Y-77569246D01*
X96138412Y-77503557D01*
X96327816Y-77407051D01*
X96382572Y-77367269D01*
X96499786Y-77282109D01*
X96499788Y-77282106D01*
X96499792Y-77282104D01*
X96650104Y-77131792D01*
X96650106Y-77131788D01*
X96650109Y-77131786D01*
X96775048Y-76959820D01*
X96775050Y-76959817D01*
X96775051Y-76959816D01*
X96779514Y-76951054D01*
X96827488Y-76900259D01*
X96895308Y-76883463D01*
X96961444Y-76905999D01*
X97000486Y-76951056D01*
X97004951Y-76959820D01*
X97129890Y-77131786D01*
X97280213Y-77282109D01*
X97452179Y-77407048D01*
X97452181Y-77407049D01*
X97452184Y-77407051D01*
X97641588Y-77503557D01*
X97843757Y-77569246D01*
X98053713Y-77602500D01*
X98053714Y-77602500D01*
X98266286Y-77602500D01*
X98266287Y-77602500D01*
X98476243Y-77569246D01*
X98678412Y-77503557D01*
X98867816Y-77407051D01*
X98922572Y-77367269D01*
X99039786Y-77282109D01*
X99039788Y-77282106D01*
X99039792Y-77282104D01*
X99190104Y-77131792D01*
X99190106Y-77131788D01*
X99190109Y-77131786D01*
X99315048Y-76959820D01*
X99315050Y-76959817D01*
X99315051Y-76959816D01*
X99319514Y-76951054D01*
X99367488Y-76900259D01*
X99435308Y-76883463D01*
X99501444Y-76905999D01*
X99540486Y-76951056D01*
X99544951Y-76959820D01*
X99669890Y-77131786D01*
X99820213Y-77282109D01*
X99992179Y-77407048D01*
X99992181Y-77407049D01*
X99992184Y-77407051D01*
X100181588Y-77503557D01*
X100383757Y-77569246D01*
X100593713Y-77602500D01*
X100593714Y-77602500D01*
X100806286Y-77602500D01*
X100806287Y-77602500D01*
X101016243Y-77569246D01*
X101218412Y-77503557D01*
X101407816Y-77407051D01*
X101462572Y-77367269D01*
X101579786Y-77282109D01*
X101579788Y-77282106D01*
X101579792Y-77282104D01*
X101730104Y-77131792D01*
X101730106Y-77131788D01*
X101730109Y-77131786D01*
X101855048Y-76959820D01*
X101855050Y-76959817D01*
X101855051Y-76959816D01*
X101951557Y-76770412D01*
X102017246Y-76568243D01*
X102050500Y-76358287D01*
X102050500Y-76145713D01*
X102017246Y-75935757D01*
X101951557Y-75733588D01*
X101855051Y-75544184D01*
X101855049Y-75544181D01*
X101855048Y-75544179D01*
X101730109Y-75372213D01*
X101579786Y-75221890D01*
X101407820Y-75096951D01*
X101218414Y-75000444D01*
X101218413Y-75000443D01*
X101218412Y-75000443D01*
X101016243Y-74934754D01*
X101016241Y-74934753D01*
X101016240Y-74934753D01*
X100854957Y-74909208D01*
X100806287Y-74901500D01*
X100593713Y-74901500D01*
X100545042Y-74909208D01*
X100383760Y-74934753D01*
X100181585Y-75000444D01*
X99992179Y-75096951D01*
X99820213Y-75221890D01*
X99669890Y-75372213D01*
X99544949Y-75544182D01*
X99540484Y-75552946D01*
X99492509Y-75603742D01*
X99424688Y-75620536D01*
X99358553Y-75597998D01*
X99319516Y-75552946D01*
X99315050Y-75544182D01*
X99190109Y-75372213D01*
X99039786Y-75221890D01*
X98867820Y-75096951D01*
X98678414Y-75000444D01*
X98678413Y-75000443D01*
X98678412Y-75000443D01*
X98476243Y-74934754D01*
X98476241Y-74934753D01*
X98476240Y-74934753D01*
X98314957Y-74909208D01*
X98266287Y-74901500D01*
X98053713Y-74901500D01*
X98005042Y-74909208D01*
X97843760Y-74934753D01*
X97641585Y-75000444D01*
X97452179Y-75096951D01*
X97280213Y-75221890D01*
X97129890Y-75372213D01*
X97004949Y-75544182D01*
X97000484Y-75552946D01*
X96952509Y-75603742D01*
X96884688Y-75620536D01*
X96818553Y-75597998D01*
X96779516Y-75552946D01*
X96775050Y-75544182D01*
X96650109Y-75372213D01*
X96499786Y-75221890D01*
X96327820Y-75096951D01*
X96138414Y-75000444D01*
X96138413Y-75000443D01*
X96138412Y-75000443D01*
X95936243Y-74934754D01*
X95936241Y-74934753D01*
X95936240Y-74934753D01*
X95774957Y-74909208D01*
X95726287Y-74901500D01*
X95513713Y-74901500D01*
X95465042Y-74909208D01*
X95303760Y-74934753D01*
X95101585Y-75000444D01*
X94912179Y-75096951D01*
X94740213Y-75221890D01*
X94589890Y-75372213D01*
X94464949Y-75544182D01*
X94460202Y-75553499D01*
X94412227Y-75604293D01*
X94344405Y-75621087D01*
X94278271Y-75598548D01*
X94239234Y-75553495D01*
X94234626Y-75544452D01*
X94195270Y-75490282D01*
X94195269Y-75490282D01*
X93562962Y-76122590D01*
X93545925Y-76059007D01*
X93480099Y-75944993D01*
X93387007Y-75851901D01*
X93272993Y-75786075D01*
X93209409Y-75769037D01*
X93841716Y-75136728D01*
X93787550Y-75097375D01*
X93598217Y-75000904D01*
X93396129Y-74935242D01*
X93186246Y-74902000D01*
X92973754Y-74902000D01*
X92763872Y-74935242D01*
X92763869Y-74935242D01*
X92561782Y-75000904D01*
X92372439Y-75097380D01*
X92318282Y-75136727D01*
X92318282Y-75136728D01*
X92950591Y-75769037D01*
X92887007Y-75786075D01*
X92772993Y-75851901D01*
X92679901Y-75944993D01*
X92614075Y-76059007D01*
X92597037Y-76122591D01*
X91964728Y-75490282D01*
X91964727Y-75490282D01*
X91925380Y-75544439D01*
X91828904Y-75733782D01*
X91763242Y-75935869D01*
X91763242Y-75935872D01*
X91730000Y-76145753D01*
X85890500Y-76145753D01*
X85890500Y-56893713D01*
X86649500Y-56893713D01*
X86649500Y-57106286D01*
X86679934Y-57298442D01*
X86682754Y-57316243D01*
X86684856Y-57322713D01*
X86748444Y-57518414D01*
X86844951Y-57707820D01*
X86969890Y-57879786D01*
X87120213Y-58030109D01*
X87292179Y-58155048D01*
X87292181Y-58155049D01*
X87292184Y-58155051D01*
X87301493Y-58159794D01*
X87352290Y-58207766D01*
X87369087Y-58275587D01*
X87346552Y-58341722D01*
X87301505Y-58380760D01*
X87292446Y-58385376D01*
X87292440Y-58385380D01*
X87238282Y-58424727D01*
X87238282Y-58424728D01*
X87870591Y-59057037D01*
X87807007Y-59074075D01*
X87692993Y-59139901D01*
X87599901Y-59232993D01*
X87534075Y-59347007D01*
X87517037Y-59410591D01*
X86884728Y-58778282D01*
X86884727Y-58778282D01*
X86845380Y-58832439D01*
X86748904Y-59021782D01*
X86683242Y-59223869D01*
X86683242Y-59223872D01*
X86650000Y-59433753D01*
X86650000Y-59646246D01*
X86683242Y-59856127D01*
X86683242Y-59856130D01*
X86748904Y-60058217D01*
X86845375Y-60247550D01*
X86884728Y-60301716D01*
X87517037Y-59669408D01*
X87534075Y-59732993D01*
X87599901Y-59847007D01*
X87692993Y-59940099D01*
X87807007Y-60005925D01*
X87870590Y-60022962D01*
X87238282Y-60655269D01*
X87238282Y-60655270D01*
X87292452Y-60694626D01*
X87292451Y-60694626D01*
X87301495Y-60699234D01*
X87352292Y-60747208D01*
X87369087Y-60815029D01*
X87346550Y-60881164D01*
X87301499Y-60920202D01*
X87292182Y-60924949D01*
X87120213Y-61049890D01*
X86969890Y-61200213D01*
X86844951Y-61372179D01*
X86748444Y-61561585D01*
X86682753Y-61763760D01*
X86649500Y-61973713D01*
X86649500Y-62186286D01*
X86682753Y-62396239D01*
X86748444Y-62598414D01*
X86844951Y-62787820D01*
X86969890Y-62959786D01*
X87120213Y-63110109D01*
X87292182Y-63235050D01*
X87300946Y-63239516D01*
X87351742Y-63287491D01*
X87368536Y-63355312D01*
X87345998Y-63421447D01*
X87300946Y-63460484D01*
X87292182Y-63464949D01*
X87120213Y-63589890D01*
X86969890Y-63740213D01*
X86844951Y-63912179D01*
X86748444Y-64101585D01*
X86682753Y-64303760D01*
X86669752Y-64385846D01*
X86649500Y-64513713D01*
X86649500Y-64726287D01*
X86682754Y-64936243D01*
X86728403Y-65076737D01*
X86748444Y-65138414D01*
X86844951Y-65327820D01*
X86969890Y-65499786D01*
X87120213Y-65650109D01*
X87292182Y-65775050D01*
X87300946Y-65779516D01*
X87351742Y-65827491D01*
X87368536Y-65895312D01*
X87345998Y-65961447D01*
X87300946Y-66000484D01*
X87292182Y-66004949D01*
X87120213Y-66129890D01*
X86969890Y-66280213D01*
X86844951Y-66452179D01*
X86748444Y-66641585D01*
X86682753Y-66843760D01*
X86649500Y-67053713D01*
X86649500Y-67266287D01*
X86650343Y-67271609D01*
X86681877Y-67470711D01*
X86682754Y-67476243D01*
X86697201Y-67520707D01*
X86748444Y-67678414D01*
X86844951Y-67867820D01*
X86969890Y-68039786D01*
X87120213Y-68190109D01*
X87292182Y-68315050D01*
X87300946Y-68319516D01*
X87351742Y-68367491D01*
X87368536Y-68435312D01*
X87345998Y-68501447D01*
X87300946Y-68540484D01*
X87292182Y-68544949D01*
X87120213Y-68669890D01*
X86969890Y-68820213D01*
X86844951Y-68992179D01*
X86748444Y-69181585D01*
X86682753Y-69383760D01*
X86654129Y-69564489D01*
X86649500Y-69593713D01*
X86649500Y-69806287D01*
X86682754Y-70016243D01*
X86747172Y-70214501D01*
X86748444Y-70218414D01*
X86844951Y-70407820D01*
X86969890Y-70579786D01*
X87120213Y-70730109D01*
X87292182Y-70855050D01*
X87300946Y-70859516D01*
X87351742Y-70907491D01*
X87368536Y-70975312D01*
X87345998Y-71041447D01*
X87300946Y-71080484D01*
X87292182Y-71084949D01*
X87120213Y-71209890D01*
X86969890Y-71360213D01*
X86844951Y-71532179D01*
X86748444Y-71721585D01*
X86682753Y-71923760D01*
X86649500Y-72133713D01*
X86649500Y-72346286D01*
X86682753Y-72556239D01*
X86748444Y-72758414D01*
X86844951Y-72947820D01*
X86969890Y-73119786D01*
X87120213Y-73270109D01*
X87292179Y-73395048D01*
X87292181Y-73395049D01*
X87292184Y-73395051D01*
X87481588Y-73491557D01*
X87683757Y-73557246D01*
X87893713Y-73590500D01*
X87893714Y-73590500D01*
X87927213Y-73590500D01*
X87994252Y-73610185D01*
X88040007Y-73662989D01*
X88049951Y-73732147D01*
X88030315Y-73783391D01*
X87990609Y-73842814D01*
X87990602Y-73842827D01*
X87930264Y-73988498D01*
X87930261Y-73988510D01*
X87899500Y-74143153D01*
X87899500Y-74300846D01*
X87930261Y-74455489D01*
X87930264Y-74455501D01*
X87990602Y-74601172D01*
X87990609Y-74601185D01*
X88078210Y-74732288D01*
X88078213Y-74732292D01*
X88189707Y-74843786D01*
X88189711Y-74843789D01*
X88320814Y-74931390D01*
X88320827Y-74931397D01*
X88466498Y-74991735D01*
X88466503Y-74991737D01*
X88621153Y-75022499D01*
X88621156Y-75022500D01*
X88621158Y-75022500D01*
X88778844Y-75022500D01*
X88778845Y-75022499D01*
X88933497Y-74991737D01*
X89079179Y-74931394D01*
X89210289Y-74843789D01*
X89321789Y-74732289D01*
X89409394Y-74601179D01*
X89469737Y-74455497D01*
X89500500Y-74300842D01*
X89500500Y-74143158D01*
X89500500Y-74143155D01*
X89500499Y-74143153D01*
X89469738Y-73988510D01*
X89469737Y-73988503D01*
X89469735Y-73988498D01*
X89409397Y-73842827D01*
X89409390Y-73842814D01*
X89321789Y-73711711D01*
X89321786Y-73711707D01*
X89210292Y-73600213D01*
X89210288Y-73600210D01*
X89079185Y-73512609D01*
X89079175Y-73512604D01*
X88938168Y-73454197D01*
X88883765Y-73410356D01*
X88861700Y-73344062D01*
X88878979Y-73276362D01*
X88897933Y-73251962D01*
X89030104Y-73119792D01*
X89155051Y-72947816D01*
X89251557Y-72758412D01*
X89317246Y-72556243D01*
X89350500Y-72346287D01*
X89350500Y-72133713D01*
X89317246Y-71923757D01*
X89251557Y-71721588D01*
X89155051Y-71532184D01*
X89155049Y-71532181D01*
X89155048Y-71532179D01*
X89030109Y-71360213D01*
X88879786Y-71209890D01*
X88707820Y-71084951D01*
X88707115Y-71084591D01*
X88699054Y-71080485D01*
X88648259Y-71032512D01*
X88631463Y-70964692D01*
X88653999Y-70898556D01*
X88699054Y-70859515D01*
X88707816Y-70855051D01*
X88809051Y-70781500D01*
X88879786Y-70730109D01*
X88879788Y-70730106D01*
X88879792Y-70730104D01*
X89030104Y-70579792D01*
X89030106Y-70579788D01*
X89030109Y-70579786D01*
X89155048Y-70407820D01*
X89155047Y-70407820D01*
X89155051Y-70407816D01*
X89251557Y-70218412D01*
X89317246Y-70016243D01*
X89350500Y-69806287D01*
X89350500Y-69593713D01*
X89317246Y-69383757D01*
X89251557Y-69181588D01*
X89155051Y-68992184D01*
X89155049Y-68992181D01*
X89155048Y-68992179D01*
X89030109Y-68820213D01*
X88879786Y-68669890D01*
X88707820Y-68544951D01*
X88707115Y-68544591D01*
X88699054Y-68540485D01*
X88648259Y-68492512D01*
X88631463Y-68424692D01*
X88653999Y-68358556D01*
X88699054Y-68319515D01*
X88707816Y-68315051D01*
X88777409Y-68264489D01*
X88879786Y-68190109D01*
X88879788Y-68190106D01*
X88879792Y-68190104D01*
X89030104Y-68039792D01*
X89030106Y-68039788D01*
X89030109Y-68039786D01*
X89130104Y-67902153D01*
X91698500Y-67902153D01*
X91698500Y-68059846D01*
X91729261Y-68214489D01*
X91729264Y-68214501D01*
X91789602Y-68360172D01*
X91789609Y-68360185D01*
X91877210Y-68491288D01*
X91877213Y-68491292D01*
X91988707Y-68602786D01*
X91988711Y-68602789D01*
X92119814Y-68690390D01*
X92119827Y-68690397D01*
X92265498Y-68750735D01*
X92265503Y-68750737D01*
X92420153Y-68781499D01*
X92420156Y-68781500D01*
X92420158Y-68781500D01*
X92577844Y-68781500D01*
X92577845Y-68781499D01*
X92732497Y-68750737D01*
X92878179Y-68690394D01*
X93009289Y-68602789D01*
X93120789Y-68491289D01*
X93208394Y-68360179D01*
X93268737Y-68214497D01*
X93299500Y-68059842D01*
X93299500Y-67952153D01*
X94393500Y-67952153D01*
X94393500Y-68109846D01*
X94424261Y-68264489D01*
X94424264Y-68264501D01*
X94484602Y-68410172D01*
X94484609Y-68410185D01*
X94572210Y-68541288D01*
X94572213Y-68541292D01*
X94624240Y-68593319D01*
X94657725Y-68654642D01*
X94652741Y-68724334D01*
X94624240Y-68768681D01*
X94572213Y-68820707D01*
X94572210Y-68820711D01*
X94484609Y-68951814D01*
X94484602Y-68951827D01*
X94424264Y-69097498D01*
X94424261Y-69097510D01*
X94393500Y-69252153D01*
X94393500Y-69409846D01*
X94424261Y-69564489D01*
X94424264Y-69564501D01*
X94484602Y-69710172D01*
X94484609Y-69710185D01*
X94572210Y-69841288D01*
X94572213Y-69841292D01*
X94683707Y-69952786D01*
X94683711Y-69952789D01*
X94814814Y-70040390D01*
X94814827Y-70040397D01*
X94960498Y-70100735D01*
X94960503Y-70100737D01*
X95115153Y-70131499D01*
X95115156Y-70131500D01*
X95115158Y-70131500D01*
X95272844Y-70131500D01*
X95272845Y-70131499D01*
X95427497Y-70100737D01*
X95573179Y-70040394D01*
X95704289Y-69952789D01*
X95754925Y-69902153D01*
X97641500Y-69902153D01*
X97641500Y-70059846D01*
X97672261Y-70214489D01*
X97672264Y-70214501D01*
X97732602Y-70360172D01*
X97732609Y-70360185D01*
X97820210Y-70491288D01*
X97820213Y-70491292D01*
X97931707Y-70602786D01*
X97931711Y-70602789D01*
X98062814Y-70690390D01*
X98062827Y-70690397D01*
X98158690Y-70730104D01*
X98208503Y-70750737D01*
X98363153Y-70781499D01*
X98363156Y-70781500D01*
X98363158Y-70781500D01*
X98520844Y-70781500D01*
X98520845Y-70781499D01*
X98675497Y-70750737D01*
X98821179Y-70690394D01*
X98952289Y-70602789D01*
X99063789Y-70491289D01*
X99151394Y-70360179D01*
X99211737Y-70214497D01*
X99242500Y-70059842D01*
X99242500Y-69902158D01*
X99242500Y-69902155D01*
X99242499Y-69902153D01*
X99223430Y-69806287D01*
X99211737Y-69747503D01*
X99211735Y-69747498D01*
X99151397Y-69601827D01*
X99151390Y-69601814D01*
X99063789Y-69470711D01*
X99063786Y-69470707D01*
X98952292Y-69359213D01*
X98952288Y-69359210D01*
X98821185Y-69271609D01*
X98821172Y-69271602D01*
X98675501Y-69211264D01*
X98675489Y-69211261D01*
X98520845Y-69180500D01*
X98520842Y-69180500D01*
X98363158Y-69180500D01*
X98363155Y-69180500D01*
X98208510Y-69211261D01*
X98208498Y-69211264D01*
X98062827Y-69271602D01*
X98062814Y-69271609D01*
X97931711Y-69359210D01*
X97931707Y-69359213D01*
X97820213Y-69470707D01*
X97820210Y-69470711D01*
X97732609Y-69601814D01*
X97732602Y-69601827D01*
X97672264Y-69747498D01*
X97672261Y-69747510D01*
X97641500Y-69902153D01*
X95754925Y-69902153D01*
X95815789Y-69841289D01*
X95839178Y-69806286D01*
X95903390Y-69710185D01*
X95903390Y-69710184D01*
X95903394Y-69710179D01*
X95963737Y-69564497D01*
X95994500Y-69409842D01*
X95994500Y-69252158D01*
X95994500Y-69252155D01*
X95994499Y-69252153D01*
X95986365Y-69211261D01*
X95963737Y-69097503D01*
X95920111Y-68992179D01*
X95903397Y-68951827D01*
X95903390Y-68951814D01*
X95815789Y-68820711D01*
X95815786Y-68820707D01*
X95763760Y-68768681D01*
X95730275Y-68707358D01*
X95735259Y-68637666D01*
X95763760Y-68593319D01*
X95815786Y-68541292D01*
X95815789Y-68541289D01*
X95903394Y-68410179D01*
X95963737Y-68264497D01*
X95994500Y-68109842D01*
X95994500Y-67952158D01*
X95994500Y-67952155D01*
X95994499Y-67952153D01*
X97641500Y-67952153D01*
X97641500Y-68109846D01*
X97672261Y-68264489D01*
X97672264Y-68264501D01*
X97732602Y-68410172D01*
X97732609Y-68410185D01*
X97820210Y-68541288D01*
X97820213Y-68541292D01*
X97931707Y-68652786D01*
X97931711Y-68652789D01*
X98062814Y-68740390D01*
X98062827Y-68740397D01*
X98162060Y-68781500D01*
X98208503Y-68800737D01*
X98363153Y-68831499D01*
X98363156Y-68831500D01*
X98363158Y-68831500D01*
X98520844Y-68831500D01*
X98520845Y-68831499D01*
X98675497Y-68800737D01*
X98821179Y-68740394D01*
X98952289Y-68652789D01*
X99063789Y-68541289D01*
X99126689Y-68447153D01*
X101197500Y-68447153D01*
X101197500Y-68604846D01*
X101228261Y-68759489D01*
X101228264Y-68759501D01*
X101288602Y-68905172D01*
X101288609Y-68905185D01*
X101376210Y-69036288D01*
X101376213Y-69036292D01*
X101487707Y-69147786D01*
X101487711Y-69147789D01*
X101618814Y-69235390D01*
X101618827Y-69235397D01*
X101706245Y-69271606D01*
X101764503Y-69295737D01*
X101919153Y-69326499D01*
X101919156Y-69326500D01*
X101919158Y-69326500D01*
X102076844Y-69326500D01*
X102076845Y-69326499D01*
X102231497Y-69295737D01*
X102377179Y-69235394D01*
X102508289Y-69147789D01*
X102619789Y-69036289D01*
X102707394Y-68905179D01*
X102767737Y-68759497D01*
X102798500Y-68604842D01*
X102798500Y-68447158D01*
X102798500Y-68447155D01*
X102798499Y-68447153D01*
X102791418Y-68411557D01*
X102767737Y-68292503D01*
X102735423Y-68214489D01*
X102707397Y-68146827D01*
X102707390Y-68146814D01*
X102619789Y-68015711D01*
X102619786Y-68015707D01*
X102508292Y-67904213D01*
X102508288Y-67904210D01*
X102377185Y-67816609D01*
X102377172Y-67816602D01*
X102231501Y-67756264D01*
X102231489Y-67756261D01*
X102076845Y-67725500D01*
X102076842Y-67725500D01*
X101919158Y-67725500D01*
X101919155Y-67725500D01*
X101764510Y-67756261D01*
X101764498Y-67756264D01*
X101618827Y-67816602D01*
X101618814Y-67816609D01*
X101487711Y-67904210D01*
X101487707Y-67904213D01*
X101376213Y-68015707D01*
X101376210Y-68015711D01*
X101288609Y-68146814D01*
X101288602Y-68146827D01*
X101228264Y-68292498D01*
X101228261Y-68292510D01*
X101197500Y-68447153D01*
X99126689Y-68447153D01*
X99151394Y-68410179D01*
X99151397Y-68410172D01*
X99158256Y-68393614D01*
X99200134Y-68292510D01*
X99211737Y-68264497D01*
X99242500Y-68109842D01*
X99242500Y-67952158D01*
X99242500Y-67952155D01*
X99242499Y-67952153D01*
X99211738Y-67797510D01*
X99211737Y-67797503D01*
X99211735Y-67797498D01*
X99151397Y-67651827D01*
X99151390Y-67651814D01*
X99063789Y-67520711D01*
X99063786Y-67520707D01*
X98952292Y-67409213D01*
X98952288Y-67409210D01*
X98821185Y-67321609D01*
X98821172Y-67321602D01*
X98675501Y-67261264D01*
X98675489Y-67261261D01*
X98520845Y-67230500D01*
X98520842Y-67230500D01*
X98363158Y-67230500D01*
X98363155Y-67230500D01*
X98208510Y-67261261D01*
X98208498Y-67261264D01*
X98062827Y-67321602D01*
X98062814Y-67321609D01*
X97931711Y-67409210D01*
X97931707Y-67409213D01*
X97820213Y-67520707D01*
X97820210Y-67520711D01*
X97732609Y-67651814D01*
X97732602Y-67651827D01*
X97672264Y-67797498D01*
X97672261Y-67797510D01*
X97641500Y-67952153D01*
X95994499Y-67952153D01*
X95963738Y-67797510D01*
X95963737Y-67797503D01*
X95963735Y-67797498D01*
X95903397Y-67651827D01*
X95903390Y-67651814D01*
X95815789Y-67520711D01*
X95815786Y-67520707D01*
X95704292Y-67409213D01*
X95704288Y-67409210D01*
X95573185Y-67321609D01*
X95573172Y-67321602D01*
X95427501Y-67261264D01*
X95427489Y-67261261D01*
X95272845Y-67230500D01*
X95272842Y-67230500D01*
X95115158Y-67230500D01*
X95115155Y-67230500D01*
X94960510Y-67261261D01*
X94960498Y-67261264D01*
X94814827Y-67321602D01*
X94814814Y-67321609D01*
X94683711Y-67409210D01*
X94683707Y-67409213D01*
X94572213Y-67520707D01*
X94572210Y-67520711D01*
X94484609Y-67651814D01*
X94484602Y-67651827D01*
X94424264Y-67797498D01*
X94424261Y-67797510D01*
X94393500Y-67952153D01*
X93299500Y-67952153D01*
X93299500Y-67902158D01*
X93299500Y-67902155D01*
X93299499Y-67902153D01*
X93282483Y-67816609D01*
X93268737Y-67747503D01*
X93229102Y-67651814D01*
X93208397Y-67601827D01*
X93208390Y-67601814D01*
X93120789Y-67470711D01*
X93120786Y-67470707D01*
X93009292Y-67359213D01*
X93009288Y-67359210D01*
X92878185Y-67271609D01*
X92878172Y-67271602D01*
X92732501Y-67211264D01*
X92732489Y-67211261D01*
X92577845Y-67180500D01*
X92577842Y-67180500D01*
X92420158Y-67180500D01*
X92420155Y-67180500D01*
X92265510Y-67211261D01*
X92265498Y-67211264D01*
X92119827Y-67271602D01*
X92119814Y-67271609D01*
X91988711Y-67359210D01*
X91988707Y-67359213D01*
X91877213Y-67470707D01*
X91877210Y-67470711D01*
X91789609Y-67601814D01*
X91789602Y-67601827D01*
X91729264Y-67747498D01*
X91729261Y-67747510D01*
X91698500Y-67902153D01*
X89130104Y-67902153D01*
X89155050Y-67867817D01*
X89169342Y-67839770D01*
X89216356Y-67747498D01*
X89251557Y-67678412D01*
X89317246Y-67476243D01*
X89350500Y-67266287D01*
X89350500Y-67053713D01*
X89317246Y-66843757D01*
X89251557Y-66641588D01*
X89155051Y-66452184D01*
X89155049Y-66452181D01*
X89155048Y-66452179D01*
X89030109Y-66280213D01*
X88879786Y-66129890D01*
X88707820Y-66004951D01*
X88707115Y-66004591D01*
X88699054Y-66000485D01*
X88648259Y-65952512D01*
X88631463Y-65884692D01*
X88653999Y-65818556D01*
X88699054Y-65779515D01*
X88707816Y-65775051D01*
X88729789Y-65759086D01*
X88879786Y-65650109D01*
X88879788Y-65650106D01*
X88879792Y-65650104D01*
X89030104Y-65499792D01*
X89030106Y-65499788D01*
X89030109Y-65499786D01*
X89155048Y-65327820D01*
X89155047Y-65327820D01*
X89155051Y-65327816D01*
X89251557Y-65138412D01*
X89317246Y-64936243D01*
X89350500Y-64726287D01*
X89350500Y-64513713D01*
X89317246Y-64303757D01*
X89292681Y-64228153D01*
X92779500Y-64228153D01*
X92779500Y-64385846D01*
X92810261Y-64540489D01*
X92810264Y-64540501D01*
X92870602Y-64686172D01*
X92870609Y-64686185D01*
X92958210Y-64817288D01*
X92958213Y-64817292D01*
X93069707Y-64928786D01*
X93069711Y-64928789D01*
X93200814Y-65016390D01*
X93200827Y-65016397D01*
X93346498Y-65076735D01*
X93346503Y-65076737D01*
X93501153Y-65107499D01*
X93501156Y-65107500D01*
X93501158Y-65107500D01*
X93658844Y-65107500D01*
X93658845Y-65107499D01*
X93813497Y-65076737D01*
X93959179Y-65016394D01*
X94090289Y-64928789D01*
X94201789Y-64817289D01*
X94289394Y-64686179D01*
X94349737Y-64540497D01*
X94380500Y-64385842D01*
X94380500Y-64228158D01*
X94380500Y-64228155D01*
X94380499Y-64228153D01*
X94349738Y-64073510D01*
X94349737Y-64073503D01*
X94349735Y-64073498D01*
X94289397Y-63927827D01*
X94289390Y-63927814D01*
X94201789Y-63796711D01*
X94201786Y-63796707D01*
X94090292Y-63685213D01*
X94090288Y-63685210D01*
X93959185Y-63597609D01*
X93959172Y-63597602D01*
X93813501Y-63537264D01*
X93813489Y-63537261D01*
X93658845Y-63506500D01*
X93658842Y-63506500D01*
X93501158Y-63506500D01*
X93501155Y-63506500D01*
X93346510Y-63537261D01*
X93346498Y-63537264D01*
X93200827Y-63597602D01*
X93200814Y-63597609D01*
X93069711Y-63685210D01*
X93069707Y-63685213D01*
X92958213Y-63796707D01*
X92958210Y-63796711D01*
X92870609Y-63927814D01*
X92870602Y-63927827D01*
X92810264Y-64073498D01*
X92810261Y-64073510D01*
X92779500Y-64228153D01*
X89292681Y-64228153D01*
X89251557Y-64101588D01*
X89155051Y-63912184D01*
X89155049Y-63912181D01*
X89155048Y-63912179D01*
X89030109Y-63740213D01*
X88879786Y-63589890D01*
X88707820Y-63464951D01*
X88707115Y-63464591D01*
X88699054Y-63460485D01*
X88648259Y-63412512D01*
X88631463Y-63344692D01*
X88653999Y-63278556D01*
X88699054Y-63239515D01*
X88707816Y-63235051D01*
X88729789Y-63219086D01*
X88879786Y-63110109D01*
X88879788Y-63110106D01*
X88879792Y-63110104D01*
X89030104Y-62959792D01*
X89030106Y-62959788D01*
X89030109Y-62959786D01*
X89155048Y-62787820D01*
X89155047Y-62787820D01*
X89155051Y-62787816D01*
X89251557Y-62598412D01*
X89317246Y-62396243D01*
X89350500Y-62186287D01*
X89350500Y-61973713D01*
X89317246Y-61763757D01*
X89251557Y-61561588D01*
X89155051Y-61372184D01*
X89155049Y-61372181D01*
X89155048Y-61372179D01*
X89030109Y-61200213D01*
X88879786Y-61049890D01*
X88707817Y-60924949D01*
X88698504Y-60920204D01*
X88647707Y-60872230D01*
X88630912Y-60804409D01*
X88653449Y-60738274D01*
X88698507Y-60699232D01*
X88707555Y-60694622D01*
X88761716Y-60655270D01*
X88761717Y-60655270D01*
X88129408Y-60022962D01*
X88192993Y-60005925D01*
X88307007Y-59940099D01*
X88400099Y-59847007D01*
X88465925Y-59732993D01*
X88482962Y-59669408D01*
X89115270Y-60301717D01*
X89115270Y-60301716D01*
X89154622Y-60247554D01*
X89251095Y-60058217D01*
X89316757Y-59856130D01*
X89316757Y-59856127D01*
X89350000Y-59646246D01*
X89350000Y-59433753D01*
X89316757Y-59223872D01*
X89316757Y-59223869D01*
X89251095Y-59021782D01*
X89154624Y-58832449D01*
X89115270Y-58778282D01*
X89115269Y-58778282D01*
X88482962Y-59410590D01*
X88465925Y-59347007D01*
X88400099Y-59232993D01*
X88307007Y-59139901D01*
X88192993Y-59074075D01*
X88129409Y-59057037D01*
X88761716Y-58424728D01*
X88707547Y-58385373D01*
X88707547Y-58385372D01*
X88698500Y-58380763D01*
X88647706Y-58332788D01*
X88630912Y-58264966D01*
X88653451Y-58198832D01*
X88698508Y-58159793D01*
X88707816Y-58155051D01*
X88806988Y-58082999D01*
X88879786Y-58030109D01*
X88879788Y-58030106D01*
X88879792Y-58030104D01*
X89030104Y-57879792D01*
X89030106Y-57879788D01*
X89030109Y-57879786D01*
X89155048Y-57707820D01*
X89155047Y-57707820D01*
X89155051Y-57707816D01*
X89251557Y-57518412D01*
X89315144Y-57322713D01*
X92999500Y-57322713D01*
X92999500Y-57535286D01*
X93032753Y-57745239D01*
X93098444Y-57947414D01*
X93194951Y-58136820D01*
X93319890Y-58308786D01*
X93470213Y-58459109D01*
X93642179Y-58584048D01*
X93642181Y-58584049D01*
X93642184Y-58584051D01*
X93831588Y-58680557D01*
X94033757Y-58746246D01*
X94243713Y-58779500D01*
X94243714Y-58779500D01*
X94456286Y-58779500D01*
X94456287Y-58779500D01*
X94666243Y-58746246D01*
X94868412Y-58680557D01*
X95057816Y-58584051D01*
X95079789Y-58568086D01*
X95229786Y-58459109D01*
X95229788Y-58459106D01*
X95229792Y-58459104D01*
X95380104Y-58308792D01*
X95380106Y-58308788D01*
X95380109Y-58308786D01*
X95505048Y-58136820D01*
X95505047Y-58136820D01*
X95505051Y-58136816D01*
X95509514Y-58128054D01*
X95557488Y-58077259D01*
X95625308Y-58060463D01*
X95691444Y-58082999D01*
X95730486Y-58128056D01*
X95734951Y-58136820D01*
X95859890Y-58308786D01*
X96010213Y-58459109D01*
X96182179Y-58584048D01*
X96182181Y-58584049D01*
X96182184Y-58584051D01*
X96371588Y-58680557D01*
X96573757Y-58746246D01*
X96783713Y-58779500D01*
X96783714Y-58779500D01*
X96996286Y-58779500D01*
X96996287Y-58779500D01*
X97206243Y-58746246D01*
X97408412Y-58680557D01*
X97597816Y-58584051D01*
X97619789Y-58568086D01*
X97769786Y-58459109D01*
X97769788Y-58459106D01*
X97769792Y-58459104D01*
X97920104Y-58308792D01*
X97920106Y-58308788D01*
X97920109Y-58308786D01*
X98045048Y-58136820D01*
X98045047Y-58136820D01*
X98045051Y-58136816D01*
X98049514Y-58128054D01*
X98097488Y-58077259D01*
X98165308Y-58060463D01*
X98231444Y-58082999D01*
X98270486Y-58128056D01*
X98274951Y-58136820D01*
X98399890Y-58308786D01*
X98550213Y-58459109D01*
X98722179Y-58584048D01*
X98722181Y-58584049D01*
X98722184Y-58584051D01*
X98911588Y-58680557D01*
X99113757Y-58746246D01*
X99323713Y-58779500D01*
X99323714Y-58779500D01*
X99536286Y-58779500D01*
X99536287Y-58779500D01*
X99746243Y-58746246D01*
X99948412Y-58680557D01*
X100137816Y-58584051D01*
X100159789Y-58568086D01*
X100309786Y-58459109D01*
X100309788Y-58459106D01*
X100309792Y-58459104D01*
X100460104Y-58308792D01*
X100460106Y-58308788D01*
X100460109Y-58308786D01*
X100585048Y-58136820D01*
X100585047Y-58136820D01*
X100585051Y-58136816D01*
X100681557Y-57947412D01*
X100747246Y-57745243D01*
X100780500Y-57535287D01*
X100780500Y-57322713D01*
X100747246Y-57112757D01*
X100681557Y-56910588D01*
X100672959Y-56893713D01*
X104429500Y-56893713D01*
X104429500Y-57106286D01*
X104459934Y-57298442D01*
X104462754Y-57316243D01*
X104464856Y-57322713D01*
X104528444Y-57518414D01*
X104624951Y-57707820D01*
X104749890Y-57879786D01*
X104900213Y-58030109D01*
X105072179Y-58155048D01*
X105072181Y-58155049D01*
X105072184Y-58155051D01*
X105081493Y-58159794D01*
X105132290Y-58207766D01*
X105149087Y-58275587D01*
X105126552Y-58341722D01*
X105081505Y-58380760D01*
X105072446Y-58385376D01*
X105072440Y-58385380D01*
X105018282Y-58424727D01*
X105018282Y-58424728D01*
X105650591Y-59057037D01*
X105587007Y-59074075D01*
X105472993Y-59139901D01*
X105379901Y-59232993D01*
X105314075Y-59347007D01*
X105297037Y-59410591D01*
X104664728Y-58778282D01*
X104664727Y-58778282D01*
X104625380Y-58832439D01*
X104528904Y-59021782D01*
X104463242Y-59223869D01*
X104463242Y-59223872D01*
X104430000Y-59433753D01*
X104430000Y-59646246D01*
X104463242Y-59856127D01*
X104463242Y-59856130D01*
X104528904Y-60058217D01*
X104625375Y-60247550D01*
X104664728Y-60301716D01*
X105297037Y-59669408D01*
X105314075Y-59732993D01*
X105379901Y-59847007D01*
X105472993Y-59940099D01*
X105587007Y-60005925D01*
X105650590Y-60022962D01*
X105018282Y-60655269D01*
X105018282Y-60655270D01*
X105072452Y-60694626D01*
X105072451Y-60694626D01*
X105081495Y-60699234D01*
X105132292Y-60747208D01*
X105149087Y-60815029D01*
X105126550Y-60881164D01*
X105081499Y-60920202D01*
X105072182Y-60924949D01*
X104900213Y-61049890D01*
X104749890Y-61200213D01*
X104624951Y-61372179D01*
X104528444Y-61561585D01*
X104462753Y-61763760D01*
X104429500Y-61973713D01*
X104429500Y-62186286D01*
X104462753Y-62396239D01*
X104528444Y-62598414D01*
X104624951Y-62787820D01*
X104749890Y-62959786D01*
X104900213Y-63110109D01*
X105072182Y-63235050D01*
X105080946Y-63239516D01*
X105131742Y-63287491D01*
X105148536Y-63355312D01*
X105125998Y-63421447D01*
X105080946Y-63460484D01*
X105072182Y-63464949D01*
X104900213Y-63589890D01*
X104749890Y-63740213D01*
X104624951Y-63912179D01*
X104528444Y-64101585D01*
X104462753Y-64303760D01*
X104449752Y-64385846D01*
X104429500Y-64513713D01*
X104429500Y-64726287D01*
X104462754Y-64936243D01*
X104508403Y-65076737D01*
X104528444Y-65138414D01*
X104624951Y-65327820D01*
X104749890Y-65499786D01*
X104900213Y-65650109D01*
X105072182Y-65775050D01*
X105080946Y-65779516D01*
X105131742Y-65827491D01*
X105148536Y-65895312D01*
X105125998Y-65961447D01*
X105080946Y-66000484D01*
X105072182Y-66004949D01*
X104900213Y-66129890D01*
X104749890Y-66280213D01*
X104624951Y-66452179D01*
X104528444Y-66641585D01*
X104462753Y-66843760D01*
X104429500Y-67053713D01*
X104429500Y-67266287D01*
X104430343Y-67271609D01*
X104461877Y-67470711D01*
X104462754Y-67476243D01*
X104477201Y-67520707D01*
X104528444Y-67678414D01*
X104624951Y-67867820D01*
X104749890Y-68039786D01*
X104900213Y-68190109D01*
X105072182Y-68315050D01*
X105080946Y-68319516D01*
X105131742Y-68367491D01*
X105148536Y-68435312D01*
X105125998Y-68501447D01*
X105080946Y-68540484D01*
X105072182Y-68544949D01*
X104900213Y-68669890D01*
X104749890Y-68820213D01*
X104624951Y-68992179D01*
X104528444Y-69181585D01*
X104462753Y-69383760D01*
X104434129Y-69564489D01*
X104429500Y-69593713D01*
X104429500Y-69806287D01*
X104462754Y-70016243D01*
X104527172Y-70214501D01*
X104528444Y-70218414D01*
X104624951Y-70407820D01*
X104749890Y-70579786D01*
X104900213Y-70730109D01*
X105072182Y-70855050D01*
X105080946Y-70859516D01*
X105131742Y-70907491D01*
X105148536Y-70975312D01*
X105125998Y-71041447D01*
X105080946Y-71080484D01*
X105072182Y-71084949D01*
X104900213Y-71209890D01*
X104749890Y-71360213D01*
X104624951Y-71532179D01*
X104528444Y-71721585D01*
X104462753Y-71923760D01*
X104429500Y-72133713D01*
X104429500Y-72346286D01*
X104462753Y-72556239D01*
X104528444Y-72758414D01*
X104624951Y-72947820D01*
X104749890Y-73119786D01*
X104900213Y-73270109D01*
X105072179Y-73395048D01*
X105072181Y-73395049D01*
X105072184Y-73395051D01*
X105261588Y-73491557D01*
X105463757Y-73557246D01*
X105673713Y-73590500D01*
X105673714Y-73590500D01*
X105886286Y-73590500D01*
X105886287Y-73590500D01*
X106096243Y-73557246D01*
X106298412Y-73491557D01*
X106487816Y-73395051D01*
X106651179Y-73276362D01*
X106659786Y-73270109D01*
X106659788Y-73270106D01*
X106659792Y-73270104D01*
X106810104Y-73119792D01*
X106810106Y-73119788D01*
X106810109Y-73119786D01*
X106935048Y-72947820D01*
X106935047Y-72947820D01*
X106935051Y-72947816D01*
X107031557Y-72758412D01*
X107097246Y-72556243D01*
X107130500Y-72346287D01*
X107130500Y-72133713D01*
X107097246Y-71923757D01*
X107031557Y-71721588D01*
X106935051Y-71532184D01*
X106935049Y-71532181D01*
X106935048Y-71532179D01*
X106810109Y-71360213D01*
X106659786Y-71209890D01*
X106487820Y-71084951D01*
X106487115Y-71084591D01*
X106479054Y-71080485D01*
X106428259Y-71032512D01*
X106411463Y-70964692D01*
X106433999Y-70898556D01*
X106479054Y-70859515D01*
X106487816Y-70855051D01*
X106589051Y-70781500D01*
X106659786Y-70730109D01*
X106659788Y-70730106D01*
X106659792Y-70730104D01*
X106810104Y-70579792D01*
X106810106Y-70579788D01*
X106810109Y-70579786D01*
X106935048Y-70407820D01*
X106935047Y-70407820D01*
X106935051Y-70407816D01*
X107031557Y-70218412D01*
X107097246Y-70016243D01*
X107130500Y-69806287D01*
X107130500Y-69593713D01*
X107097246Y-69383757D01*
X107031557Y-69181588D01*
X106935051Y-68992184D01*
X106935049Y-68992181D01*
X106935048Y-68992179D01*
X106810109Y-68820213D01*
X106659786Y-68669890D01*
X106487820Y-68544951D01*
X106487115Y-68544591D01*
X106479054Y-68540485D01*
X106428259Y-68492512D01*
X106411463Y-68424692D01*
X106433999Y-68358556D01*
X106479054Y-68319515D01*
X106487816Y-68315051D01*
X106557409Y-68264489D01*
X106659786Y-68190109D01*
X106659788Y-68190106D01*
X106659792Y-68190104D01*
X106810104Y-68039792D01*
X106810106Y-68039788D01*
X106810109Y-68039786D01*
X106935048Y-67867820D01*
X106935050Y-67867817D01*
X106935051Y-67867816D01*
X107031557Y-67678412D01*
X107097246Y-67476243D01*
X107130500Y-67266287D01*
X107130500Y-67053713D01*
X107097246Y-66843757D01*
X107031557Y-66641588D01*
X106935051Y-66452184D01*
X106935049Y-66452181D01*
X106935048Y-66452179D01*
X106810109Y-66280213D01*
X106659786Y-66129890D01*
X106487820Y-66004951D01*
X106487115Y-66004591D01*
X106479054Y-66000485D01*
X106428259Y-65952512D01*
X106411463Y-65884692D01*
X106433999Y-65818556D01*
X106479054Y-65779515D01*
X106487816Y-65775051D01*
X106509789Y-65759086D01*
X106659786Y-65650109D01*
X106659788Y-65650106D01*
X106659792Y-65650104D01*
X106810104Y-65499792D01*
X106810106Y-65499788D01*
X106810109Y-65499786D01*
X106935048Y-65327820D01*
X106935047Y-65327820D01*
X106935051Y-65327816D01*
X107031557Y-65138412D01*
X107097246Y-64936243D01*
X107130500Y-64726287D01*
X107130500Y-64513713D01*
X107097246Y-64303757D01*
X107031557Y-64101588D01*
X106935051Y-63912184D01*
X106935049Y-63912181D01*
X106935048Y-63912179D01*
X106810109Y-63740213D01*
X106659786Y-63589890D01*
X106487820Y-63464951D01*
X106487115Y-63464591D01*
X106479054Y-63460485D01*
X106428259Y-63412512D01*
X106411463Y-63344692D01*
X106433999Y-63278556D01*
X106479054Y-63239515D01*
X106487816Y-63235051D01*
X106509789Y-63219086D01*
X106659786Y-63110109D01*
X106659788Y-63110106D01*
X106659792Y-63110104D01*
X106810104Y-62959792D01*
X106810106Y-62959788D01*
X106810109Y-62959786D01*
X106935048Y-62787820D01*
X106935047Y-62787820D01*
X106935051Y-62787816D01*
X107031557Y-62598412D01*
X107097246Y-62396243D01*
X107130500Y-62186287D01*
X107130500Y-61973713D01*
X107097246Y-61763757D01*
X107031557Y-61561588D01*
X106935051Y-61372184D01*
X106935049Y-61372181D01*
X106935048Y-61372179D01*
X106810109Y-61200213D01*
X106659786Y-61049890D01*
X106487817Y-60924949D01*
X106478504Y-60920204D01*
X106427707Y-60872230D01*
X106410912Y-60804409D01*
X106433449Y-60738274D01*
X106478507Y-60699232D01*
X106487555Y-60694622D01*
X106541716Y-60655270D01*
X106541717Y-60655270D01*
X105909408Y-60022962D01*
X105972993Y-60005925D01*
X106087007Y-59940099D01*
X106180099Y-59847007D01*
X106245925Y-59732993D01*
X106262962Y-59669408D01*
X106895270Y-60301717D01*
X106895270Y-60301716D01*
X106934622Y-60247554D01*
X107031095Y-60058217D01*
X107096757Y-59856130D01*
X107096757Y-59856127D01*
X107130000Y-59646246D01*
X107130000Y-59433753D01*
X107096757Y-59223872D01*
X107096757Y-59223869D01*
X107031095Y-59021782D01*
X106934624Y-58832449D01*
X106895270Y-58778282D01*
X106895269Y-58778282D01*
X106262962Y-59410590D01*
X106245925Y-59347007D01*
X106180099Y-59232993D01*
X106087007Y-59139901D01*
X105972993Y-59074075D01*
X105909409Y-59057037D01*
X106541716Y-58424728D01*
X106487547Y-58385373D01*
X106487547Y-58385372D01*
X106478500Y-58380763D01*
X106427706Y-58332788D01*
X106410912Y-58264966D01*
X106433451Y-58198832D01*
X106478508Y-58159793D01*
X106487816Y-58155051D01*
X106586988Y-58082999D01*
X106659786Y-58030109D01*
X106659788Y-58030106D01*
X106659792Y-58030104D01*
X106810104Y-57879792D01*
X106810106Y-57879788D01*
X106810109Y-57879786D01*
X106935048Y-57707820D01*
X106935047Y-57707820D01*
X106935051Y-57707816D01*
X107031557Y-57518412D01*
X107097246Y-57316243D01*
X107130500Y-57106287D01*
X107130500Y-56893713D01*
X107097246Y-56683757D01*
X107031557Y-56481588D01*
X106935051Y-56292184D01*
X106935049Y-56292181D01*
X106935048Y-56292179D01*
X106810109Y-56120213D01*
X106659786Y-55969890D01*
X106487820Y-55844951D01*
X106298414Y-55748444D01*
X106298413Y-55748443D01*
X106298412Y-55748443D01*
X106096243Y-55682754D01*
X106096241Y-55682753D01*
X106096240Y-55682753D01*
X105934957Y-55657208D01*
X105886287Y-55649500D01*
X105673713Y-55649500D01*
X105625042Y-55657208D01*
X105463760Y-55682753D01*
X105261585Y-55748444D01*
X105072179Y-55844951D01*
X104900213Y-55969890D01*
X104749890Y-56120213D01*
X104624951Y-56292179D01*
X104528444Y-56481585D01*
X104462753Y-56683760D01*
X104429500Y-56893713D01*
X100672959Y-56893713D01*
X100585051Y-56721184D01*
X100585049Y-56721181D01*
X100585048Y-56721179D01*
X100460109Y-56549213D01*
X100309786Y-56398890D01*
X100137820Y-56273951D01*
X99948414Y-56177444D01*
X99948413Y-56177443D01*
X99948412Y-56177443D01*
X99746243Y-56111754D01*
X99746241Y-56111753D01*
X99746240Y-56111753D01*
X99584957Y-56086208D01*
X99536287Y-56078500D01*
X99323713Y-56078500D01*
X99275042Y-56086208D01*
X99113760Y-56111753D01*
X98911585Y-56177444D01*
X98722179Y-56273951D01*
X98550213Y-56398890D01*
X98399890Y-56549213D01*
X98274949Y-56721182D01*
X98270484Y-56729946D01*
X98222509Y-56780742D01*
X98154688Y-56797536D01*
X98088553Y-56774998D01*
X98049516Y-56729946D01*
X98045050Y-56721182D01*
X97920109Y-56549213D01*
X97769786Y-56398890D01*
X97597820Y-56273951D01*
X97408414Y-56177444D01*
X97408413Y-56177443D01*
X97408412Y-56177443D01*
X97206243Y-56111754D01*
X97206241Y-56111753D01*
X97206240Y-56111753D01*
X97044957Y-56086208D01*
X96996287Y-56078500D01*
X96783713Y-56078500D01*
X96735042Y-56086208D01*
X96573760Y-56111753D01*
X96371585Y-56177444D01*
X96182179Y-56273951D01*
X96010213Y-56398890D01*
X95859890Y-56549213D01*
X95734949Y-56721182D01*
X95730484Y-56729946D01*
X95682509Y-56780742D01*
X95614688Y-56797536D01*
X95548553Y-56774998D01*
X95509516Y-56729946D01*
X95505050Y-56721182D01*
X95380109Y-56549213D01*
X95229786Y-56398890D01*
X95057820Y-56273951D01*
X94868414Y-56177444D01*
X94868413Y-56177443D01*
X94868412Y-56177443D01*
X94666243Y-56111754D01*
X94666241Y-56111753D01*
X94666240Y-56111753D01*
X94504957Y-56086208D01*
X94456287Y-56078500D01*
X94243713Y-56078500D01*
X94195042Y-56086208D01*
X94033760Y-56111753D01*
X93831585Y-56177444D01*
X93642179Y-56273951D01*
X93470213Y-56398890D01*
X93319890Y-56549213D01*
X93194951Y-56721179D01*
X93098444Y-56910585D01*
X93032753Y-57112760D01*
X92999500Y-57322713D01*
X89315144Y-57322713D01*
X89317246Y-57316243D01*
X89350500Y-57106287D01*
X89350500Y-56893713D01*
X89317246Y-56683757D01*
X89251557Y-56481588D01*
X89155051Y-56292184D01*
X89155049Y-56292181D01*
X89155048Y-56292179D01*
X89030109Y-56120213D01*
X88879786Y-55969890D01*
X88707820Y-55844951D01*
X88518414Y-55748444D01*
X88518413Y-55748443D01*
X88518412Y-55748443D01*
X88316243Y-55682754D01*
X88316241Y-55682753D01*
X88316240Y-55682753D01*
X88154957Y-55657208D01*
X88106287Y-55649500D01*
X87893713Y-55649500D01*
X87845042Y-55657208D01*
X87683760Y-55682753D01*
X87481585Y-55748444D01*
X87292179Y-55844951D01*
X87120213Y-55969890D01*
X86969890Y-56120213D01*
X86844951Y-56292179D01*
X86748444Y-56481585D01*
X86682753Y-56683760D01*
X86649500Y-56893713D01*
X85890500Y-56893713D01*
X85890500Y-53585153D01*
X101481500Y-53585153D01*
X101481500Y-53742846D01*
X101512261Y-53897489D01*
X101512264Y-53897501D01*
X101572602Y-54043172D01*
X101572609Y-54043185D01*
X101660210Y-54174288D01*
X101660213Y-54174292D01*
X101771707Y-54285786D01*
X101771711Y-54285789D01*
X101902814Y-54373390D01*
X101902827Y-54373397D01*
X102048498Y-54433735D01*
X102048503Y-54433737D01*
X102203153Y-54464499D01*
X102203156Y-54464500D01*
X102203158Y-54464500D01*
X102360844Y-54464500D01*
X102360845Y-54464499D01*
X102515497Y-54433737D01*
X102661179Y-54373394D01*
X102792289Y-54285789D01*
X102903789Y-54174289D01*
X102991394Y-54043179D01*
X103051737Y-53897497D01*
X103082500Y-53742842D01*
X103082500Y-53585158D01*
X103082500Y-53585155D01*
X103082499Y-53585153D01*
X103051738Y-53430510D01*
X103051737Y-53430503D01*
X103051735Y-53430498D01*
X102991397Y-53284827D01*
X102991390Y-53284814D01*
X102903789Y-53153711D01*
X102903786Y-53153707D01*
X102792292Y-53042213D01*
X102792288Y-53042210D01*
X102661185Y-52954609D01*
X102661172Y-52954602D01*
X102515501Y-52894264D01*
X102515489Y-52894261D01*
X102360845Y-52863500D01*
X102360842Y-52863500D01*
X102203158Y-52863500D01*
X102203155Y-52863500D01*
X102048510Y-52894261D01*
X102048498Y-52894264D01*
X101902827Y-52954602D01*
X101902814Y-52954609D01*
X101771711Y-53042210D01*
X101771707Y-53042213D01*
X101660213Y-53153707D01*
X101660210Y-53153711D01*
X101572609Y-53284814D01*
X101572602Y-53284827D01*
X101512264Y-53430498D01*
X101512261Y-53430510D01*
X101481500Y-53585153D01*
X85890500Y-53585153D01*
X85890500Y-51982961D01*
X85891280Y-51969077D01*
X85891280Y-51969076D01*
X85901460Y-51878729D01*
X85907635Y-51851670D01*
X85935353Y-51772456D01*
X85947396Y-51747450D01*
X85992046Y-51676389D01*
X86009351Y-51654690D01*
X86068690Y-51595351D01*
X86090389Y-51578046D01*
X86161450Y-51533396D01*
X86186456Y-51521353D01*
X86265670Y-51493635D01*
X86292733Y-51487459D01*
X86355814Y-51480352D01*
X86383079Y-51477280D01*
X86396962Y-51476500D01*
X86455892Y-51476500D01*
X99655611Y-51476500D01*
X99722650Y-51496185D01*
G37*
%TD.AperFunction*%
%TD*%
M02*
