M48
; DRILL file {KiCad 9.0.5} date 2025-12-03T12:23:41+0100
; FORMAT={-:-/ absolute / metric / decimal}
; #@! TF.CreationDate,2025-12-03T12:23:41+01:00
; #@! TF.GenerationSoftware,Kicad,Pcbnew,9.0.5
; #@! TF.FileFunction,Plated,1,4,PTH
FMAT,2
METRIC
; #@! TA.AperFunction,Plated,PTH,ViaDrill
T1C0.300
; #@! TA.AperFunction,Plated,PTH,ViaDrill
T2C0.400
; #@! TA.AperFunction,Plated,PTH,ComponentDrill
T3C1.000
%
G90
G05
T1
X88.7Y-74.222
X88.9Y-78.098
X90.839Y-68.681
X92.499Y-67.981
X92.56Y-64.307
X93.58Y-64.307
X93.731Y-53.393
X94.28Y-59.9
X95.194Y-68.031
X95.194Y-69.331
X98.442Y-68.031
X98.442Y-69.981
X99.5Y-59.9
X100.514Y-51.944
X101.582Y-52.004
X101.998Y-68.526
X101.998Y-69.486
X102.282Y-53.664
X104.88Y-78.098
T2
X103.25Y-73.452
T3
X88.0Y-57.0
X88.0Y-59.54
X88.0Y-62.08
X88.0Y-64.62
X88.0Y-67.16
X88.0Y-69.7
X88.0Y-72.24
X93.08Y-76.252
X94.35Y-57.429
X95.62Y-76.252
X96.89Y-57.429
X98.16Y-76.252
X99.43Y-57.429
X100.7Y-76.252
X105.78Y-57.0
X105.78Y-59.54
X105.78Y-62.08
X105.78Y-64.62
X105.78Y-67.16
X105.78Y-69.7
X105.78Y-72.24
M30
