%TF.GenerationSoftware,KiCad,Pcbnew,9.0.6*%
%TF.CreationDate,2025-11-30T13:42:40+01:00*%
%TF.ProjectId,stm32f030f4p6-board,73746d33-3266-4303-9330-663470362d62,rev?*%
%TF.SameCoordinates,Original*%
%TF.FileFunction,Legend,Top*%
%TF.FilePolarity,Positive*%
%FSLAX46Y46*%
G04 Gerber Fmt 4.6, Leading zero omitted, Abs format (unit mm)*
G04 Created by KiCad (PCBNEW 9.0.6) date 2025-11-30 13:42:40*
%MOMM*%
%LPD*%
G01*
G04 APERTURE LIST*
%ADD10C,0.100000*%
%ADD11C,0.150000*%
%ADD12C,0.120000*%
%ADD13C,0.254000*%
G04 APERTURE END LIST*
D10*
X109618633Y-63001666D02*
X109618633Y-62568332D01*
X109618633Y-62568332D02*
X109885300Y-62801666D01*
X109885300Y-62801666D02*
X109885300Y-62701666D01*
X109885300Y-62701666D02*
X109918633Y-62634999D01*
X109918633Y-62634999D02*
X109951966Y-62601666D01*
X109951966Y-62601666D02*
X110018633Y-62568332D01*
X110018633Y-62568332D02*
X110185300Y-62568332D01*
X110185300Y-62568332D02*
X110251966Y-62601666D01*
X110251966Y-62601666D02*
X110285300Y-62634999D01*
X110285300Y-62634999D02*
X110318633Y-62701666D01*
X110318633Y-62701666D02*
X110318633Y-62901666D01*
X110318633Y-62901666D02*
X110285300Y-62968332D01*
X110285300Y-62968332D02*
X110251966Y-63001666D01*
X109618633Y-62368332D02*
X110318633Y-62134999D01*
X110318633Y-62134999D02*
X109618633Y-61901665D01*
X109618633Y-61734999D02*
X109618633Y-61301665D01*
X109618633Y-61301665D02*
X109885300Y-61534999D01*
X109885300Y-61534999D02*
X109885300Y-61434999D01*
X109885300Y-61434999D02*
X109918633Y-61368332D01*
X109918633Y-61368332D02*
X109951966Y-61334999D01*
X109951966Y-61334999D02*
X110018633Y-61301665D01*
X110018633Y-61301665D02*
X110185300Y-61301665D01*
X110185300Y-61301665D02*
X110251966Y-61334999D01*
X110251966Y-61334999D02*
X110285300Y-61368332D01*
X110285300Y-61368332D02*
X110318633Y-61434999D01*
X110318633Y-61434999D02*
X110318633Y-61634999D01*
X110318633Y-61634999D02*
X110285300Y-61701665D01*
X110285300Y-61701665D02*
X110251966Y-61734999D01*
X109651966Y-65208332D02*
X109618633Y-65274999D01*
X109618633Y-65274999D02*
X109618633Y-65374999D01*
X109618633Y-65374999D02*
X109651966Y-65474999D01*
X109651966Y-65474999D02*
X109718633Y-65541666D01*
X109718633Y-65541666D02*
X109785300Y-65574999D01*
X109785300Y-65574999D02*
X109918633Y-65608332D01*
X109918633Y-65608332D02*
X110018633Y-65608332D01*
X110018633Y-65608332D02*
X110151966Y-65574999D01*
X110151966Y-65574999D02*
X110218633Y-65541666D01*
X110218633Y-65541666D02*
X110285300Y-65474999D01*
X110285300Y-65474999D02*
X110318633Y-65374999D01*
X110318633Y-65374999D02*
X110318633Y-65308332D01*
X110318633Y-65308332D02*
X110285300Y-65208332D01*
X110285300Y-65208332D02*
X110251966Y-65174999D01*
X110251966Y-65174999D02*
X110018633Y-65174999D01*
X110018633Y-65174999D02*
X110018633Y-65308332D01*
X110318633Y-64874999D02*
X109618633Y-64874999D01*
X109618633Y-64874999D02*
X110318633Y-64474999D01*
X110318633Y-64474999D02*
X109618633Y-64474999D01*
X110318633Y-64141666D02*
X109618633Y-64141666D01*
X109618633Y-64141666D02*
X109618633Y-63974999D01*
X109618633Y-63974999D02*
X109651966Y-63874999D01*
X109651966Y-63874999D02*
X109718633Y-63808333D01*
X109718633Y-63808333D02*
X109785300Y-63774999D01*
X109785300Y-63774999D02*
X109918633Y-63741666D01*
X109918633Y-63741666D02*
X110018633Y-63741666D01*
X110018633Y-63741666D02*
X110151966Y-63774999D01*
X110151966Y-63774999D02*
X110218633Y-63808333D01*
X110218633Y-63808333D02*
X110285300Y-63874999D01*
X110285300Y-63874999D02*
X110318633Y-63974999D01*
X110318633Y-63974999D02*
X110318633Y-64141666D01*
X103997133Y-51264043D02*
X104563800Y-51264043D01*
X104563800Y-51264043D02*
X104630466Y-51230710D01*
X104630466Y-51230710D02*
X104663800Y-51197376D01*
X104663800Y-51197376D02*
X104697133Y-51130710D01*
X104697133Y-51130710D02*
X104697133Y-50997376D01*
X104697133Y-50997376D02*
X104663800Y-50930710D01*
X104663800Y-50930710D02*
X104630466Y-50897376D01*
X104630466Y-50897376D02*
X104563800Y-50864043D01*
X104563800Y-50864043D02*
X103997133Y-50864043D01*
X104663800Y-50564043D02*
X104697133Y-50497377D01*
X104697133Y-50497377D02*
X104697133Y-50364043D01*
X104697133Y-50364043D02*
X104663800Y-50297377D01*
X104663800Y-50297377D02*
X104597133Y-50264043D01*
X104597133Y-50264043D02*
X104563800Y-50264043D01*
X104563800Y-50264043D02*
X104497133Y-50297377D01*
X104497133Y-50297377D02*
X104463800Y-50364043D01*
X104463800Y-50364043D02*
X104463800Y-50464043D01*
X104463800Y-50464043D02*
X104430466Y-50530710D01*
X104430466Y-50530710D02*
X104363800Y-50564043D01*
X104363800Y-50564043D02*
X104330466Y-50564043D01*
X104330466Y-50564043D02*
X104263800Y-50530710D01*
X104263800Y-50530710D02*
X104230466Y-50464043D01*
X104230466Y-50464043D02*
X104230466Y-50364043D01*
X104230466Y-50364043D02*
X104263800Y-50297377D01*
X104663800Y-49697376D02*
X104697133Y-49764043D01*
X104697133Y-49764043D02*
X104697133Y-49897376D01*
X104697133Y-49897376D02*
X104663800Y-49964043D01*
X104663800Y-49964043D02*
X104597133Y-49997376D01*
X104597133Y-49997376D02*
X104330466Y-49997376D01*
X104330466Y-49997376D02*
X104263800Y-49964043D01*
X104263800Y-49964043D02*
X104230466Y-49897376D01*
X104230466Y-49897376D02*
X104230466Y-49764043D01*
X104230466Y-49764043D02*
X104263800Y-49697376D01*
X104263800Y-49697376D02*
X104330466Y-49664043D01*
X104330466Y-49664043D02*
X104397133Y-49664043D01*
X104397133Y-49664043D02*
X104463800Y-49997376D01*
X104697133Y-49364043D02*
X104230466Y-49364043D01*
X104363800Y-49364043D02*
X104297133Y-49330710D01*
X104297133Y-49330710D02*
X104263800Y-49297376D01*
X104263800Y-49297376D02*
X104230466Y-49230710D01*
X104230466Y-49230710D02*
X104230466Y-49164043D01*
X94797200Y-59795121D02*
X94763866Y-59895121D01*
X94763866Y-59895121D02*
X94763866Y-60061788D01*
X94763866Y-60061788D02*
X94797200Y-60128454D01*
X94797200Y-60128454D02*
X94830533Y-60161788D01*
X94830533Y-60161788D02*
X94897200Y-60195121D01*
X94897200Y-60195121D02*
X94963866Y-60195121D01*
X94963866Y-60195121D02*
X95030533Y-60161788D01*
X95030533Y-60161788D02*
X95063866Y-60128454D01*
X95063866Y-60128454D02*
X95097200Y-60061788D01*
X95097200Y-60061788D02*
X95130533Y-59928454D01*
X95130533Y-59928454D02*
X95163866Y-59861788D01*
X95163866Y-59861788D02*
X95197200Y-59828454D01*
X95197200Y-59828454D02*
X95263866Y-59795121D01*
X95263866Y-59795121D02*
X95330533Y-59795121D01*
X95330533Y-59795121D02*
X95397200Y-59828454D01*
X95397200Y-59828454D02*
X95430533Y-59861788D01*
X95430533Y-59861788D02*
X95463866Y-59928454D01*
X95463866Y-59928454D02*
X95463866Y-60095121D01*
X95463866Y-60095121D02*
X95430533Y-60195121D01*
X95463866Y-60428455D02*
X94763866Y-60595121D01*
X94763866Y-60595121D02*
X95263866Y-60728455D01*
X95263866Y-60728455D02*
X94763866Y-60861788D01*
X94763866Y-60861788D02*
X95463866Y-61028455D01*
X94763866Y-61295121D02*
X95463866Y-61295121D01*
X95463866Y-61295121D02*
X95463866Y-61461788D01*
X95463866Y-61461788D02*
X95430533Y-61561788D01*
X95430533Y-61561788D02*
X95363866Y-61628455D01*
X95363866Y-61628455D02*
X95297200Y-61661788D01*
X95297200Y-61661788D02*
X95163866Y-61695121D01*
X95163866Y-61695121D02*
X95063866Y-61695121D01*
X95063866Y-61695121D02*
X94930533Y-61661788D01*
X94930533Y-61661788D02*
X94863866Y-61628455D01*
X94863866Y-61628455D02*
X94797200Y-61561788D01*
X94797200Y-61561788D02*
X94763866Y-61461788D01*
X94763866Y-61461788D02*
X94763866Y-61295121D01*
X94763866Y-61995121D02*
X95463866Y-61995121D01*
X95463866Y-62461788D02*
X95463866Y-62595121D01*
X95463866Y-62595121D02*
X95430533Y-62661788D01*
X95430533Y-62661788D02*
X95363866Y-62728454D01*
X95363866Y-62728454D02*
X95230533Y-62761788D01*
X95230533Y-62761788D02*
X94997200Y-62761788D01*
X94997200Y-62761788D02*
X94863866Y-62728454D01*
X94863866Y-62728454D02*
X94797200Y-62661788D01*
X94797200Y-62661788D02*
X94763866Y-62595121D01*
X94763866Y-62595121D02*
X94763866Y-62461788D01*
X94763866Y-62461788D02*
X94797200Y-62395121D01*
X94797200Y-62395121D02*
X94863866Y-62328454D01*
X94863866Y-62328454D02*
X94997200Y-62295121D01*
X94997200Y-62295121D02*
X95230533Y-62295121D01*
X95230533Y-62295121D02*
X95363866Y-62328454D01*
X95363866Y-62328454D02*
X95430533Y-62395121D01*
X95430533Y-62395121D02*
X95463866Y-62461788D01*
X92923866Y-59761788D02*
X92923866Y-60195121D01*
X92923866Y-60195121D02*
X92657200Y-59961788D01*
X92657200Y-59961788D02*
X92657200Y-60061788D01*
X92657200Y-60061788D02*
X92623866Y-60128454D01*
X92623866Y-60128454D02*
X92590533Y-60161788D01*
X92590533Y-60161788D02*
X92523866Y-60195121D01*
X92523866Y-60195121D02*
X92357200Y-60195121D01*
X92357200Y-60195121D02*
X92290533Y-60161788D01*
X92290533Y-60161788D02*
X92257200Y-60128454D01*
X92257200Y-60128454D02*
X92223866Y-60061788D01*
X92223866Y-60061788D02*
X92223866Y-59861788D01*
X92223866Y-59861788D02*
X92257200Y-59795121D01*
X92257200Y-59795121D02*
X92290533Y-59761788D01*
X92923866Y-60395121D02*
X92223866Y-60628455D01*
X92223866Y-60628455D02*
X92923866Y-60861788D01*
X92923866Y-61028455D02*
X92923866Y-61461788D01*
X92923866Y-61461788D02*
X92657200Y-61228455D01*
X92657200Y-61228455D02*
X92657200Y-61328455D01*
X92657200Y-61328455D02*
X92623866Y-61395121D01*
X92623866Y-61395121D02*
X92590533Y-61428455D01*
X92590533Y-61428455D02*
X92523866Y-61461788D01*
X92523866Y-61461788D02*
X92357200Y-61461788D01*
X92357200Y-61461788D02*
X92290533Y-61428455D01*
X92290533Y-61428455D02*
X92257200Y-61395121D01*
X92257200Y-61395121D02*
X92223866Y-61328455D01*
X92223866Y-61328455D02*
X92223866Y-61128455D01*
X92223866Y-61128455D02*
X92257200Y-61061788D01*
X92257200Y-61061788D02*
X92290533Y-61028455D01*
X82681366Y-71478332D02*
X83381366Y-71478332D01*
X83381366Y-71478332D02*
X83381366Y-71744999D01*
X83381366Y-71744999D02*
X83348033Y-71811666D01*
X83348033Y-71811666D02*
X83314700Y-71844999D01*
X83314700Y-71844999D02*
X83248033Y-71878332D01*
X83248033Y-71878332D02*
X83148033Y-71878332D01*
X83148033Y-71878332D02*
X83081366Y-71844999D01*
X83081366Y-71844999D02*
X83048033Y-71811666D01*
X83048033Y-71811666D02*
X83014700Y-71744999D01*
X83014700Y-71744999D02*
X83014700Y-71478332D01*
X82881366Y-72144999D02*
X82881366Y-72478332D01*
X82681366Y-72078332D02*
X83381366Y-72311666D01*
X83381366Y-72311666D02*
X82681366Y-72544999D01*
X83314700Y-72744999D02*
X83348033Y-72778332D01*
X83348033Y-72778332D02*
X83381366Y-72844999D01*
X83381366Y-72844999D02*
X83381366Y-73011666D01*
X83381366Y-73011666D02*
X83348033Y-73078332D01*
X83348033Y-73078332D02*
X83314700Y-73111666D01*
X83314700Y-73111666D02*
X83248033Y-73144999D01*
X83248033Y-73144999D02*
X83181366Y-73144999D01*
X83181366Y-73144999D02*
X83081366Y-73111666D01*
X83081366Y-73111666D02*
X82681366Y-72711666D01*
X82681366Y-72711666D02*
X82681366Y-73144999D01*
X110318633Y-78191666D02*
X109618633Y-78191666D01*
X109618633Y-78191666D02*
X109618633Y-77924999D01*
X109618633Y-77924999D02*
X109651966Y-77858333D01*
X109651966Y-77858333D02*
X109685300Y-77824999D01*
X109685300Y-77824999D02*
X109751966Y-77791666D01*
X109751966Y-77791666D02*
X109851966Y-77791666D01*
X109851966Y-77791666D02*
X109918633Y-77824999D01*
X109918633Y-77824999D02*
X109951966Y-77858333D01*
X109951966Y-77858333D02*
X109985300Y-77924999D01*
X109985300Y-77924999D02*
X109985300Y-78191666D01*
X110118633Y-77524999D02*
X110118633Y-77191666D01*
X110318633Y-77591666D02*
X109618633Y-77358333D01*
X109618633Y-77358333D02*
X110318633Y-77124999D01*
X109618633Y-76558333D02*
X109618633Y-76891666D01*
X109618633Y-76891666D02*
X109951966Y-76924999D01*
X109951966Y-76924999D02*
X109918633Y-76891666D01*
X109918633Y-76891666D02*
X109885300Y-76824999D01*
X109885300Y-76824999D02*
X109885300Y-76658333D01*
X109885300Y-76658333D02*
X109918633Y-76591666D01*
X109918633Y-76591666D02*
X109951966Y-76558333D01*
X109951966Y-76558333D02*
X110018633Y-76524999D01*
X110018633Y-76524999D02*
X110185300Y-76524999D01*
X110185300Y-76524999D02*
X110251966Y-76558333D01*
X110251966Y-76558333D02*
X110285300Y-76591666D01*
X110285300Y-76591666D02*
X110318633Y-76658333D01*
X110318633Y-76658333D02*
X110318633Y-76824999D01*
X110318633Y-76824999D02*
X110285300Y-76891666D01*
X110285300Y-76891666D02*
X110251966Y-76924999D01*
D11*
X86930680Y-48810380D02*
X86930680Y-48905618D01*
X86930680Y-48905618D02*
X86883061Y-49000856D01*
X86883061Y-49000856D02*
X86835442Y-49048475D01*
X86835442Y-49048475D02*
X86740204Y-49096094D01*
X86740204Y-49096094D02*
X86549728Y-49143713D01*
X86549728Y-49143713D02*
X86311633Y-49143713D01*
X86311633Y-49143713D02*
X86121157Y-49096094D01*
X86121157Y-49096094D02*
X86025919Y-49048475D01*
X86025919Y-49048475D02*
X85978300Y-49000856D01*
X85978300Y-49000856D02*
X85930680Y-48905618D01*
X85930680Y-48905618D02*
X85930680Y-48810380D01*
X85930680Y-48810380D02*
X85978300Y-48715142D01*
X85978300Y-48715142D02*
X86025919Y-48667523D01*
X86025919Y-48667523D02*
X86121157Y-48619904D01*
X86121157Y-48619904D02*
X86311633Y-48572285D01*
X86311633Y-48572285D02*
X86549728Y-48572285D01*
X86549728Y-48572285D02*
X86740204Y-48619904D01*
X86740204Y-48619904D02*
X86835442Y-48667523D01*
X86835442Y-48667523D02*
X86883061Y-48715142D01*
X86883061Y-48715142D02*
X86930680Y-48810380D01*
D10*
X82681366Y-74018332D02*
X83381366Y-74018332D01*
X83381366Y-74018332D02*
X83381366Y-74284999D01*
X83381366Y-74284999D02*
X83348033Y-74351666D01*
X83348033Y-74351666D02*
X83314700Y-74384999D01*
X83314700Y-74384999D02*
X83248033Y-74418332D01*
X83248033Y-74418332D02*
X83148033Y-74418332D01*
X83148033Y-74418332D02*
X83081366Y-74384999D01*
X83081366Y-74384999D02*
X83048033Y-74351666D01*
X83048033Y-74351666D02*
X83014700Y-74284999D01*
X83014700Y-74284999D02*
X83014700Y-74018332D01*
X82881366Y-74684999D02*
X82881366Y-75018332D01*
X82681366Y-74618332D02*
X83381366Y-74851666D01*
X83381366Y-74851666D02*
X82681366Y-75084999D01*
X83381366Y-75251666D02*
X83381366Y-75684999D01*
X83381366Y-75684999D02*
X83114700Y-75451666D01*
X83114700Y-75451666D02*
X83114700Y-75551666D01*
X83114700Y-75551666D02*
X83081366Y-75618332D01*
X83081366Y-75618332D02*
X83048033Y-75651666D01*
X83048033Y-75651666D02*
X82981366Y-75684999D01*
X82981366Y-75684999D02*
X82814700Y-75684999D01*
X82814700Y-75684999D02*
X82748033Y-75651666D01*
X82748033Y-75651666D02*
X82714700Y-75618332D01*
X82714700Y-75618332D02*
X82681366Y-75551666D01*
X82681366Y-75551666D02*
X82681366Y-75351666D01*
X82681366Y-75351666D02*
X82714700Y-75284999D01*
X82714700Y-75284999D02*
X82748033Y-75251666D01*
D11*
X85930680Y-58823713D02*
X85930680Y-58252285D01*
X85930680Y-58537999D02*
X86930680Y-58537999D01*
X86930680Y-58537999D02*
X86787823Y-58442761D01*
X86787823Y-58442761D02*
X86692585Y-58347523D01*
X86692585Y-58347523D02*
X86644966Y-58252285D01*
D10*
X110318633Y-70621666D02*
X109618633Y-70621666D01*
X109618633Y-70621666D02*
X109618633Y-70354999D01*
X109618633Y-70354999D02*
X109651966Y-70288333D01*
X109651966Y-70288333D02*
X109685300Y-70254999D01*
X109685300Y-70254999D02*
X109751966Y-70221666D01*
X109751966Y-70221666D02*
X109851966Y-70221666D01*
X109851966Y-70221666D02*
X109918633Y-70254999D01*
X109918633Y-70254999D02*
X109951966Y-70288333D01*
X109951966Y-70288333D02*
X109985300Y-70354999D01*
X109985300Y-70354999D02*
X109985300Y-70621666D01*
X109951966Y-69688333D02*
X109985300Y-69588333D01*
X109985300Y-69588333D02*
X110018633Y-69554999D01*
X110018633Y-69554999D02*
X110085300Y-69521666D01*
X110085300Y-69521666D02*
X110185300Y-69521666D01*
X110185300Y-69521666D02*
X110251966Y-69554999D01*
X110251966Y-69554999D02*
X110285300Y-69588333D01*
X110285300Y-69588333D02*
X110318633Y-69654999D01*
X110318633Y-69654999D02*
X110318633Y-69921666D01*
X110318633Y-69921666D02*
X109618633Y-69921666D01*
X109618633Y-69921666D02*
X109618633Y-69688333D01*
X109618633Y-69688333D02*
X109651966Y-69621666D01*
X109651966Y-69621666D02*
X109685300Y-69588333D01*
X109685300Y-69588333D02*
X109751966Y-69554999D01*
X109751966Y-69554999D02*
X109818633Y-69554999D01*
X109818633Y-69554999D02*
X109885300Y-69588333D01*
X109885300Y-69588333D02*
X109918633Y-69621666D01*
X109918633Y-69621666D02*
X109951966Y-69688333D01*
X109951966Y-69688333D02*
X109951966Y-69921666D01*
X110318633Y-68854999D02*
X110318633Y-69254999D01*
X110318633Y-69054999D02*
X109618633Y-69054999D01*
X109618633Y-69054999D02*
X109718633Y-69121666D01*
X109718633Y-69121666D02*
X109785300Y-69188333D01*
X109785300Y-69188333D02*
X109818633Y-69254999D01*
X100510533Y-60195121D02*
X100543866Y-60128454D01*
X100543866Y-60128454D02*
X100543866Y-60028454D01*
X100543866Y-60028454D02*
X100510533Y-59928454D01*
X100510533Y-59928454D02*
X100443866Y-59861788D01*
X100443866Y-59861788D02*
X100377200Y-59828454D01*
X100377200Y-59828454D02*
X100243866Y-59795121D01*
X100243866Y-59795121D02*
X100143866Y-59795121D01*
X100143866Y-59795121D02*
X100010533Y-59828454D01*
X100010533Y-59828454D02*
X99943866Y-59861788D01*
X99943866Y-59861788D02*
X99877200Y-59928454D01*
X99877200Y-59928454D02*
X99843866Y-60028454D01*
X99843866Y-60028454D02*
X99843866Y-60095121D01*
X99843866Y-60095121D02*
X99877200Y-60195121D01*
X99877200Y-60195121D02*
X99910533Y-60228454D01*
X99910533Y-60228454D02*
X100143866Y-60228454D01*
X100143866Y-60228454D02*
X100143866Y-60095121D01*
X99843866Y-60528454D02*
X100543866Y-60528454D01*
X100543866Y-60528454D02*
X99843866Y-60928454D01*
X99843866Y-60928454D02*
X100543866Y-60928454D01*
X99843866Y-61261787D02*
X100543866Y-61261787D01*
X100543866Y-61261787D02*
X100543866Y-61428454D01*
X100543866Y-61428454D02*
X100510533Y-61528454D01*
X100510533Y-61528454D02*
X100443866Y-61595121D01*
X100443866Y-61595121D02*
X100377200Y-61628454D01*
X100377200Y-61628454D02*
X100243866Y-61661787D01*
X100243866Y-61661787D02*
X100143866Y-61661787D01*
X100143866Y-61661787D02*
X100010533Y-61628454D01*
X100010533Y-61628454D02*
X99943866Y-61595121D01*
X99943866Y-61595121D02*
X99877200Y-61528454D01*
X99877200Y-61528454D02*
X99843866Y-61428454D01*
X99843866Y-61428454D02*
X99843866Y-61261787D01*
X82681366Y-76558332D02*
X83381366Y-76558332D01*
X83381366Y-76558332D02*
X83381366Y-76824999D01*
X83381366Y-76824999D02*
X83348033Y-76891666D01*
X83348033Y-76891666D02*
X83314700Y-76924999D01*
X83314700Y-76924999D02*
X83248033Y-76958332D01*
X83248033Y-76958332D02*
X83148033Y-76958332D01*
X83148033Y-76958332D02*
X83081366Y-76924999D01*
X83081366Y-76924999D02*
X83048033Y-76891666D01*
X83048033Y-76891666D02*
X83014700Y-76824999D01*
X83014700Y-76824999D02*
X83014700Y-76558332D01*
X82881366Y-77224999D02*
X82881366Y-77558332D01*
X82681366Y-77158332D02*
X83381366Y-77391666D01*
X83381366Y-77391666D02*
X82681366Y-77624999D01*
X83148033Y-78158332D02*
X82681366Y-78158332D01*
X83414700Y-77991666D02*
X82914700Y-77824999D01*
X82914700Y-77824999D02*
X82914700Y-78258332D01*
X83381366Y-61268332D02*
X83381366Y-61701665D01*
X83381366Y-61701665D02*
X83114700Y-61468332D01*
X83114700Y-61468332D02*
X83114700Y-61568332D01*
X83114700Y-61568332D02*
X83081366Y-61634998D01*
X83081366Y-61634998D02*
X83048033Y-61668332D01*
X83048033Y-61668332D02*
X82981366Y-61701665D01*
X82981366Y-61701665D02*
X82814700Y-61701665D01*
X82814700Y-61701665D02*
X82748033Y-61668332D01*
X82748033Y-61668332D02*
X82714700Y-61634998D01*
X82714700Y-61634998D02*
X82681366Y-61568332D01*
X82681366Y-61568332D02*
X82681366Y-61368332D01*
X82681366Y-61368332D02*
X82714700Y-61301665D01*
X82714700Y-61301665D02*
X82748033Y-61268332D01*
X83381366Y-61901665D02*
X82681366Y-62134999D01*
X82681366Y-62134999D02*
X83381366Y-62368332D01*
X83381366Y-62534999D02*
X83381366Y-62968332D01*
X83381366Y-62968332D02*
X83114700Y-62734999D01*
X83114700Y-62734999D02*
X83114700Y-62834999D01*
X83114700Y-62834999D02*
X83081366Y-62901665D01*
X83081366Y-62901665D02*
X83048033Y-62934999D01*
X83048033Y-62934999D02*
X82981366Y-62968332D01*
X82981366Y-62968332D02*
X82814700Y-62968332D01*
X82814700Y-62968332D02*
X82748033Y-62934999D01*
X82748033Y-62934999D02*
X82714700Y-62901665D01*
X82714700Y-62901665D02*
X82681366Y-62834999D01*
X82681366Y-62834999D02*
X82681366Y-62634999D01*
X82681366Y-62634999D02*
X82714700Y-62568332D01*
X82714700Y-62568332D02*
X82748033Y-62534999D01*
X110318633Y-75651666D02*
X109618633Y-75651666D01*
X109618633Y-75651666D02*
X109618633Y-75384999D01*
X109618633Y-75384999D02*
X109651966Y-75318333D01*
X109651966Y-75318333D02*
X109685300Y-75284999D01*
X109685300Y-75284999D02*
X109751966Y-75251666D01*
X109751966Y-75251666D02*
X109851966Y-75251666D01*
X109851966Y-75251666D02*
X109918633Y-75284999D01*
X109918633Y-75284999D02*
X109951966Y-75318333D01*
X109951966Y-75318333D02*
X109985300Y-75384999D01*
X109985300Y-75384999D02*
X109985300Y-75651666D01*
X110118633Y-74984999D02*
X110118633Y-74651666D01*
X110318633Y-75051666D02*
X109618633Y-74818333D01*
X109618633Y-74818333D02*
X110318633Y-74584999D01*
X109618633Y-74051666D02*
X109618633Y-74184999D01*
X109618633Y-74184999D02*
X109651966Y-74251666D01*
X109651966Y-74251666D02*
X109685300Y-74284999D01*
X109685300Y-74284999D02*
X109785300Y-74351666D01*
X109785300Y-74351666D02*
X109918633Y-74384999D01*
X109918633Y-74384999D02*
X110185300Y-74384999D01*
X110185300Y-74384999D02*
X110251966Y-74351666D01*
X110251966Y-74351666D02*
X110285300Y-74318333D01*
X110285300Y-74318333D02*
X110318633Y-74251666D01*
X110318633Y-74251666D02*
X110318633Y-74118333D01*
X110318633Y-74118333D02*
X110285300Y-74051666D01*
X110285300Y-74051666D02*
X110251966Y-74018333D01*
X110251966Y-74018333D02*
X110185300Y-73984999D01*
X110185300Y-73984999D02*
X110018633Y-73984999D01*
X110018633Y-73984999D02*
X109951966Y-74018333D01*
X109951966Y-74018333D02*
X109918633Y-74051666D01*
X109918633Y-74051666D02*
X109885300Y-74118333D01*
X109885300Y-74118333D02*
X109885300Y-74251666D01*
X109885300Y-74251666D02*
X109918633Y-74318333D01*
X109918633Y-74318333D02*
X109951966Y-74351666D01*
X109951966Y-74351666D02*
X110018633Y-74384999D01*
X82681366Y-68938332D02*
X83381366Y-68938332D01*
X83381366Y-68938332D02*
X83381366Y-69204999D01*
X83381366Y-69204999D02*
X83348033Y-69271666D01*
X83348033Y-69271666D02*
X83314700Y-69304999D01*
X83314700Y-69304999D02*
X83248033Y-69338332D01*
X83248033Y-69338332D02*
X83148033Y-69338332D01*
X83148033Y-69338332D02*
X83081366Y-69304999D01*
X83081366Y-69304999D02*
X83048033Y-69271666D01*
X83048033Y-69271666D02*
X83014700Y-69204999D01*
X83014700Y-69204999D02*
X83014700Y-68938332D01*
X82881366Y-69604999D02*
X82881366Y-69938332D01*
X82681366Y-69538332D02*
X83381366Y-69771666D01*
X83381366Y-69771666D02*
X82681366Y-70004999D01*
X82681366Y-70604999D02*
X82681366Y-70204999D01*
X82681366Y-70404999D02*
X83381366Y-70404999D01*
X83381366Y-70404999D02*
X83281366Y-70338332D01*
X83281366Y-70338332D02*
X83214700Y-70271666D01*
X83214700Y-70271666D02*
X83181366Y-70204999D01*
D11*
X94503404Y-78413818D02*
X94170071Y-77937627D01*
X93931976Y-78413818D02*
X93931976Y-77413818D01*
X93931976Y-77413818D02*
X94312928Y-77413818D01*
X94312928Y-77413818D02*
X94408166Y-77461437D01*
X94408166Y-77461437D02*
X94455785Y-77509056D01*
X94455785Y-77509056D02*
X94503404Y-77604294D01*
X94503404Y-77604294D02*
X94503404Y-77747151D01*
X94503404Y-77747151D02*
X94455785Y-77842389D01*
X94455785Y-77842389D02*
X94408166Y-77890008D01*
X94408166Y-77890008D02*
X94312928Y-77937627D01*
X94312928Y-77937627D02*
X93931976Y-77937627D01*
X95312928Y-78366199D02*
X95217690Y-78413818D01*
X95217690Y-78413818D02*
X95027214Y-78413818D01*
X95027214Y-78413818D02*
X94931976Y-78366199D01*
X94931976Y-78366199D02*
X94884357Y-78270960D01*
X94884357Y-78270960D02*
X94884357Y-77890008D01*
X94884357Y-77890008D02*
X94931976Y-77794770D01*
X94931976Y-77794770D02*
X95027214Y-77747151D01*
X95027214Y-77747151D02*
X95217690Y-77747151D01*
X95217690Y-77747151D02*
X95312928Y-77794770D01*
X95312928Y-77794770D02*
X95360547Y-77890008D01*
X95360547Y-77890008D02*
X95360547Y-77985246D01*
X95360547Y-77985246D02*
X94884357Y-78080484D01*
X95741500Y-78366199D02*
X95836738Y-78413818D01*
X95836738Y-78413818D02*
X96027214Y-78413818D01*
X96027214Y-78413818D02*
X96122452Y-78366199D01*
X96122452Y-78366199D02*
X96170071Y-78270960D01*
X96170071Y-78270960D02*
X96170071Y-78223341D01*
X96170071Y-78223341D02*
X96122452Y-78128103D01*
X96122452Y-78128103D02*
X96027214Y-78080484D01*
X96027214Y-78080484D02*
X95884357Y-78080484D01*
X95884357Y-78080484D02*
X95789119Y-78032865D01*
X95789119Y-78032865D02*
X95741500Y-77937627D01*
X95741500Y-77937627D02*
X95741500Y-77890008D01*
X95741500Y-77890008D02*
X95789119Y-77794770D01*
X95789119Y-77794770D02*
X95884357Y-77747151D01*
X95884357Y-77747151D02*
X96027214Y-77747151D01*
X96027214Y-77747151D02*
X96122452Y-77794770D01*
X96979595Y-78366199D02*
X96884357Y-78413818D01*
X96884357Y-78413818D02*
X96693881Y-78413818D01*
X96693881Y-78413818D02*
X96598643Y-78366199D01*
X96598643Y-78366199D02*
X96551024Y-78270960D01*
X96551024Y-78270960D02*
X96551024Y-77890008D01*
X96551024Y-77890008D02*
X96598643Y-77794770D01*
X96598643Y-77794770D02*
X96693881Y-77747151D01*
X96693881Y-77747151D02*
X96884357Y-77747151D01*
X96884357Y-77747151D02*
X96979595Y-77794770D01*
X96979595Y-77794770D02*
X97027214Y-77890008D01*
X97027214Y-77890008D02*
X97027214Y-77985246D01*
X97027214Y-77985246D02*
X96551024Y-78080484D01*
X97312929Y-77747151D02*
X97693881Y-77747151D01*
X97455786Y-77413818D02*
X97455786Y-78270960D01*
X97455786Y-78270960D02*
X97503405Y-78366199D01*
X97503405Y-78366199D02*
X97598643Y-78413818D01*
X97598643Y-78413818D02*
X97693881Y-78413818D01*
D10*
X106856133Y-51264043D02*
X106156133Y-51264043D01*
X106156133Y-51264043D02*
X106156133Y-50997376D01*
X106156133Y-50997376D02*
X106189466Y-50930710D01*
X106189466Y-50930710D02*
X106222800Y-50897376D01*
X106222800Y-50897376D02*
X106289466Y-50864043D01*
X106289466Y-50864043D02*
X106389466Y-50864043D01*
X106389466Y-50864043D02*
X106456133Y-50897376D01*
X106456133Y-50897376D02*
X106489466Y-50930710D01*
X106489466Y-50930710D02*
X106522800Y-50997376D01*
X106522800Y-50997376D02*
X106522800Y-51264043D01*
X106856133Y-50464043D02*
X106822800Y-50530710D01*
X106822800Y-50530710D02*
X106789466Y-50564043D01*
X106789466Y-50564043D02*
X106722800Y-50597376D01*
X106722800Y-50597376D02*
X106522800Y-50597376D01*
X106522800Y-50597376D02*
X106456133Y-50564043D01*
X106456133Y-50564043D02*
X106422800Y-50530710D01*
X106422800Y-50530710D02*
X106389466Y-50464043D01*
X106389466Y-50464043D02*
X106389466Y-50364043D01*
X106389466Y-50364043D02*
X106422800Y-50297376D01*
X106422800Y-50297376D02*
X106456133Y-50264043D01*
X106456133Y-50264043D02*
X106522800Y-50230710D01*
X106522800Y-50230710D02*
X106722800Y-50230710D01*
X106722800Y-50230710D02*
X106789466Y-50264043D01*
X106789466Y-50264043D02*
X106822800Y-50297376D01*
X106822800Y-50297376D02*
X106856133Y-50364043D01*
X106856133Y-50364043D02*
X106856133Y-50464043D01*
X106389466Y-49997377D02*
X106856133Y-49864043D01*
X106856133Y-49864043D02*
X106522800Y-49730710D01*
X106522800Y-49730710D02*
X106856133Y-49597377D01*
X106856133Y-49597377D02*
X106389466Y-49464043D01*
X106822800Y-48930710D02*
X106856133Y-48997377D01*
X106856133Y-48997377D02*
X106856133Y-49130710D01*
X106856133Y-49130710D02*
X106822800Y-49197377D01*
X106822800Y-49197377D02*
X106756133Y-49230710D01*
X106756133Y-49230710D02*
X106489466Y-49230710D01*
X106489466Y-49230710D02*
X106422800Y-49197377D01*
X106422800Y-49197377D02*
X106389466Y-49130710D01*
X106389466Y-49130710D02*
X106389466Y-48997377D01*
X106389466Y-48997377D02*
X106422800Y-48930710D01*
X106422800Y-48930710D02*
X106489466Y-48897377D01*
X106489466Y-48897377D02*
X106556133Y-48897377D01*
X106556133Y-48897377D02*
X106622800Y-49230710D01*
X106856133Y-48597377D02*
X106389466Y-48597377D01*
X106522800Y-48597377D02*
X106456133Y-48564044D01*
X106456133Y-48564044D02*
X106422800Y-48530710D01*
X106422800Y-48530710D02*
X106389466Y-48464044D01*
X106389466Y-48464044D02*
X106389466Y-48397377D01*
X83348033Y-64141666D02*
X83381366Y-64074999D01*
X83381366Y-64074999D02*
X83381366Y-63974999D01*
X83381366Y-63974999D02*
X83348033Y-63874999D01*
X83348033Y-63874999D02*
X83281366Y-63808333D01*
X83281366Y-63808333D02*
X83214700Y-63774999D01*
X83214700Y-63774999D02*
X83081366Y-63741666D01*
X83081366Y-63741666D02*
X82981366Y-63741666D01*
X82981366Y-63741666D02*
X82848033Y-63774999D01*
X82848033Y-63774999D02*
X82781366Y-63808333D01*
X82781366Y-63808333D02*
X82714700Y-63874999D01*
X82714700Y-63874999D02*
X82681366Y-63974999D01*
X82681366Y-63974999D02*
X82681366Y-64041666D01*
X82681366Y-64041666D02*
X82714700Y-64141666D01*
X82714700Y-64141666D02*
X82748033Y-64174999D01*
X82748033Y-64174999D02*
X82981366Y-64174999D01*
X82981366Y-64174999D02*
X82981366Y-64041666D01*
X82681366Y-64474999D02*
X83381366Y-64474999D01*
X83381366Y-64474999D02*
X82681366Y-64874999D01*
X82681366Y-64874999D02*
X83381366Y-64874999D01*
X82681366Y-65208332D02*
X83381366Y-65208332D01*
X83381366Y-65208332D02*
X83381366Y-65374999D01*
X83381366Y-65374999D02*
X83348033Y-65474999D01*
X83348033Y-65474999D02*
X83281366Y-65541666D01*
X83281366Y-65541666D02*
X83214700Y-65574999D01*
X83214700Y-65574999D02*
X83081366Y-65608332D01*
X83081366Y-65608332D02*
X82981366Y-65608332D01*
X82981366Y-65608332D02*
X82848033Y-65574999D01*
X82848033Y-65574999D02*
X82781366Y-65541666D01*
X82781366Y-65541666D02*
X82714700Y-65474999D01*
X82714700Y-65474999D02*
X82681366Y-65374999D01*
X82681366Y-65374999D02*
X82681366Y-65208332D01*
X82681366Y-66398332D02*
X83381366Y-66398332D01*
X83381366Y-66398332D02*
X83381366Y-66664999D01*
X83381366Y-66664999D02*
X83348033Y-66731666D01*
X83348033Y-66731666D02*
X83314700Y-66764999D01*
X83314700Y-66764999D02*
X83248033Y-66798332D01*
X83248033Y-66798332D02*
X83148033Y-66798332D01*
X83148033Y-66798332D02*
X83081366Y-66764999D01*
X83081366Y-66764999D02*
X83048033Y-66731666D01*
X83048033Y-66731666D02*
X83014700Y-66664999D01*
X83014700Y-66664999D02*
X83014700Y-66398332D01*
X82881366Y-67064999D02*
X82881366Y-67398332D01*
X82681366Y-66998332D02*
X83381366Y-67231666D01*
X83381366Y-67231666D02*
X82681366Y-67464999D01*
X83381366Y-67831666D02*
X83381366Y-67898332D01*
X83381366Y-67898332D02*
X83348033Y-67964999D01*
X83348033Y-67964999D02*
X83314700Y-67998332D01*
X83314700Y-67998332D02*
X83248033Y-68031666D01*
X83248033Y-68031666D02*
X83114700Y-68064999D01*
X83114700Y-68064999D02*
X82948033Y-68064999D01*
X82948033Y-68064999D02*
X82814700Y-68031666D01*
X82814700Y-68031666D02*
X82748033Y-67998332D01*
X82748033Y-67998332D02*
X82714700Y-67964999D01*
X82714700Y-67964999D02*
X82681366Y-67898332D01*
X82681366Y-67898332D02*
X82681366Y-67831666D01*
X82681366Y-67831666D02*
X82714700Y-67764999D01*
X82714700Y-67764999D02*
X82748033Y-67731666D01*
X82748033Y-67731666D02*
X82814700Y-67698332D01*
X82814700Y-67698332D02*
X82948033Y-67664999D01*
X82948033Y-67664999D02*
X83114700Y-67664999D01*
X83114700Y-67664999D02*
X83248033Y-67698332D01*
X83248033Y-67698332D02*
X83314700Y-67731666D01*
X83314700Y-67731666D02*
X83348033Y-67764999D01*
X83348033Y-67764999D02*
X83381366Y-67831666D01*
X97337200Y-59795121D02*
X97303866Y-59895121D01*
X97303866Y-59895121D02*
X97303866Y-60061788D01*
X97303866Y-60061788D02*
X97337200Y-60128454D01*
X97337200Y-60128454D02*
X97370533Y-60161788D01*
X97370533Y-60161788D02*
X97437200Y-60195121D01*
X97437200Y-60195121D02*
X97503866Y-60195121D01*
X97503866Y-60195121D02*
X97570533Y-60161788D01*
X97570533Y-60161788D02*
X97603866Y-60128454D01*
X97603866Y-60128454D02*
X97637200Y-60061788D01*
X97637200Y-60061788D02*
X97670533Y-59928454D01*
X97670533Y-59928454D02*
X97703866Y-59861788D01*
X97703866Y-59861788D02*
X97737200Y-59828454D01*
X97737200Y-59828454D02*
X97803866Y-59795121D01*
X97803866Y-59795121D02*
X97870533Y-59795121D01*
X97870533Y-59795121D02*
X97937200Y-59828454D01*
X97937200Y-59828454D02*
X97970533Y-59861788D01*
X97970533Y-59861788D02*
X98003866Y-59928454D01*
X98003866Y-59928454D02*
X98003866Y-60095121D01*
X98003866Y-60095121D02*
X97970533Y-60195121D01*
X98003866Y-60428455D02*
X97303866Y-60595121D01*
X97303866Y-60595121D02*
X97803866Y-60728455D01*
X97803866Y-60728455D02*
X97303866Y-60861788D01*
X97303866Y-60861788D02*
X98003866Y-61028455D01*
X97370533Y-61695121D02*
X97337200Y-61661788D01*
X97337200Y-61661788D02*
X97303866Y-61561788D01*
X97303866Y-61561788D02*
X97303866Y-61495121D01*
X97303866Y-61495121D02*
X97337200Y-61395121D01*
X97337200Y-61395121D02*
X97403866Y-61328455D01*
X97403866Y-61328455D02*
X97470533Y-61295121D01*
X97470533Y-61295121D02*
X97603866Y-61261788D01*
X97603866Y-61261788D02*
X97703866Y-61261788D01*
X97703866Y-61261788D02*
X97837200Y-61295121D01*
X97837200Y-61295121D02*
X97903866Y-61328455D01*
X97903866Y-61328455D02*
X97970533Y-61395121D01*
X97970533Y-61395121D02*
X98003866Y-61495121D01*
X98003866Y-61495121D02*
X98003866Y-61561788D01*
X98003866Y-61561788D02*
X97970533Y-61661788D01*
X97970533Y-61661788D02*
X97937200Y-61695121D01*
X97303866Y-62328455D02*
X97303866Y-61995121D01*
X97303866Y-61995121D02*
X98003866Y-61995121D01*
X97303866Y-62561788D02*
X98003866Y-62561788D01*
X97303866Y-62961788D02*
X97703866Y-62661788D01*
X98003866Y-62961788D02*
X97603866Y-62561788D01*
X110318633Y-68031666D02*
X109618633Y-68031666D01*
X109618633Y-68031666D02*
X109618633Y-67764999D01*
X109618633Y-67764999D02*
X109651966Y-67698333D01*
X109651966Y-67698333D02*
X109685300Y-67664999D01*
X109685300Y-67664999D02*
X109751966Y-67631666D01*
X109751966Y-67631666D02*
X109851966Y-67631666D01*
X109851966Y-67631666D02*
X109918633Y-67664999D01*
X109918633Y-67664999D02*
X109951966Y-67698333D01*
X109951966Y-67698333D02*
X109985300Y-67764999D01*
X109985300Y-67764999D02*
X109985300Y-68031666D01*
X110118633Y-67364999D02*
X110118633Y-67031666D01*
X110318633Y-67431666D02*
X109618633Y-67198333D01*
X109618633Y-67198333D02*
X110318633Y-66964999D01*
X110318633Y-66698333D02*
X110318633Y-66564999D01*
X110318633Y-66564999D02*
X110285300Y-66498333D01*
X110285300Y-66498333D02*
X110251966Y-66464999D01*
X110251966Y-66464999D02*
X110151966Y-66398333D01*
X110151966Y-66398333D02*
X110018633Y-66364999D01*
X110018633Y-66364999D02*
X109751966Y-66364999D01*
X109751966Y-66364999D02*
X109685300Y-66398333D01*
X109685300Y-66398333D02*
X109651966Y-66431666D01*
X109651966Y-66431666D02*
X109618633Y-66498333D01*
X109618633Y-66498333D02*
X109618633Y-66631666D01*
X109618633Y-66631666D02*
X109651966Y-66698333D01*
X109651966Y-66698333D02*
X109685300Y-66731666D01*
X109685300Y-66731666D02*
X109751966Y-66764999D01*
X109751966Y-66764999D02*
X109918633Y-66764999D01*
X109918633Y-66764999D02*
X109985300Y-66731666D01*
X109985300Y-66731666D02*
X110018633Y-66698333D01*
X110018633Y-66698333D02*
X110051966Y-66631666D01*
X110051966Y-66631666D02*
X110051966Y-66498333D01*
X110051966Y-66498333D02*
X110018633Y-66431666D01*
X110018633Y-66431666D02*
X109985300Y-66398333D01*
X109985300Y-66398333D02*
X109918633Y-66364999D01*
D11*
X89243490Y-51864665D02*
X89195871Y-52007522D01*
X89195871Y-52007522D02*
X89148252Y-52055141D01*
X89148252Y-52055141D02*
X89053014Y-52102760D01*
X89053014Y-52102760D02*
X88910157Y-52102760D01*
X88910157Y-52102760D02*
X88814919Y-52055141D01*
X88814919Y-52055141D02*
X88767300Y-52007522D01*
X88767300Y-52007522D02*
X88719680Y-51912284D01*
X88719680Y-51912284D02*
X88719680Y-51531332D01*
X88719680Y-51531332D02*
X89719680Y-51531332D01*
X89719680Y-51531332D02*
X89719680Y-51864665D01*
X89719680Y-51864665D02*
X89672061Y-51959903D01*
X89672061Y-51959903D02*
X89624442Y-52007522D01*
X89624442Y-52007522D02*
X89529204Y-52055141D01*
X89529204Y-52055141D02*
X89433966Y-52055141D01*
X89433966Y-52055141D02*
X89338728Y-52007522D01*
X89338728Y-52007522D02*
X89291109Y-51959903D01*
X89291109Y-51959903D02*
X89243490Y-51864665D01*
X89243490Y-51864665D02*
X89243490Y-51531332D01*
X89719680Y-52721808D02*
X89719680Y-52912284D01*
X89719680Y-52912284D02*
X89672061Y-53007522D01*
X89672061Y-53007522D02*
X89576823Y-53102760D01*
X89576823Y-53102760D02*
X89386347Y-53150379D01*
X89386347Y-53150379D02*
X89053014Y-53150379D01*
X89053014Y-53150379D02*
X88862538Y-53102760D01*
X88862538Y-53102760D02*
X88767300Y-53007522D01*
X88767300Y-53007522D02*
X88719680Y-52912284D01*
X88719680Y-52912284D02*
X88719680Y-52721808D01*
X88719680Y-52721808D02*
X88767300Y-52626570D01*
X88767300Y-52626570D02*
X88862538Y-52531332D01*
X88862538Y-52531332D02*
X89053014Y-52483713D01*
X89053014Y-52483713D02*
X89386347Y-52483713D01*
X89386347Y-52483713D02*
X89576823Y-52531332D01*
X89576823Y-52531332D02*
X89672061Y-52626570D01*
X89672061Y-52626570D02*
X89719680Y-52721808D01*
X89719680Y-53769427D02*
X89719680Y-53959903D01*
X89719680Y-53959903D02*
X89672061Y-54055141D01*
X89672061Y-54055141D02*
X89576823Y-54150379D01*
X89576823Y-54150379D02*
X89386347Y-54197998D01*
X89386347Y-54197998D02*
X89053014Y-54197998D01*
X89053014Y-54197998D02*
X88862538Y-54150379D01*
X88862538Y-54150379D02*
X88767300Y-54055141D01*
X88767300Y-54055141D02*
X88719680Y-53959903D01*
X88719680Y-53959903D02*
X88719680Y-53769427D01*
X88719680Y-53769427D02*
X88767300Y-53674189D01*
X88767300Y-53674189D02*
X88862538Y-53578951D01*
X88862538Y-53578951D02*
X89053014Y-53531332D01*
X89053014Y-53531332D02*
X89386347Y-53531332D01*
X89386347Y-53531332D02*
X89576823Y-53578951D01*
X89576823Y-53578951D02*
X89672061Y-53674189D01*
X89672061Y-53674189D02*
X89719680Y-53769427D01*
X89719680Y-54483713D02*
X89719680Y-55055141D01*
X88719680Y-54769427D02*
X89719680Y-54769427D01*
X89719680Y-55578951D02*
X89719680Y-55674189D01*
X89719680Y-55674189D02*
X89672061Y-55769427D01*
X89672061Y-55769427D02*
X89624442Y-55817046D01*
X89624442Y-55817046D02*
X89529204Y-55864665D01*
X89529204Y-55864665D02*
X89338728Y-55912284D01*
X89338728Y-55912284D02*
X89100633Y-55912284D01*
X89100633Y-55912284D02*
X88910157Y-55864665D01*
X88910157Y-55864665D02*
X88814919Y-55817046D01*
X88814919Y-55817046D02*
X88767300Y-55769427D01*
X88767300Y-55769427D02*
X88719680Y-55674189D01*
X88719680Y-55674189D02*
X88719680Y-55578951D01*
X88719680Y-55578951D02*
X88767300Y-55483713D01*
X88767300Y-55483713D02*
X88814919Y-55436094D01*
X88814919Y-55436094D02*
X88910157Y-55388475D01*
X88910157Y-55388475D02*
X89100633Y-55340856D01*
X89100633Y-55340856D02*
X89338728Y-55340856D01*
X89338728Y-55340856D02*
X89529204Y-55388475D01*
X89529204Y-55388475D02*
X89624442Y-55436094D01*
X89624442Y-55436094D02*
X89672061Y-55483713D01*
X89672061Y-55483713D02*
X89719680Y-55578951D01*
D10*
X110318633Y-73111666D02*
X109618633Y-73111666D01*
X109618633Y-73111666D02*
X109618633Y-72844999D01*
X109618633Y-72844999D02*
X109651966Y-72778333D01*
X109651966Y-72778333D02*
X109685300Y-72744999D01*
X109685300Y-72744999D02*
X109751966Y-72711666D01*
X109751966Y-72711666D02*
X109851966Y-72711666D01*
X109851966Y-72711666D02*
X109918633Y-72744999D01*
X109918633Y-72744999D02*
X109951966Y-72778333D01*
X109951966Y-72778333D02*
X109985300Y-72844999D01*
X109985300Y-72844999D02*
X109985300Y-73111666D01*
X110118633Y-72444999D02*
X110118633Y-72111666D01*
X110318633Y-72511666D02*
X109618633Y-72278333D01*
X109618633Y-72278333D02*
X110318633Y-72044999D01*
X109618633Y-71878333D02*
X109618633Y-71411666D01*
X109618633Y-71411666D02*
X110318633Y-71711666D01*
D12*
%TO.C,J2*%
X87765500Y-57617999D02*
X87765500Y-49777999D01*
X87765500Y-57617999D02*
X85005500Y-57617999D01*
X87765500Y-49777999D02*
X85005500Y-49777999D01*
X85005500Y-57617999D02*
X85005500Y-49777999D01*
%TO.C,C4*%
X91756336Y-69030999D02*
X91540664Y-69030999D01*
X91756336Y-68310999D02*
X91540664Y-68310999D01*
%TO.C,D1*%
X105802500Y-51596499D02*
X105802500Y-53881499D01*
X107272500Y-51596499D02*
X105802500Y-51596499D01*
X107272500Y-53881499D02*
X107272500Y-51596499D01*
%TO.C,C6*%
X99036500Y-74803835D02*
X99036500Y-74588163D01*
X99756500Y-74803835D02*
X99756500Y-74588163D01*
%TO.C,J3*%
X106120000Y-60754999D02*
X106120000Y-78754999D01*
X106120000Y-60754999D02*
X108880000Y-60754999D01*
X106120000Y-78754999D02*
X108880000Y-78754999D01*
X108880000Y-60754999D02*
X108880000Y-78754999D01*
D13*
%TO.C,SW1*%
X93709500Y-73651999D02*
X97773500Y-73651999D01*
X93709500Y-74094999D02*
X93709500Y-73651999D01*
X93709500Y-76699999D02*
X93709500Y-76256999D01*
X94535000Y-74159999D02*
X96948000Y-74159999D01*
X94535000Y-76191999D02*
X94535000Y-74159999D01*
X96948000Y-74159999D02*
X96948000Y-76191999D01*
X96948000Y-76191999D02*
X94535000Y-76191999D01*
X97773500Y-73651999D02*
X97773500Y-74094999D01*
X97773500Y-76256999D02*
X97773500Y-76699999D01*
X97773500Y-76699999D02*
X93709500Y-76699999D01*
X96361000Y-75177999D02*
G75*
G02*
X95111000Y-75177999I-625000J0D01*
G01*
X95111000Y-75177999D02*
G75*
G02*
X96361000Y-75177999I625000J0D01*
G01*
D12*
%TO.C,J5*%
X84120000Y-60754999D02*
X84120000Y-78754999D01*
X84120000Y-60754999D02*
X86880000Y-60754999D01*
X84120000Y-78754999D02*
X86880000Y-78754999D01*
X86880000Y-60754999D02*
X86880000Y-78754999D01*
%TO.C,R4*%
X106157500Y-55813640D02*
X106157500Y-55506358D01*
X106917500Y-55813640D02*
X106917500Y-55506358D01*
%TO.C,J1*%
X91212500Y-48096999D02*
X91212500Y-56726999D01*
X92182500Y-56726999D02*
X92182500Y-57136999D01*
X92902500Y-56726999D02*
X92902500Y-57136999D01*
X94722500Y-56726999D02*
X94722500Y-57136999D01*
X95442500Y-56726999D02*
X95442500Y-57136999D01*
X97262500Y-56726999D02*
X97262500Y-57136999D01*
X97982500Y-56726999D02*
X97982500Y-57136999D01*
X99802500Y-56726999D02*
X99802500Y-57076999D01*
X100522500Y-56726999D02*
X100522500Y-57076999D01*
X101492500Y-48096999D02*
X91212500Y-48096999D01*
X101492500Y-48096999D02*
X101492500Y-56726999D01*
X101492500Y-56726999D02*
X91212500Y-56726999D01*
%TO.C,R5*%
X104002500Y-55813640D02*
X104002500Y-55506358D01*
X104762500Y-55813640D02*
X104762500Y-55506358D01*
%TO.C,D2*%
X103643500Y-51596499D02*
X103643500Y-53881499D01*
X105113500Y-51596499D02*
X103643500Y-51596499D01*
X105113500Y-53881499D02*
X105113500Y-51596499D01*
%TO.C,R1*%
X91478359Y-66450999D02*
X91785641Y-66450999D01*
X91478359Y-65690999D02*
X91785641Y-65690999D01*
%TO.C,U1*%
X94190000Y-65610999D02*
X98810000Y-65610999D01*
X98810000Y-72380999D02*
X94190000Y-72380999D01*
%TO.C,R3*%
X100082500Y-74512358D02*
X100082500Y-74819640D01*
X100842500Y-74512358D02*
X100842500Y-74819640D01*
%TO.C,C3*%
X100530000Y-68888163D02*
X100530000Y-69103835D01*
X101250000Y-68888163D02*
X101250000Y-69103835D01*
%TD*%
M02*
