M48
; DRILL file {KiCad 9.0.6} date 2025-11-30T13:42:58+0100
; FORMAT={-:-/ absolute / metric / decimal}
; #@! TF.CreationDate,2025-11-30T13:42:58+01:00
; #@! TF.GenerationSoftware,Kicad,Pcbnew,9.0.6
; #@! TF.FileFunction,Plated,1,4,PTH
FMAT,2
METRIC
; #@! TA.AperFunction,Plated,PTH,ViaDrill
T1C0.300
; #@! TA.AperFunction,Plated,PTH,ViaDrill
T2C0.400
; #@! TA.AperFunction,Plated,PTH,ComponentDrill
T3C1.000
%
G90
G05
T1
X90.325Y-66.071
X90.368Y-68.671
X92.129Y-67.8
X92.254Y-75.176
X93.89Y-60.67
X94.921Y-69.321
X95.55Y-65.73
X96.591Y-66.582
X98.099Y-68.021
X98.099Y-69.971
X99.11Y-60.67
X99.396Y-73.395
X100.462Y-73.342
X101.69Y-68.516
X101.69Y-69.476
X105.458Y-52.294
X106.537Y-57.005
T2
X95.182Y-55.569
T3
X85.5Y-62.135
X85.5Y-64.675
X85.5Y-67.215
X85.5Y-69.755
X85.5Y-72.295
X85.5Y-74.835
X85.5Y-77.375
X86.385Y-51.158
X86.385Y-53.698
X86.385Y-56.238
X92.542Y-58.187
X95.082Y-58.187
X97.623Y-58.187
X100.162Y-58.187
X107.5Y-62.135
X107.5Y-64.675
X107.5Y-67.215
X107.5Y-69.755
X107.5Y-72.295
X107.5Y-74.835
X107.5Y-77.375
M30
